<mxfile host="65bd71144e">
    <diagram id="Trir1n8_75FdCLZcvsZa" name="ページ1">
        <mxGraphModel dx="2606" dy="1834" grid="1" gridSize="10" guides="1" tooltips="1" connect="1" arrows="1" fold="1" page="0" pageScale="1" pageWidth="827" pageHeight="1169" math="0" shadow="0">
            <root>
                <mxCell id="0"/>
                <mxCell id="1" parent="0"/>
                <mxCell id="24" value="&lt;font style=&quot;font-size: 14px&quot; color=&quot;#000000&quot;&gt;Availability zone（1a）&lt;/font&gt;" style="sketch=0;outlineConnect=0;gradientColor=none;html=1;whiteSpace=wrap;fontSize=12;fontStyle=0;shape=mxgraph.aws4.group;grIcon=mxgraph.aws4.group_availability_zone;strokeColor=#000000;fillColor=none;verticalAlign=top;align=left;spacingLeft=30;fontColor=#E8E8E8;dashed=1;" parent="1" vertex="1">
                    <mxGeometry x="-70" y="330" width="653" height="450" as="geometry"/>
                </mxCell>
                <mxCell id="68" value="AWS Cloud" style="points=[[0,0],[0.25,0],[0.5,0],[0.75,0],[1,0],[1,0.25],[1,0.5],[1,0.75],[1,1],[0.75,1],[0.5,1],[0.25,1],[0,1],[0,0.75],[0,0.5],[0,0.25]];outlineConnect=0;gradientColor=none;html=1;whiteSpace=wrap;fontSize=12;fontStyle=0;container=0;pointerEvents=0;collapsible=0;recursiveResize=0;shape=mxgraph.aws4.group;grIcon=mxgraph.aws4.group_aws_cloud_alt;strokeColor=#232F3E;fillColor=none;verticalAlign=top;align=left;spacingLeft=30;fontColor=#232F3E;dashed=0;" parent="1" vertex="1">
                    <mxGeometry x="-110" y="-90" width="1050" height="930" as="geometry"/>
                </mxCell>
                <mxCell id="2" value="" style="points=[[0,0],[0.25,0],[0.5,0],[0.75,0],[1,0],[1,0.25],[1,0.5],[1,0.75],[1,1],[0.75,1],[0.5,1],[0.25,1],[0,1],[0,0.75],[0,0.5],[0,0.25]];outlineConnect=0;gradientColor=none;html=1;whiteSpace=wrap;fontSize=12;fontStyle=0;container=0;pointerEvents=0;collapsible=0;recursiveResize=0;shape=mxgraph.aws4.group;grIcon=mxgraph.aws4.group_vpc;strokeColor=#248814;fillColor=none;verticalAlign=top;align=left;spacingLeft=30;fontColor=#AAB7B8;dashed=0;" parent="1" vertex="1">
                    <mxGeometry x="100" y="110" width="810" height="700" as="geometry"/>
                </mxCell>
                <mxCell id="53" value="" style="fontColor=#0066CC;verticalAlign=top;verticalLabelPosition=bottom;labelPosition=center;align=center;html=1;outlineConnect=0;fillColor=#CCCCCC;strokeColor=#000000;gradientColor=none;gradientDirection=north;strokeWidth=2;shape=mxgraph.networks.pc;" parent="1" vertex="1">
                    <mxGeometry x="-300" y="518" width="100" height="70" as="geometry"/>
                </mxCell>
                <mxCell id="57" style="edgeStyle=none;html=1;exitX=0.516;exitY=1.08;exitDx=0;exitDy=0;fontColor=#000000;startSize=10;endSize=10;exitPerimeter=0;" parent="1" source="58" target="26" edge="1">
                    <mxGeometry relative="1" as="geometry"/>
                </mxCell>
                <mxCell id="56" value="" style="shape=image;imageAspect=0;aspect=fixed;verticalLabelPosition=bottom;verticalAlign=top;fontColor=#000000;strokeColor=#000000;fillColor=#ffffff;image=data:image/png,iVBORw0KGgoAAAANSUhEUgAAAgAAAAIACAYAAAD0eNT6AAAABHNCSVQICAgIfAhkiAAAAAlwSFlzAAALEwAACxMBAJqcGAAAIABJREFUeJzs3Xl8FeW9P/DvM3Nm5oSENQRIIHtCIAIJBELYEhKwWm2rtdrFtrZ2tcvtYq3+ems3td7Wqt03bWv1ttZbW29tb1tLchIIEAIYNgFZQg5hNUYgCQnLOTPP9/dHDrfUq7LMc9b5vF8vX9p75fN8wczMd56ZeR4iAAAAAAAAAAAAAAAAAAAAAAAAAAAAAAAAAAAAAAAAAAAAAAAAAAAAAAAAAAAAAAAAAAAAAAAAAAAAAAAAAAAAAAAAAAAAAAAAAAAAAAAAAAAAAAAAAAAAAAAAAAAAAAAAAAAAAAAAAAAAAAAAAAAAAAAAAAAAAAAAAAAAAAAAAAAAAAAAAAAAAAAAAAAAAAAAAAAAAAAAAAAAAAAAAAAAAAAAAAAAAAAAAAAAAAAAAAAAAAAAAAAAAAAAAAAAAAAAAAAAAAAAAAAAAAAAAAAAAAAAAAAAAAAAAAAAAAAAAAAAAAAAAAAAAAAAAAAAAAAAAAAAAAAAAAAAAAAAAAAAAAAAAAAAAAAAAAAAAAAAAAAAAAAAAAAAAAAAAAAAAAAAAAAAAAAAAAAAAAAAAAAAAAAAAAAAAAAAAAAAAAAAAAAAAAAAAAAAAAAAAAAAAAAAAAAAAAAAAAAAAAAAAAAAAAAAAAAAAAAAAAAAAAAAAAAAAAAAAAAAAAAAAAAAAAAAAAAAAAAAAAAAAAAAAAAAAAAAAAAAAAAAAAAAAAAAAAAAAAAAAAAAAAAAAAAAAAAAAAAAAEhcIt4FQPKqra1dcu6fmXnp5WQIIVZG/rGvtbX1BQVlASSs2tramUQ0hkjJMUOtra2rlRQGnoQGAF5XXV1dhm3blZqmVdLwSauOmUcLISoj/4p27t8VQlzWzxIz87l/jPxFRLSKiPqIaCsz72fm/WvXrl1zeb8LgNhatGjRYiFEgRCigIjqIv/nc38Xkb9UHDNERDLy91Xn/o5jBi4WGgD4X4sWLVqsadpSIqpg5gohRCH968nq3M9LtH9u/rcpOO9kJ5l5CxFtFUJs1TRt5apVq7ZHuQ6AN1RXVzdDSrmUmSuIqCLSHGtEiXPMCCG6iWiVlHILmgI4HxoADzvvgl8X+Us776SViD8bTP88wTERnaDhO59VaAggFs5d8InoOho+ZgQNX+sT9bhhIiJmPjdTIOmfx8yfcMx4W6L9sEIUVVVVjUhPT79eSnmdEGKpEGIsM2tCCI2S92dBMjMLISQzB4lopRDi2dbW1r/FuzBIDbW1tdcw83VEdH2KHDPMzDJyzJwgoj8JIZ4dGhpa2dHRcSrexUHsJOsPMFyk8y/6mqZdf97JS7vgL04+52YIJBEdp8iJDc0AXKra2tprpJQfEEJcT8MzY6l6zBANN9FSCCGllH/SNO3Z1tbWJ+NdFEQfGoAUde6uRQjxwRS/6L8ReV4z8GtmfnzNmjU7410UJKbFixeXCyE+S0TXE9E4HDP0JyJ6fPXq1W1xrgmiBA1ACqmpqUnTdf1zQohbNE0rjlz49XjXlQiY2RFCOFLKTUT0gzVr1vwu3jVB/NXU1KT5fL7rieirmqYVMbOOY2bYecdMFxH9wLbtX7e3t5+Od12gDhqAFLBkyZJsZv6aEOKDRHTuBIb/tq+Nich2HOcYEf1A07Rfr169+mi8i4LYOu+YuV4IMY6IfIRj5vUwMztEdIyZ/ySE+AaOmdSAH/gktnDhwgVCiK9qmlZPRD7cuVwaZraJyGHmX+Ok5g21tbXTpZSfjTTLOGYuUaQRsJn511LKx9va2tbFuya4fGgAktC5C7+u6w00fOfiteeUSp1/UkMjkJrOP2Ywze/euccDjuM0M/M9aASSExqAJLJo0aIaIcRXhRANQgiDcOFXKtIIhKWUj/l8vntWrVr1UrxrAnfq6uom2bb9VU3TPoRjJiokM4ellM/4fL7bccwkFzQASQAnsdg61wgw89d1Xf/+qlWrzsS7Jrg0dXV1ftu2H9Y07VYiMnDHH12vap5vxzGTHNAAJLDIG8qfEUJ8nXASizlmtoUQvbZtf76tre2/4l0PXJxFixZ9XNf1rzHzBBwzsRV5NPCylPL7a9as+Xa864E3hgYgQS1cuPBNPp/vu0RUSkRGvOvxMmY+K6VsEkLcvmbNmj3xrgdeW01NTbWmaQ/7fL55RGTGux6PC9u2vUdK+aH29vYN8S4GXhsagARz9dVXWwMDA7/Sdf0dQgiT8N8oUUgiOmvb9tfb2toeiHcx8E+R6f6vaJp2e+SYwSOyxMCR5vnhkSNH3vPcc8+djXdB8K9wcUkgkbv+x5h5IqYuE1bYtu09mqbdgNmA+Kupqak2TfMxwkxZIgsTUa9t27e2tbWtiHcx8E9oABJAeXm5OXbs2F9qmnajEMIf73ouRNd1IqK9zNxHRFuEEANERFLKlZeSE9mJkJh5FBFVCiHGEFGp4zgqy40GJqLTjuN8be3atQ/GuxgvisyU3e3z+b5ARH5K8HMZjhkiZj7jOM6Do0aNug+zAYkhoQ8aL1iwYME8n8/3DBFlJ+Jdv67rvZE9xbdFTlb7V61a1U1EDg1fCCX9cy/ySz0Lnfv9ChqethVEpNfV1VUQUYGmaZXMXCuEqHQcJxHv7kK2bW9g5nesW7fu5XgX4xW1tbWlRPQYEVVTAt71J8AxM0sIsTRBj5kwM+8WQtzQ2tq6N97FeB0agDhatGjRHbqu30NEafGu5ZzIyWulpmmtjuOsXLVqVZCGT1LyvL/zG4a4p533l07DJ7gCXdeXSilrIye3rCjXcLEkMx+VUt66du3axngXk+oWLlz4UZ/P9z0avutPiGf9CXjMaETkS+BjhonotG3bn2tra3s03sV4GRqAOIhM+T+tadpVQggr3vXout5ERK1CiGebm5u7aPikZUf+ivaJ62IJGl710EdEen19/RwiqiOiWxzHKYlrZcNO2bb9UFtb21fjXUgqihwzD2qa9tFEeEyGY8Y9Zj4jpXz0xIkTd+zcuTMU73q8CA1AjNXW1pYy8x+JqDyeU/6RE9ifdV1/tqmp6RUaPnGFKXFOXhei0fCJzWxoaChi5uso/ie2kOM47SdOnLgSJzR1Fi9enCWE+KMQoobiOOWv6/rzRPREKhwzy5cvH+c4zgco/sdMmJnbhRAfxiOB2EMDEEMLFy58h67r3xdC5FAc/ux1XX+FiJ4QQjze3NzcScMnr3Cs64gCQcMXhnPNwGeI6AOO4/jiUItk5h1CiHfghOZeTU1NiWEYLZFjJuZT/q86ZvYRUYhS45ghGl4r4fxj5jrHccbHoQ7JzEcdx7m+ra3t+TiM71loAGJk0aJFH9Z1/YcUh+f9kTuXH7a0tDxDwyevECXPXculEkRkEZFRX1//QRq+w5kb4xqYmY8w8wfXrFnTFOOxU0akYX5cCJEe67E9esz46uvrb6X4HDPEzEOO43ygra3tj7Ee26vQAMTAwoULv+fz+T5GMb74a5r2DDPfu2rVqk4iOkPDU5ZeYhCRtXTp0mVE9BkpZUMsB2fmISnlLWvXrn0mluOmgoULF97u8/nuJaIRsRwXx8y/HDO3SClviPH4p2zb/kpbW9vDMR7Xk9AARFnk4v9JiuGzy/NOYnuI6DSl7p3LxdKJyF9XV1cqhPhKjE9qOKFdooULF35P1/XbYvmCLI6Z/0MnIquurm5qrI8ZZj7rOM7P2traPherMb0KDUCUVFVVGZZlNfp8voUUo4s/TmIXJIgobenSpVcS0VellHNiMShOaBcv1g2zpmnNzPwFHDOvSxBRWqQR+GWsjhkaXnHzJzhmogsNQBRUVVUZI0aMWCGEqKUYvLik6/pmIcS9zc3NK4joFOEkdiE+IkpraGhYLqX8hZRyXAzGDEVOaJ+PwVhJaeHChd+NXPyjvpGPrutBIcQXmpubG4loiHDMXIggooyGhoblzPyQ4ziFMRgTx0yUoQFQLJYXf2Z2DMO4o7m5+Zc0fPfiteeVbvmIKL2+vv4btm1/SggR7a8GcEJ7HbG6+J93zPyKhptlHDOXxkdEI+rr62+3bfvuGHzKjGMmihJu6dlkFsuLv6Zp/y2EuHblypXNNHzxl9EcL0VJIjq7f//+lYWFhf+t6/p8Zs6O4ni6pmlzJk+enHnw4MF/RHGcpBKri7+maS1CiGWRY+YU4Zi5HOeOmXWFhYWPaZpWwczRnA3AMRNFmAFQaMmSJc1EVBvlrvi4rusfbWlpWUFEg1Ecx2sEEY2sr6+/0bbtR6L83zAUDod/tG7dui9EcYyksGDBgocMw/g0RffiLyPHzNNEdDKK43jRyPr6+pscx3mUonvTg2MmCjADoMiCBQse0jTtXdG8cOi6vtI0zWsDgcBGGv5ECdQ6u3///u0lJSV/1jRtvpRyUpTG0XVdr8rOzj546NChrVEaI+HF4uKv6/pKn8+3vLm5eTUNz5SBWqHIMfO4EKKCmQuiNI6u63pVTk7O2EOHDmFLYUUwA6BAtE9kzGybpnlXIBB4lHAHEwuCiEY2NDTca9v2Z6I4zinbtm9ua2t7NopjJKSampoPmKb5CEXxmPH5fPe3tLQ8SDhmYmVkfX39HY7jRHM/jFAoFPpYe3v741EcwzPQALhUU1Nzi2EYj0Trm2Vm3q/r+kdWrly5hoiwh3ZsjWhoaLjGtu3fU/SOlZO2bde2tbVtiVJ+wpk/f/7bTNN8Moor/J3QNO2mlStXriXMlMWaf9myZYvD4fDviWhsNAZg5qFQKHTz+vXr/xyNfC9BA+DC/Pnzl5qm+T/ROpH5fL5Vuq7f2tjYeIAufd9wUMNXX1+fL4QI2LadH40BmLmbmRvWrFnTFY38RDJ//vwCy7K2EdHIaOT7fL5VQogPBQKBbsIxEy/6smXL8pn5Gdu2K6I0xsmzZ8/OWr9+/f4o5XsCGoDLVF1dXej3+1cSUV408n0+3w+bm5vvJqKBaOTDJRvb0NDwa9u23xaNcGZeeerUqTd1dHSkykYz/8dNN92k9/T07CWiqLw17vP5nmhubv43wjGTKEY3NDQ8Ea1jhoiCp0+fnrdx48ZjUcpPeXgJ8DLU1dX5dF1vEkJMi0a+rut3trS0fIvwln8iORMMBv9WVFQ0ipmro5Cfa5rmlO7u7pSd1szMzFwhhKiKRnbkmPkG4Xl/IjkbOWZOMPOVUcgfaxhG1fjx43939OhRfNJ5GdAAXIb8/PxHhBBvJvUzKFLX9atbWlp+T3hjORGd3b9//6qioqI+1Sc0IYRGRDOys7P7Dh06tEFldiKYP3/+A7qu3xz5faokdV3/eEtLyyOEYyYRnd2/f39HUVHRQDSaAGbONwwj48CBA/gy4DKgAbhENTU1n9Z1/Ys0vCKWStIwjKuam5ubKXX2G09F4Sie0HRd15dOnDjxr4cPH+5RnB03kZf+HhRCqF7f/9wx82ca3q4XEpMTOWZWM/N7SeGNU6ShnJOdnf3C4cOHd6vK9Qq8A3AJFi5cWOnz+daS+i1KpWEYVwUCgRbCi0vJwqqvr69zHOfvpHgBFGbeP2nSpJKnn3466X8WIu/KrCKiXMXROGaSj75s2bL6cDj8D1K/aNDBM2fO1G3YsCGoODelRX2jmlRRV1fnMwzjV6T+4s+6rr8ZJ7Kkc7alpSWg6/qbSfGSskKIgpdffvl3KjPjJS0t7Rek/uKPYyY5OYFAoCVyzKjefCk38rMGlwANwEVi5p8ws+pPWjjyzD9AOJElI6elpSXg8/nerTqYma+fP3/++1TnxlJ1dfWnpJR1imNxzCQ3J9I4X02KG2cpZV1NTc2XVGamOrwDcBGqq6uX+Hy+h0ntc3+p6/qbcSJLehwMBvcWFxcPSilVvhOg+3y+6uzs7McPHTqUdC+3VVdXV/j9/t8pXiArrOv6NThmkh7v379/f3Fx8Q4p5U2qQoUQms/nW5Bq79BEExqAC4hM/TcT0XiVuYZhvKe5ufmvhBNZKpDBYLCjqKhoiJmXK8wd5fP5irq7u59WmBl1NTU1aX6//1kiUrpwks/n+/eWlpbfEo6ZVMDBYHBvUVHRKcXHjGEYRnV6evqve3t78XNyAXgEcGHfVL3dpa7rXwoEAs8QTmSp5ExLS8v3fD7fkypDmfmmRYsWvVVlZrSlp6e/k5nnqMzUdf1Lzc3NPyQcM6kkHDlmvqUylJkrMzMzP6oyM1VhBuANzJ8/f5au648SkbLPl3w+308jC5bgs6XUYweDwab8/PyZRDRVRaCu659sbW19hohsFXmxEAwGO4uLizUp5WIVeT6f768tLS23E9b1T0V2MBhcV1xcXCmlVHLM0PDXbbWTJk166vDhw32KMlMSZgDegGVZvyKiNIWRa5ubm+8inMhS2YAQ4t+I6ICbEMMw/u7z+a5oaWn5FSXfAjdDzc3N9xmGsdAwjDY3Qcy8vbm5+f2EYyaVnWpubn4/Mx9SFSiEyPD7/Q+oyktVaABex/z58z9BRLNV5TFzt2EYtxCWKk15q1at2m8Yxo10eW85nzRN872BQOC9zc3NOyl5d4AcCgQC7Rs2bHibYRifupwAZu7XNO3tRHRCcW2QeE6YprmM1H4eeF11dfW1CvNSDh4BvIbIWv9/JKLRKvKY2TEM413Nzc0dKvIg8QWDwZeKi4t7pJRvudhfYxjGz03T/HBjY+MaIhqKYnkxEwqFTgeDwW3FxcW/03V9nJRy5sX+Wsuyrm9padkYzfogcQSDwWPFxcW7pZQ3KorUfT7fwvT09J/ihcDXhgbgNeTn53+TiK5RlWdZ1pcDgcCTpPi7V0hoHAwGXygpKSmRUs54o3/R5/Md0XX95kAg8It9+/YdptT7OXGCwWBvMBgMFBcX79A07SoppflGv8Dn830nEAg8SuoXjIEEFgwGdxcXF0+UUqraNGrMiBEjXuru7kYj+RqwFPCrLF68eKymaYdI3Yp/ba2trVcS0SlFeZBcxtTW1m6l19k22ufzPdLe3v61U6dO9ZI33nA30tLSshYsWPA127Y/9lr/AjNvX7169QLCbpheNWrJkiVrhRBv2DhfgoOhUKiyvb39uKK8lIF3AF5F1/X/IHUXf6nr+i2Ei7+X9em6/n8+SfL5fC9alrW4ubn5i6dOnXqJvHHxJyIKnz59+khzc/MXDcN4q8/nO/Kq/780TfNDhIu/lw2YpvkhZlb15UuuZVl3KcpKKXgEcJ7q6uoKXdd/JIRQsuKfaZqfam5uxjaVHrd///7u4uLiSeemNX0+35fXr1//mV27du2m5H3Jz62zwWBwX09Pz2/y8vJYSrmIaPiYCQQCfyFM/XtaMBh8qbS0dISqT0mJaHZ2dvbPknFVzWhCA3Ce4uLiHwkhZqnIYuZ1K1eu/Dwl0ffbEDUyGAy2FhcXF/t8vvcEAoG/h8NhfJ9MxOFweDDyHfhzmqalBwKBrxG2w4bhd2ja8/PzryOiCQryDJ/PR93d3U0KslIG3gGIiGxbuouI3vDlpIvBzLamadNXrVrVqaA0SBGjR48e09/fjwv/axOjR48ejT8fOF9DQ0O1bdvrFcWdOn36dN7GjRuPKcpLengHIMLv93+CFFz8iYhM03wYF394NVzc3hDjzwderbm5+XlmfkRR3Ii0tLSPK8pKCWgAiKimpmYcM39SUdyBQCBwn6IsAAAvk5ZlfZMULQbFzJ+oqqpStrR7skMDQESWZX1cCJGuIsvn891FWO0PAECJpqamA6ZpKlnWVwgxOSMj4yMqslKB5xuAkpISS0qp6u5/Z3Nz8zOKsgAAgIiampp+yMwvKIgSzHybgpyU4PkGYMqUKcuFEJNVZJmm+WHCLn8AAKoNWZal5NEqM19RXV29REVWsvN8AyClvJ0UfA3BzM81NTVtUFASAAC8SlNT07PMvN1tjhBCT0tL+4CKmpKdpxuA+fPnFxCRkk7Q5/PdTam3hjsAQKI4a1nWvSqCmPk9lZWVWSqykpmSFe+Sld/vv42ZVbwR2tbS0rJZQQ7ARZk/f/5EKeVoZp5Jw7tW5gohzu03kMfMr7n3wGsRQhwgogOR/9l/7i5LCLFG07T+9evX9ygtHuAyNTU1PVtbW7uNiNwu2DZi5MiRbyKi3yooK2l5ugGQUr5PCPdrIfl8vu8R7v4hSubNmzeVmRdHNkfJY+aZfr/fz8w6EflpeEVPQwhxrpk16NIea5XSP1ffc5j53PLEQ0IIZ+7cuWciTcILkebghfT09BdWrVp1xv3vDuCSnDUM4zfhcNj1VwFCiNvJ4w2AZ1cCrK6uXuL3+1eR+z+Dba2trdXk3TXdQaG6ujr/0NDQYiJaJIRYnJaWVkjDF/l0IYTFzKYQQmeO3VL5kSaZiegMM58VQpwmojOnTp3aR8NNwVpd19dgpgBiZGRtbW03EY11E8LMTigUKlm/fv1+NWUlH8/OAKSlpV3PzK4bIJ/P91vCxR9cmDdv3lxmXkRE1xBRyYgRI9Jp+IKffv7P6LmLfiwv/ueNJ4gojYjSmHkMEdGIESMKiGgRM7+fiIbmzp27m5nXaJr2940bNz4f0yLBS04y86NCiDvdhAghdMuybiai+xXVlXQ8OwOwZMmSg0KIKS5jwjt27Mg8duwYFv6BSzJv3rxlUsqFQohr09PTc5k5XQgxSkVTGi9CCGbmISHEABENDQ0N/VkI8feNGzcG4l0bpJbly5fnhUKhbrc5zPzC6tWrlWwAl4yS9mTjxrx582rT0tJWksvfPzP/bvXq1TerqQpS3fz580tt2363EOLayN1zuhAiI9Z39LEihDjNzANCiIFIM/AUZgZAEbFkyZL/EUJc4yaEmZ1Tp06VdXR07FNVWDLx5COAESNGNKi40zIM41EV9UBqmzt37q1E9G6/3z+dmceef9FP1Ys/EREzn3tkMDE9Pf2TRPSeuXPnHiSi3/X19f2ss7MTj87gcrFpmn8Mh8OuGgAhhJ6enr6IiDzZAHhyBqC2tnYLEVW4yWDm7tWrV08lrPwHr6GysjJL1/WPp6env08IkUVE41L5Yn+xhBDEzP1E1Ds0NPQnKeXPN2/ejJ0z4XKkL1mypFsIkekyJ9Da2rpcSUVJxnMzAPPmzctk5ivcfv4nhHiScPGHV5k9e3aJpml3ZmRkLGfmLCJK2Sn+yxH5sxhNRKMzMjI+RUTvrKqqamfmn2/atKk5vtVBkhkSQjxHRO91mbOkpKTE8uKMlOcagLS0tGtJwe/b5/M9paAcSBHnXfivIqJJzGzGu6ZEF3lEkJeenj6ZiGrnzp27VUr5ABoBuFiWZf3q7NmzbhsAc/LkyQs6OztXqqgpmXiuASCiBrcBzLy/ubl5p4piILlVVVUVM/MXMzIyrqbhC78V75qSkE5Ek9LT0ycR0aw5c+ZsEULc3dHRsSnehUFia2xsXLNkyZJXhBDj3eRIKZcS0UolRSURzzUAzLxcwfT/X4nIVlMRJKOqqiqDme9LT09/FxFNIiJc+F2KPB7IHjlyZDYzz5wzZ85fhRDf8eob2nBRQkTURkRvcxMihKgnoq+rKCiZeGozoKqqqvFCiBy3OYZh/EFFPZCcqqqqbsnIyNgxcuTITxNRPuHir1SkEZiSkZHxwfT09EBVVdWX410TJC4hxLNuM5h5fk1NTZqKepKJp2YA0tPTl5D7b//PBgKBdYpKgiQyd+7c2RkZGfcT0VwppaspR7goFhHljxw58q6lS5deOzg4+K3nn3/+z/EuChKLz+f7h227m5AVQlgjRoyYTkSeeuzkqRkAZq5ymyGEaCcs/es5c+bM+VZGRsazUsqrcPGPLSnlSCnlgvT09EfmzJnz03nz5rn97AtSSHNz8xFm3u82JxQK1SkoJ6l4qgEgopluA5h5pYI6IEnMnTt39tKlS9tGjhz5b1LKXPLo2hmJgJknjhw58tb09PT2uXPnvj/e9UDCYCL6i9sQTdNc3yAmG089AiCiZW4DLMtqUVEIJL7Zs2ffn56efrOUMj/etVwu03z9rxFDoeRbxoKZLWYuycjIeHj27Nk1Z8+e/fzOnTuT7zcCSmmatlHBehuVKmpJJp5pAObPnz9RCJHuNqepqaldRT2QuGbNmlU4bty4HzNzHTOPiHc9rydycT8WWW+/jYiImXcQUT8RkaZpB9euXXvw9X79okWLRkkpZ0T+52ghxBWRjIVCiFFElJmoTYKUcvyoUaM+TERVFRUVt23dunVLvGuCuFJxYzZVQUZS8cx0Zm1t7Twi2uAyZmtra6vnukQvmT179ltHjRr1PWYupAQ6Ps672LcJIXYw8/Z169bt0HV9SNM0x3Gck0REg4ODQ0TkRH7Zxbyrcu4LBj0jIyOdiEjX9ZFSSt1xnPQFCxZcQUR5RLSAiGYIIQoTrSkQQnQPDg7+rKOj41vxrgXiRtTW1vYQUZabkKGhoSovrT/hmRkAIqp1G8DM61UUAolp9uzZ948ePfpWKeWkeNdCRGSa5jFmbiOi59ra2tp0XR9yHOek3+8/dfz48VOkZi2K/20SBgcHT0X+sffc/y0QCGwnInPEiBGPGYYxIhwOj1qwYMFCIcRCIro6FArF/YU8Zs7PyMj40uzZs2ds3rz5ffGuB+KCiWgbuXzMO2rUqIQ49mPFMw0AM09QsACQ6/2nIfFUVVWNz8jI+D4RXSeldP2YyA3DMLYS0Toiem79+vW7HMcZOHXq1HE670J96tSp1/31UWATkX3qvEEDgcCLGRkZTwsh7q2urs4WQryZma8Kh8OuNthyg5lHjR49+l1Lly7NO3PmzPXt7e3H41ULxAczbxVCuGoAbNsuJ6K/KSop4XmmATj3fNOlFxRkQAKpqakZ5/f7/+Y4zmwhRFyOB8MwjhPR74noueeff34rMw8MDAwk8gXs7ODgYC8R9QYCgd3jxo3b5DjOT+fOnVsQaQbeGQ6HC2JdlJTSR0RLLMtqmzNnzkc3bdq0OtY1QPwIIToUZBSrqCVZeKYBICLX326bpun6BwwSx5w5c5ZYlvWolLLM7ezQ5TBNczURPbp+/fpfk6hKAAAgAElEQVQNQojeBL/ov67jx48PENFAIBDYP27cuE22bT8yb968GUKIj4RCobfEuh5mLhs1atSTVVVVd3V0dDwZ6/EhPgzDOB4Oh93GFKqoJVkkzEtO0VZbW3uKiFwt9dja2qoTkVRTEcRTVVXV4pEjRz4Z+bY/ZiIv8z0lhHh09erVe8+cOXOUUnRfibS0tJzFixeXMPNbmPn2cDisx3J8IcTLfX19D27duvU7sRwX4iMrKytj+vTpJ13GrG9tba1RUlAS8NIMgKuLPzPvJVz8U0JFRcUXz1vYJyYMw3CEEA+3tbU9KYQ4MjQ09HKsxo6X06dPH2lsbDwyduzYraFQ6IkFCxbcEstGgJknjBkz5ssVFRWEJiD19fb2Dk6fPt1tzCwVtSQLT6wEWFlZWeo2QwiR8idsL6ioqPjimDFjvhzLi79pmj9vb2+v7Ojo+OapU6e2eOHif74TJ070Dw0Nbe/o6Phme3t7pWma3zEMw7nwr3SPmUdHmoAvxmI8iDu3j2k9tSGQJxqAsWPHZiuIOaQgA+KosrLyjjFjxnyZmUfHYjzTNP/LMIz69evXf3loaGj7iRMn+mMxbqJ6VSMwxzCMR2Mx7rkmoLKy8o5YjAdxNeg2YNasWRNUFJIMPNEAOI6jYsqxS0EGxEllZeUdo0ePvjsWF3/TNF8wTfMd69at+2wgEFh58uTJY9EeM5lEGoFtGzZs+JJhGPWGYayN9pjMPHr06NF3owlIbczc4zYjMzOzREUtycATDQARnXEbwMyuXy+F+KioqPhorC7+hmF8dePGjdc3NTU9MzQ05PpklMpOnjx5LBAIrNy0adPNpml+zjCME9EcD01A6hNC7HOb4TiOdeF/KzV4pQFYoCDDdRMBsVdZWblw7Nix90f74m8YxnbLspZt27btu/39/ZgtugQnTpw40NTU9PP29vZawzB+H82xzj0OmDVr1u3RHAfixvVW7UII17sKJQuvNABj3AYIIbaqKARip7KycuGYMWN+K6V0vQbEGzFN8+sbN258e2NjY3Nvb6/rZ5AedWZoaGj7unXrPmua5ueZOWovCUopx4wbN+4rs2bNele0xoD4YGbPfNqugicaAGZ2/fkeM+PEnkTKy8vHRS7+BdEawzTNA5ZlLdu6detDAwMDndEax0tOnTr1UlNT08/8fn+DYRjbozWOlHLM2LFjv19ZWbkwWmNA7AkhXF/THMfxzONeTzQAKmiahj+rJFFeXm5mZWX9OZoXf8uynmtvb78ad/1RcaaxsbF1w4YNN5im+ctoDcLME8eMGfObmTNnjo3WGBBbzHzabYYQYpqKWpIBLmqQciZMmPBLZl4UrXzTNL/b0dHx0cHBwRejNQYQnTx5cm97e/v/M03zo9EaQ0pZOG7cuL+Ul5eb0RoDYkcIsUVBxmQVtSQDNACQUpYuXXqvlDJqz3Yty7p148aN9xw/fhzrQsTA4ODgK01NTb82TfMdRBSVrwSYedGECROiNtMAsaPo3RG/goykgAYAUsbs2bOvllJ+loiMKMSfMAzjysbGxt/09/f3RSEfXp/d1NT0jGVZbzVN82A0BpBSvquurg6rBSY5IUSlggzPzOyhAbhIUkrsA5DAysvLx40ePfoRIhqpOpuZ+9LS0q4LBAJNlKIb9ySDxsbGte3t7VdblrUuCvEGM38JLwUmvQy3AVLKwyoKSQZeaQBU3BF6ao3oZJOVlfVENNb3tyyrf8SIEW/7xz/+gb3lE8Dg4ODODRs2vC9KTcDYMWPG/BjvAyQvRV98xWSfikTgiQZA07RdCmI8tUtUMlm6dOk9zHyN6lzLstZt3LixDhf/xNLf398VrSZASlk5YcKEX6jOheSh67pn1hLwRAOgYkpHCKF8ahncmzVr1gwp5eeISPVBe2D9+vXv7+vrwwJQCai/v79r/fr177csq111tpTy3bNmzXqH6lyICdcrAUopPXFdJPJIA6BiSkfF96Wg3rhx435Fip/7M3Of3+9/z8DAgOt1xSF6BgYG9q1fv/59UWgCjLFjx/5g3rx5mYpzIcqEEPPdZpim6ZlzvScaAL/f7/qzDhU/WKBWXV3d16WU81RmRi7+161YsaJNZS5Ex7kmgIgOqMxl5pwRI0b8QGUmRB8zj3KbsX379m0qakkGnmgANm7cuF5BjOu3S0GdWbNmzWDmz6vONU3z7Y2Nja2qcyF6BgYG9lmWdTMz96vMZeYbZ86ceaPKTIguIcQEtxk9PT1DKmpJBp5oABR9t12qIAMUyczM/C4Rue72z2ea5kcDgcBKlZkQG42NjWtN07xecaw5fvz4e/Pz8z2zMEyyY+YSl7/e9TsEycQTDQARETO/4jJiipJCwLWlS5e+y3GcBpWZpml+t6mp6dcqMyG2AoHAStXLBjuOM62oqOhulZkQHZWVlVlCCMtNhhAiahtQJSLPNABCCLd7tGsVFRUFKmqBy1dVVTXCcZwHSeHPrmVZgfXr13+TsMhP0ossG/xjlZm2bX8ax37iGz16dL7bDGZ+WUUtycIzDQAz73ebkZmZiccAcTZq1KhPCSGUzcYwc9+GDRs+cvLkyWOqMiGu7A0bNnyVmZV9GSCEGD1u3Lj/UJUH0cHMKtZq8cwywEQeagCIyPUa4uFw+AoVhcDlmTlzZpFt23epzDRN84P9/f37VWZCfA0MDBxPS0v7NBEp29fdcZwbZsyYsUBVHqjHzEVuM4QQmAFIRZqmuV7QRQhRoaIWuDzjx4+/Swih7Nts0zTvCwQCf1aVB4ljxYoVHZZlfUJhpDl+/PhvKswD9aYryNijICNpeKYBME3T7UuARERzFGTAZZg1a1ahbdvvVZXHzC9u2rTpO0TEqjIhsTQ2Nj5hWdazqvIcx6mdOXNmjao8UG6Z24ARI0ZsVFFIsvBMA7BhwwYV64ZPKy8vH6cgBy5RZmbm/xNCpKvKM03zw8ePHx9QlQcJKfz888//GxEdVxEmhNAzMzPvV5EFas2cOXOKEGK0y5jQc889d0RJQUnCMw1AZC0At6uFmRMnTpyhoh64eFdccUWxyrv/yNR/NHaTgwRz4sSJg4ZhKFswCrMAiWn8+PG1bjOYeTcReWrbd880ABGb3AbYtr1IRSFw8bKysm5TePd/sKOj40FFWZAEAoHAU0QUUJEVmQXAuwAJxrbtpW4zhBCeWwHUUw0AM6vY2U3pAjTwxmpqatKklB9Wlef3+z954sQJpUvGQsILWZZ1h6owx3HqZsyYge3BE8uVbgOY+XkVhSQTTzUAlmW53uRBCLGwoqJijIp64MIin3ONVRQXWLFixV8VZUESaWxs3GKappLNfYQQ+vjx4z+rIgvcizz/d70IUFpa2mYV9SQTTzUAGzdubFYQM2Ls2LHYGTA2hOM4t6kKi9wF4q1/j2pvb79X1VrvUsqbZs2a5XrjGXBv/PjxC4lIuMlg5r4VK1bsUlRS0vBUAxB5EXC32xzHcd6moBy4gIaGhquJqFBR3B8aGxu3KMqCJDQ4OPiK3+//lqK4kZmZmcoeTcHls237fQpi2onIUxsBEXmsASAiYmYVswDXKMiAC7Bt+/+Ry87+HMuyvqEiB5Lbhg0bvqdiWXAiItu2P3zTTTfpKrLg8tx00026EGK52xwhRIuKepKN5xqAtLS0VW4zhBD55eXllSrqgdc2a9asCcy8UFHcHxsbGz21yxe8tv7+/j7Lsh5QkSWEKOrt7V2sIgsuT+TPP81tjt/vV/KVSLLxXAOwcePG55jZ7a5vYuLEiW9XUhC8pszMzA8JIXwqskzTxN0//K+tW7f+JxGdVhAlpJS3KsiBy6Toz39gxYoVLyjISTqeawAin4C5ftvTtu2PkQf//GLFtm0lz1eZ+emmpiZPHtzw2np7ewdN0/yZori3l5SUjFKUBZegvLw8g4hU3Ig1ElFIQU7S8eoF7C9uA4QQk+rq6lRNUcN5rrjiigohRLGKLL/f/30VOZBaXnjhhW8x86CCqFFTpkypV5ADl2jixIlvIyLXzZdpmk0KyklKnmwATNP8LxU5zPw5FTnwr7Kysm4kBS//MfO6xsbGDQpKghTT09PzMim4ESAichznQypy4NI4jvNJBTFy+/btf1SQk5Q82QAEAoG9RKRiVcBrKisrsxTkwHmklO9UkeP3+39OCveEh9Ti9/t/rCJHCHElefRcGi9lZWUFRFTtNoeZW1966aVe9xUlJ6/+0DIz/0FBTtqYMWPQ/Ss0Y8aMiURU6jaHmQc7Ojr+W0FJkKIis0MqbgTS6urqXG9GAxcvJyfnNiIy3OZYluXZu38i7zYAZJrm71XkOI7zERU5MCwrK+udpObb/79gu1+4gLBpmkqaRGa+UUUOXFh+fr7ftm0V513Z3t7+lIKcpOXZBiDyGEDF3gDF9fX1NygoCYjItm0lqyxalvUTFTmQ2rZs2fIIqdkCFouDxUhhYeHHhRCZbnOYuW1wcPAVFTUlK882AETEpmk+oyBHOI7zNQU5nldXV+cjogVuc5i5p6mpab2CkiDFvfLKK0eJaLWCqILp06e7fnQFF+Y4zpdU5Jim+T0VOcnMyw0Abd68+VFFUbMaGhqwMJBLuq7PEUKku80RQjxNePkPLpKi94FEdnb2MgU58AYaGhreLoSYqCDq9O7du/+mICepeboBOHbs2BEiWqEiy7ZtzAK4FA6HlZxADcN4VkUOeINpmkouBOFwGOsBRJnC8+yThw4dUrEaZFLzdANARKRwd7AKzAK4I4SocpvBzP3btm1rV1EPeEMgEAgys+udIoUQrh9fwetraGi4jYgqVGT5fL6HVeQkO883ACtWrFhNRDtVZGEWwDUVd1Abe3t7VazwBt7BQojnFORMLi0tnawgB16lvLzcDIfDX1cU19Hc3KzknJ/sPN8AEJFtWdYPFGVVNDQ0fFxRlqdMmzZtKhGNUxD1JwUZ4DGmaa5UEKNNmTLF9SwW/F8TJ078gqJn/2Sa5pdV5KQCNABE1NHR8TtmVvI5SDgc/kZFRcUYFVlekp2dvUhFTlpa2hoVOeAtW7duXUsKXhy1bVvJFDX807Rp07Idx7lDUdzBpqYmz679/2poAIjo+PHjA5ZlPaEiSwgxMTMzEx3mJXIcp1BBzMDu3bt3K8gBj4k8NtrrNkcIgQZAsZycnO+TmtlBsizrQSJyVGSlAjQAEVu2bHmQmc+qyLJt++Pl5eWLVWR5SLnbAGZe293dfUZFMeA9zOx69oiZ56qoBYaVlZVdZdu2klUWmflQR0fHr1VkpQo0ABGvvPLKUb/fr2pdgJETJ058SFGWJ6g4cQohdqmoBbxJ0zTXU8NCiNyqqirXa9QDUUlJyajJkyf/mNQsDU5+v/87WB78X6EBOM/mzZvvVzUL4DhOdX19/edVZHmBECJXQcZGFbWAN/n9fhVvhmtjx46dpiDH8/Ly8r5l23axiizc/b82NADneeWVV45alvULVXmO49yNRwEXVl5eXk4KfhYNw1iroBzwqB07dnSpyDlz5kyZihwvmzZt2pvC4bCynVYty3oQd///FxqAV9myZcs3mfmQorhxkUcB+HN+A5MmTXK9sQcRhZuamg4ryAGPiqwMt8dtjhBCxQutnlVeXp6Rk5PzYyGEpSKPmfdu2rTpMRVZqQYXpleJzAI8qCov8igAq069Adu2ZyqI2Ul4uxdcUrQioJI31r1q0qRJP7Ftu0RVXlpa2p24+39taABew6ZNmx5j5k5VeY7jfGL69OnvV5WXapjZ9QIfzHxURS3gbUKIAwpi8A7AZWpoaPisbdsqz5VrV6xY8WeFeSkFDcBrOH78+IDf779TYaSZnZ39QFlZmYo73VSkYuEkfP8PrjHzcQUZWAjsMkybNm2BbdtfVZlpWdYXiEiqzEwlaABeR2Nj47OWZf1VVZ5t25NycnJ+XVVVNUJVZgpxvY+6EAJTfOAaM7/oNkMIMVZFLV5SWlpalJOT8ygpWvCHiMg0zV82NjauV5WXitAAvD65adOmLxDRSVWBjuPMGT169BOk6LvWVCGESHebwczdKmoBb9N1vU9BzFQFGZ5RVVU1Ijc396e2bV+hKpOZe7Zs2fIVVXmpCg3AGzh27Nhuy7K+pDLTtu131NfXK3vJMEW4XoOdmfcrqAM8zrKsEwpi0hRkeMbo0aOfsG37TSozLcv6/CuvvIL3gi4ADcAFBIPBX1iWpXR/ecdxPt3Q0HC/yswkN15Bhq0gAzxu586drj8DhIvX0NBwv23b71CZaVnW75uamp5SmZmq0ABcQGdn59mtW7d+jBQ+CiAi07btO+rr629VmJnMXL8DoOs6HquAa5G1ACAG6uvr77NtW9Uuf0Q0PPW/bdu2/0dErDI3VaEBuAgvv/zyC4ZhqN7hz3Ac576ysrKbFecmI9cvRhqGoWTREACIvvr6+vscx7mTiJTum2BZ1u09PT1BlZmpDA3AReru7n7EsizV35PmTJ48+UE0Ae5t3bp1a7xrAIALi+LF/7GmpqbfqcxMdWgALlJnZ+fZbdu2fZaIelXm2radPXny5AenTZv2HpW5XtPb2/tSvGsAgDfW0NBwbzQu/sy8fdOmTXcTpv4vCRqAS9DT07PfMIyPqs61bTs7JyfnoalTp35OdbZXYAtWgMTW0NBwr23bd5Hiiz8RnUxLS/vMsWPHjijOTXloAC5RIBB41rIs5d+XRmYC7mtoaLhXdbYXjBo1qjzeNQDAa4vixZ8sy7p7xYoVLapzvQANwGVobGz8tmVZyp81OY6Tbtv2XQ0NDQ9PmTIF3xJfgnA4rOJTQgBQqKSkxGpoaHg8Whd/0zR/HAwGf6461yvQAFye8KZNm+6wLGtnFLIN27Y/X1pa+quioqK8KOQnHGZ2vfqaruvYCRAggZSUlJTn5uY+bdv2LRSdO/+VO3bs+HpnZ+dZ1dlegQbgMh07duzItm3bPsTMr0Qj33GcdxcUFPxnWVlZfTTyE4kQwvXiK8yMBgBcKykpmRLvGlJBSUnJW/Ly8n7lOM5bo5FvWdbO7du3f+Lo0aNROf96BRoAF3p6etb7/f6PEVFUFg+xbbt28uTJPyktLf1MNPITyKDbACllpopCwNvy8vIK411DsistLf333NzcH9i2PT9KQ5zetm3bh44ePborSvmegQbApcbGxv82TfMjFKXPT2zbnpabm3t/Q0PDT8rLy5XtlJVgXC/io2kaNmAB18LhsIqZJE9uTV1UVJS3bNmyX+Xl5X3DcZxoNVKnTdP8SE9PD3b5UwANgAJNTU1Pmqb579HKt2073bbtT0yaNOnJ0tLSa6M1ThztdxvAzKaCOgBmug1g5gMqCkkmU6dOfWdBQcET4XD41nA47IvSMGya5keampqejFK+50TrP5TnHDly5OGcnBwrFAp9PVpj2LZ9VW5ubmleXt7So0eP/sfOnTuPR2usWGLm/UK4W8pfCDFNUTngbdkKMjIUZCSF8vLycdnZ2V9i5ptt286J5limaf47Lv5qYQZAkZ07d4aamprutyzrnmiOY9t2UTgcvmPSpEm/nTp16pujOVasCCFOKYgpUZABoKIBeEFBRsKbOnXqmydNmvTbcDh8R7Qv/pZl3XPkyJGHozmGF2EGQK1wY2PjfVdeeSWdPXv2q9EcyLbtq6dMmTI1Nzf3D0ePHv12Ms8GSCn3aJrrXtT1joIAKmaShBA9KmpJVJG7/ruY+UbbtouiPZ5lWfc0NjbeR0ThaI/lNZgBUC/c2Nj4DSK6g5nPRHOgyGzAnck+G+D3+w8piBlXUlIySkEOeJvrdwCIKGXfTj/vrv/OaF/8mfkMM9/Z2Nh4D+HiHxVoAKJDSim3CCFejsVgtm1fnZub+8Nly5Z9Ky8vb2wsxlRp586de1Xk5ObmzlCRA940bdq0bCJyffxYlpVyG1Pl5eWNXbZs2bdyc3N/aNv21bEYUwjxsqZpq4kIa3xEiR7vAlJJXl7e2KysrGtnz579FWZ+PxFNIgWfuF0MKeU4KeXirKysmZqmHT9x4kRnLMZV4eTJk6fz8vI+L4Twu8mRUm4+cODARlV1gbdUVFTMlVJ+0G1OZ2fnvw8MDJxUUFJCKC4uvrq4uPjb4XD4VillLD9FFkQ0r6SkZKGu675Jkybt6+3tRTOgEN4BUGDq1KnTmPmteXl5S4moIhwOT45XLeFw+JqCgoKygoKCP+zdu/fbBw4cOBGvWi6FEGI/EVW4jJmloBTwqHA4PMdtBjP3Hzx4MCV2pcvLyxtbWlp6FxHdGA6Hi+NQwigiqg6Hw9X5+flvYuabQ6FQk6ZpLXv27EnZxyyxhAbAhdLS0iXMXD9lypQ3CSHmR/H710sSOVjvKikpmWEYxg/37dv3j3jXdBE2kvsGYImKQsCbmHm+gs9RuxWVE1fFxcVX5efn/1s4HE6IdUciN1U3RBqBrVLKFbqu/9fu3bs9ueiSKglxwUo2paWlS3Jzc28UQiwjoivC4cR8P8W27WsLCgrKiOhnlmX9cOfOnaF41/QGXH86JYQoKywsnBgMBlP6LWyImjq3Acz8vIpC4iUvL29sSUnJF4UQN4XD4YT7tDYcDmcQ0aL8/PxFzPymyZMndxw8ePAPe/fuXR3v2pIRGoBLEOmKrxFCLAuHw1fEu56LEQ6HSwoKCh5k5qtDodDPOzs7/xDvml6LaZq7QyHX/YlWXFxcGQwGk2HGAxJIUVFRnhBiooKodQoy4qK4uPiW/Pz8j9q2vTjetVxI5KZrEREtysvLW5abmxtAI3Dp0ABchNLS0htyc3NviEzzJ1xXfCGapr3EzCOnTp2qdXYm5ruBe/fuXZ+Xl2cLIVz9TIZCoeVEhAYALklhYeFyFTN5lmVtUVBOXJSVlXE4HPZpmjYQCoWS5pPayM3YFWgELh0agDdQVFS0uLCw8B00/BJM0mwTapomEdEeGn6uvn379u0dmqbtHz16dMI+n+zu7u7Lz8/vIiK3m/q8lYi+qKAk8JBQKHSt2+f/RHRyx44dO1XUEw89PT1PvfTSS+3MPK28vPwKZq4WQlxBRFMVzM5F3blGIDc3tyEvL68pGAz+saura02860pkrn/iU9G5Cz8zL7dtOym+LTcMIySE2EFEK1988cUXpZS7iOjFZNove8mSJb8SQtzqMkYeOXIkv7OzU8XiQuAB5eXlGePHjz9Mw2+du7G+tbW1RkVNiWDy5MlTpJSFmqZNmz59+lwimkdEs5OhGSAi8vl824UQTV1dXT8NBoN74l1PIsIMwHkKCwunFhUV3cLM14XD4YS/8JumeZiZdwghNrz44ovbNE0LHjx4cAsR2fGu7XJYltUSCoXcNgBafn7+2zo7O3+ipChIeTk5OVUqpryZuV1FPYni8OHDh4joEBGtDoVCv/P7/dOklNOnT58+lZmriWheOBxO2IXHIjdvM4qKiqqEECt0XX9s7969h+NdVyJBA0BE+fn5Y3Rd/0BhYeEN4XC4Nt71vJ7zpvafJ6IdO3bseF7TtODhw4eVrKQXb9u2bVsxbZr7Tf1CodBNRIQGAC7K2bNnr1Ew/U+GYTyroJyE1NvbO0jD553nDx8+TJMnTy5l5unl5eUziKiaiKZTgj4qCIfDSwoLC5cQ0RIp5R8sy3o8wb+IihnPPwIoLi6+rqCg4ENEdE2ifMd/PtM0iZm3ENGqF198cZemaTtt237xpZde6o13bdFQW1u7m1y+B8DMZ7u7u7OTZREkiK/a2toDRJTrJoOZh44ePZrZ2dl5VlFZSSMnJydX07RCKWV5eXn5EmYuF0JUJmIzYBjGIDP/NRgM/jIYDDbGu55482wDUFRUtKigoOBmInqrbduuDn7VXnXR36xp2s5Dhw5tpiSd2r8US5YseUgIcbvbHMMwPhgIBB5XUROkroaGhiW2bbcqiGptbW11vY5Asps0aVKWz+crkFKWT58+fTYR1SViM+Dz+fYS0V8OHjz4n3v37k3aLzfcSrg73miLTPffUlhY+OFwOJwwS8dGLvpbhRCrdu3atYWZdx4+fLiDPHDRP5/f7//r2bNnXTcAoVDoU0SEBgDekG3bn1KR4/P5/qoiJ9lFZiZ7iWjjkSNHfjt58uQqIUT5tGnTKpm5TghRkQjNgG3bpUR0e15e3iLbth9NS0v7Ty8+FvDUDEBhYeHyoqKiTxHRWxJlut8wjL1E9Pzu3bsbvXrRP19+fr4/Pz//GBGNcJt1+PDhGfv27duhoCxIQUVFRaOnTJlykIhGus3q7OzMO3LkyEEFZaUqX6QZqCorK1tMRHXhcDgn3kURERmGcZKI/mf//v0/2rdvX1u864klTzQAubm5OVOnTv04M7/btm2335m7ZppmmJn/TsMX/lbbtnem6jP9y7FkyZIVQogr3eb4fL6fNjc3f1JFTZB6li9f/olQKOT6ZVFm7ly9enWpipq8IPKYoKqsrGyeEKKWiJYnwqyAYRjbiOhPnZ2d3+3u7u6Ldz2xkBB3wdFUXFz8roKCgg+Ew+E3x7sWwzA6iWj1rl27mhzHWXP06NED8a4pEVmW9VgoFHLdANi2fWNRUdGXurq6+lXUBanl7Nmzn1Dx9j8R/V5FiFdEbnaeO3To0HM5OTllmqYtLisrW0REV8VzViDySHhWcXHxDF3Xf9LV1RWIVy2xkrIzAPn5+WNKSkq+xMy32radFa86Is/224UQz7344ourzpw503Hs2LGU2Ss8GkpKSkbl5OT0EpHpNsvn893W3Nz8cwVlQQpZvnz5slAo1KQgiv1+/+wVK1ZsVZDlWZmZmSP9fv/i6dOnL2Xm2nA4HNcFlQzD2M3Mv9u3b9/3U3k2ICUbgKKiomUFBQWftG37hnjVELnw/2X37t0rmHn14cOHcYK4BLW1tU8R0bsURHUNDQ1N6+joSMwtGyEuamtr19DwZjKuMPPG1atXVysoCSImT55cUVZWdpUQYrEQ4q3xfDzg8/me6e7ufnDfvn1Ju8nTG0mpRwBVVVXGqBGUqiEAACAASURBVFGjPqtp2kfC4XBZPGowTbOPiP6xa9euRsdxGjHNf3ksy/rJ2bNnVTQARWPGjHkPET2hIAtSQGSLbNcXfyIi0zSfVpED/3T48OGthw8f3pqdnf2UruvPlpWVXRevRsC27RsKCgqKpZS/CAaDP4p5AVGmx7sAVQoLC2dlZ2c/YNv2Z6SUKrb1vCSmafZrmvbUrl27Hjx58uTPu7u71wwODuLZ82VyHKdnzJgx7yUi10uNSikrx48f/5OjR49KBaVBkpszZ85PpJSut/Nm5jO7d+++Dcd5dAwODvYPDAxsZua2np6enRMnTjzt8/mmOI7jj2UdUspJ48ePf1NRUVGmpmmdJ06cOB7L8aMpJRqAgoKCdxYVFd1n2/a1FOPf0/kX/kOHDv2op6dny4kTJ4ZiWUMq6u/vt0tKSkZJKesVxI1NS0vbu3///m0KsiCJFRQUVGRkZHxXCKG5zRJC/GPHjh0/VVEXvL6+vr7+kydPbhJCtL700ktbJk6ceMrn813hOE7MzvVSSk1KWZOZmTmDiI739fWlxOZCSf0OQElJiZWfn38nM3/atu0JsRw78infb3ft2vU/Z86cWYEX+9TLycnJLS4u3iOEUNHxB1tbW0uJyFGQBUmqoaGhybbtZSqyfD5fbXNzM/adj7HIC4PXTZ8+/V1E9JZYPxowDKObmX944MCBHyX70s9JOwNQUlJSnJ+ff084HP6ilDI9VuOapkmapv1tz549/3Hw4MHv9vT0bDl9+nT8P2JNQSdPnhzIz89fKIRQ8Y312JKSksPBYLBDQRYkoWXLli21bfsbKrKYedeqVavuVJEFl+b06dOhkydPbpNStvX29u6aMGGCJqWM2ToMUsoxUsql48aNm+g4zqb+/v7BWI2tWlI2AEVFRdcUFBTcHw6H3xnLcU3T3LB79+57+/r6vn/gwIFWXPijr6ys7JDjOG63CCYiIinlXMdxHhsYGDitIg+SisjNzf0jEWWrCLMs686uri7PriGfCPr6+voHBgY6mHltVlZWr67rIx3HmRyj4XUp5dwJEyaUSSm7+vr6knKb4aRrAPLz828rKSn5j3A4PDtWY5qmuU/X9Yf27t37vQMHDvxPX18fXvqJka6uru68vLyrhBAqNmwaOXHixFFdXV1Yt91jli9f/jlVjSQR9W7btu023AAkhr6+vv6urq7VjuN0ZGVlvaLreqmU0vXyzhfDcZypWVlZVcx8rK+vb2csxlQpaRqA8vJys6Ki4q7MzMwHQqHQuFiMaZpmv67rT+zZs+eBzZs3P97f3/9SLMaFf1VSUnJMSvluFVmO48zVNO3vydqxw6XLzc3NGTly5O8VvUtCpmk+sGPHDs9vJZto+vv7XwoGg822be+ZMGGC7fP5ymPxoqDjONlZWVl1RUVFdldXV3u0x1MpKRqAoqKi0Xl5eQ+GQqG7HMdx/fbuxTAMY9WePXu+umXLlof6+/s7YzEmvLZx48btMwzj3UKITAVxIisrq+r06dO/GRwcxOJAHlBdXf2olHKuorje3bt3f+DkyZN4jJSgBgYG9ui6Hujp6emcOHHi5Fg8FnAcJ8NxnIbS0tKxfr9/ZW9vb1K8bJzwDUBeXl5RcXHx98Ph8AdjMZ5pmi9pmvbtzs7O7xw4cGAVEeHb8Tg7evSoLCkp6ZVS3qgiz3Gc7OzsbNnV1dWiIg8S15VXXvm+UCj0FVV5pmk+sHXr1udU5UF0HD9+/OzAwMAW27Y7JkyYcFzX9VkxWD9AdxxnwZgxY8bbtv1if3//iSiP51pCNwCFhYXzSktLvxsOh98Wi/FM0/zt7t27H9iyZcuj/f39r8RiTLg4wWBwV15e3nuFEEoe/ziOU61p2oq+vr4jKvIg8USm/p8mBdv9EhEx8yu7d+/+4ODg4CkVeRB9/f39R7u6ugKhUGj/hAkTdCnl9GiP6TjOvAkTJpTbtr020ZuAhG0A8vPzry4uLn44HA4vjvZYpmnu0HX9O/v3778Hi8UkLFlaWtqt6l0AIjLGjx8/R0r5+/7+/jOKMiGBVFdXP+I4zgJVeZZlPbBt27a/q8qD2BkYGNhORCuzsrJO6ro+3XGcjGiO5zhO8YQJE8qllN19fX3d0RzLjYRsAPLz868uKSn5aTgcLo/2WIZh/PeePXu+vGXLlqeOHz+e1Is6pLpgMLg7Pz+/nogKVORJKXMmTJgwoaur688q8iBxLF++/K5QKPQ5VXnMvDey7C/u/pNUX1/fUFdX16pwONw5YcIEK9qzAY7jFGdlZc13HKcrUd8jS7gGID8//+aSkpKHwuFwYTTHiTzrf6izs/MbBw4cSLrPN7yqtLQ0aNv2+1Us5UpE5DjO7OLi4kPBYHCzijyIv9zc3CUjR478pRBC2WZnlmV9Ztu2betV5UH8DAwM7JZSrpowYYLUNG2mlNKK1liO42RlZWUtYuZdfX19+6I1zuVKqAZg2bJl/zZu3LiHw+HwpGiOY5rm6r179969efPmnyXzKk5e1NXV1T116tQ8x3HmqMp0HKeWmdsGBgawc2OSy83NLS4rK/uNlDJHVSYzb1y5cuXthBeCU0Z///9v787j46zq/YF/z/M8M2kpTZplMkkm3bI2aZLuTSm20GapwgUR94ui6EVFQFzRn5frdbmAC8J1uepV/HnBBQT1Kl7kSts0tIBsaZtMmq3ppEmTJpNlkknSZp5n5jzn9wepv7a0Je2cZ9bP+z/T9HPOC5ucz7PMOf5pj8ezyzTNPofDsUzmv5ezmaaZnpWVFZMlIGYKQE1NzZ3BYPAB0zQvs3AYw2az/birq+trfX192MM7ThmG0ZSenn4LEc2XkccYm+d0OjeGQqFn/H7/hIxMiLzy8nL78uXLf2YYxlaJsWLevHn/6PF4eiRmQozw+/3uUCi03+l0qjIvKs4WqyUgJgrAqcWfiOxWjWGz2XpUVf364ODgfUeOHMGGPnFscnJyqqio6KRpmm+Tlck5z3Y4HGWmaf4PXgqMT1VVVf8eDAZvlplps9n+Y9euXT+RmQmxZXJy8nh6evozl1122bSmaZVWvSAYiyUg6gWgrq7udsMwvksWLv52u31nd3f3PQcOHPhNvGzQABfW09PzanFxcQ3nfImsTNM0Cx0OR9b8+fP/in8n8aWmpuYLwWDwnyXHDno8nnejECa+wcFBs6en5wXOucfhcBRZ9UjANM10h8OxORgMtk9OTnqsGONiRLUA1NTUfMQwjB+QtVf+vzh8+PDdfX19r1o1BkSHaZptaWlpNxGRTWLm2kWLFqXNmzevASUgPtTV1d2u6/r9Ml/6IyKy2Wy3HTx48BWZmRDb/H5/BxEdcDgcCznnFVaMwTlPdzqdV8ZCCYhaAVi8eHHdwoULH2aMWXWUr2Gz2e6dmJi4u6OjY8yiMSCKJiYmBoqKiuymaV4lM5dzXo0SEB9mF/8HGWNS3+S22+2P7969+19lZkJ8mJiYOK4oys6MjIxU0zRXkwXrZKyUgKgUgCVLltSWlpb+p2maUo7mPJvNZjuqadq/7d69+5uDg4N4czeBBQKBV3Jzczdyzgtl5nLOq9PS0hbOnz9/D0pAbKqtrb3NMIyHSP4dxJ7u7u73TU5OTknOhTjh8/n0+fPn71q0aJFfUZTNVnxU8FQJCIVCz/v9/kHZ+XMR8QKwZMmStSUlJY8ahlFgRb7dbt/f3d39uQMHDvzKinyILdPT00EhRHNqauo7GGNSX94xTXMTSkBsml38/53kL/4zdrv9E7j1DyMjI9zj8bwkhBjIyspaY5rmItljcM7Ts7Oz13LOd0bjE0gRLQBLly5dVlJS8ohhGJY8W7Hb7buOHDny2aNHjz5nRT7EpomJCW9paamXc36j7GyUgNhj4eJPdrv9m7t27fqR7FyIXxMTEy2maXbN7hcg7aXjUzjnruzs7FLO+e5I70sTsQJQUFCQVlhY+H+DweDVVuTbbLYne3t7P+PxeFqtyIfY5vF4WoqKinIkHvv6d6Zpblq0aNHlRHRgfHz8hOx8mJvy8nJ7VVXVpwzD+I7sZ/5ERDabbXdbW9vtOCYazub3+7sZY69mZmaWmKYp/e4157zY4XA458+f/3QkLzQiUgDy8/PnFxcXPxAMBt9vRb7NZvtJT0/PXUeOHInKcxSIDaqq7srMzNzOOV8sO5tzfkVWVtZyzrkbJ0VGXmZm5sKSkpJ7g8HgV2W/7U9EZLfbe3t7e9/d19c3LDsbEsP4+PiwqqovZGRk5JqmuVJ2vmmaqxYtWnS5x+P5q+zs84lIAdiwYcOXgsHgF6zIttlsP+nt7f30kSNHcGWW5Hw+HyeiV7Oysq7hnFvxvK48Ozu7IhQK9fv9fuwMFyHLli1bunLlyu8YhvEJi4Ywent7bz5y5Aie+8MF+Xy+ccbYs5mZmYusuNvIOb+iuLjY6/F4XpOdfS6WF4Da2toPBoPBb5HEz2qfomnaT/v6+u7q7u7GKX5ARK+3dCFEd1pa2rvImo/vLHM4HJsLCgr0np6eJtn5cKYlS5ZsLy4u/oZhGO+2agxN0764f//+R63Kh8QyPj6uq6q6Kz09Pds0zXWy80OhUF1xcfHBnp6eLtnZZ7O0AOTl5a1OS0t7nIhSZWfPLv6fwuIPZ5uYmOgqLCyc4ZxvteJ2sWmaGZzz+pKSEjsRHcJ7AfLNPu//aGZm5v3BYHCTVeNomvbThoaGL1uVD4nJ5/NxVVV3WlECGGMa53wDY2yn1Y8bLSsAy5cvd5aUlPzaNM0i2dlY/OHN9PT0/K24uPgy0zS3WJE/+0N6VWZm5lLOuQ+PBORZunTpiqVLl37BMIx/NU0z26pxbDbbL/v6+j45++gI4KJYXAIys7OzVyqK8riV/z4tKwDr1q37YTAY/AfZuZqm/QyLP8xFIBB4yel0WnKb7hTTNFc6HI4rCwoKaHJysn1mZsawaqxk4HK5biwpKfnXYDB4kxV3b07RNK2xu7v7lp6eHhwHDpfstBLglP17hnO+PDMzU3g8nj0yc09nSQGora29KxgMfkl27uzifycWf5iL6enpoKqqz1rxw3k60zQzTNN8m8vlyjEMwz81NXXUqrESVV5eXunGjRvvdDgc9wWDwXIrx9I0rbG3t/fWo0ePHrdyHEgOsyXAkt8znPOrioqKWnt6etpl5p4ivQC4XK5VaWlpj5Hkl/6w+MOlOPXDmZGRscw0zSorxzJNc43T6XzL8uXL58/MzHRNT0+ftHK8ROFyuW4sKyv7ajAYvIVzPs/KsU4t/keOHOm2chxILqeVgDLTNKUWWM755mAw+Mz09LT09wGkFoClS5cuKikpedw0zeUyc20226/6+vpuw+IPl8Ln83HOeWNWVla1aZrLrBxr9m5AXW5u7hJd109MTU1hoTmPSF71E2HxB2vNloAX09PT18r8PcMYS83NzV3OOf+D3+8PycolklwA1q9f/41gMPgemZmapj3X1dV1y9GjR/GsDi6Z3+8PMMZezMzMzDJNs9Lq8TjnFU6nc1thYeHCQCAwODU1hRMpT5Ofn3/D7FX/R6y+6id6/ffI0aNHP+bxeLD4g2V8Pt/k7O+ZjaZp5svK5ZyXZGdnn/B4PM/LyiSSWAC2b9++LRQK/ZiImKxMm83WcvTo0Q/29vYOyMqE5DU+Pu6bP3/+n9PS0vJM01xr9XimaS7knF+dk5NTZhjG1OTkZIfVY8a6vLy8kurq6juysrK+aRiG5Vf9RH9f/G/1eDyHIzEeJLfx8XGfEOLVzMzMa0zTTJOVyznfHAqFnp6amvLKypRSAAoKCtIWLFjwG8ZYnow8IiIhRO+xY8c+4vF4mmVlAoyMjHBVVf86u52n5SWAiIhzXuB0Ot9aUFCwSNf1UZk/wPHk1FW/YRgRueonwuIP0TExMeEVQnjS0tKuJSJZ51bYcnJyVnHOfy3rUYCUArBu3bpvmKb5ThlZRERCCN1ms92xf//+Z2RlApwy+6zur+np6Rmmaa6mCOyIyTmfxzl/S05OTlUgEDgxNTXVSUSm1ePGApfLVbxx48bbHQ7HtyJ11U9EpGnab3t6ej7b09ODxR8ibmJiorOoqOiEaZpvk5XJOV+cnZ097fF4XpCRF/Yvvtra2k2GYTxMEm/92+32exsaGn4oKw/gbD6fj/f09PyluLg4qCjKJtM0pR8tey6c88VOp/P6goKCjGAwODY5OZnQH0XLy8u7vry8/GvBYPCfInXVT0RBm8326NDQ0EcPHz6Mw30ganp6el4pKirKMk1zo6zMUCh0RSgU+r2M94rCKgD5+fnzFy5c+EvG2NJwJ3KKzWZ7bPfu3XfKygO4EI/H87yiKKMZGRkrTNPMjMSYpmmqpmluys7O3lBQUKBOT0+3nzx5MqE2EDp11Z+dnf1twzCkn5x2PjabbVrTtK/39vbe09nZmVD/TSE+BYPBRofDsU7WrriMMbvT6Vza09PzJIV5FzGsArBhw4bbTNP8eDgZp9M0rbWrq+s9k5OTM7IyAd7M+Pj4flVVO2f3CpBWZt+MaZo5pmle63K5smZmZvzT09N9kRrbSnl5edfNvuEfyat+0jTtcG9v71ebmpq+h+19IVZMTk6GTNNsWrRo0fVEJOWlQNM0S4uLi5s9Hk9YGwRdcgHIzs52ZmRkPEZEC8KZwClCCP+xY8du6u3t7ZSRB3AxfD7fESJ6ISsra+HsWd8ROSqbiIhzvi43N/fKgoICbWZmpjteNxByuVzF1dXVt2VlZX07GAxWRHJsm822s6+v754jR448EclxAebC7/ePFhQUeE3TvFbWFtec80ohxGN+vz9wqRmX/Etu06ZN3zRNc9ul/v2z2Wy2r+7fv/8xWXkAF2tiYmLMNM2/OhyOgKqqpaZpSj/F8nw455mc87fm5ua6ZmZmpqanpz2RGluG0676bzVNc36kxrXZbCFVVX/a19f3ue7u7oORGhfgYh09erS1qKgozTTNKyVFOrKzsyfC2RvgkgpAfn5+ZWpq6s8YY8qlDnw6m832VENDw6eISMjIA7hUfr8/1NPT87ymab3p6elZpmkWRHJ8znlVbm7utsLCwnmGYQxNTk76Ijn+xcrPzy+qrq7+uMPh+E6kr/qFEO5jx459t6mp6Z99Pt9UJMcGuBQLFy58ceHChW+R9agxFApVBIPBJ6enp/2X8vcvqQBUV1f/mnMu65jfkb6+vneMj49PSMoDCJvP52tXVbVh4cKFjIjySdKzu7ngnKdyzmtycnJKdV0fn5qaismPsblcrmvLy8u/puv6xznnEbvqJyISQhxkjN1y8ODBP0RyXIBweL3eIGOsNTU19X0kYX8Axtjlubm5aR6P56lL+fsXXQBmP/Z336UMdi52u/0zTU1Nlh13CHCpfD7fZG9v71+XLFmyiIiqrTye9lw450U5OTlvKywsvOzEiROjJ06ciImPtJ266s/KynrAMIyIXvWfwhhrY4xN6rq+dNGiRcFYv1MCcMr4+Pjx4uJi4pzXysjjnFcYhvHIpdwFuOgCkJ+f/3MiKrzYv3cuNpvtqd27d39BRhaATC6XK3/BggV1a9aseS8RlRBRCWMsInsFnI5zPp9zfpXL5ao6efLk5PT09GGK4gZC0bzqP8tyIro2Nzf3BofDUV5YWFh88uTJTJQBiAcej+fFoqKibZIeBaiXehfgojbvqaurq9Z1/aWLHeQ8Jvv7+ys9Hk9CfPQJ4l9ubm6WoihVZWVlaxljm4QQ1xmGEfFF/3zsdrtBRN9zu92PeL3eQ5Ece/HixYWlpaXvJqK7DcNIj+TYc2W32w3GWIMQ4qX29vZ9jLHO/v5+nCMCMamgoGC9y+XaxxiT8VHZ4OHDh4sGBwcvaj29qDsAs1f/Up7922y2r+3fv/9pGVkAYdByc3NXp6amvrWiouLjWVlZnzUM412c83LOecQ+CjgXnHOVc35lXl5eZUFBgTY1NdUViQ2EXC7XNWVlZV8zDOMTUb7qv6DZ/z5Fswcw1TgcjsqCgoLsQCCgzZs3bzzRNluC+Db7KCDdNM3NEuLU3Nzc1Iu9CzDnOwA1NTVXBIPBFy9+Xuf08t69ezdTkuyFDrEnPz/fFQqFqisqKjYR0XbG2Dpd16M9rYuSkpLyY7fb/YuhoaFXrcjPy8srLS8vfwfF8FX/XNjt9g7G2J7W1tbnNU17+dixY0eiPScAIqKqqqoFixYtaieixRLigl1dXcVDQ0O9c/0Lc77CWbx48Q+JaMUlTes0Qghut9s/hgM6IBry8vLWLFiwYMfKlSvvzM7O/rJhGFs553mcx9/GcZzzDYsXL95QUlLSdfjw4aMys5cvX+6sqKj4QSAQ+GQsX/XPBec8i3O+IS8v752ZmZnFhYWFzkAgQJdddtn4iRMngtGeHyQvr9cbLCwsHDFN80YJcWpeXp7m8XjmfIjenO4AOJ3OZaWlpW1EFPYvAk3T/tTQ0HBDuDkAc+V0OhcQ0caqqqq3ENH1RLQ+3q72T2ez2UJE1EVEXX19fT1CiD3d3d1/ljlGZWVlwczMzD8tWbKkkF6/OilhjGUGg4mxXtrt9g4i2n3o0KFdqqq+incFIJq2bt36MhHJODBo/OjRo4V9fX3jc/nmORWAurq6B3Rd/1x48yIiItHf31/l8XhaJWQBXFB+fr6Lc75h5cqVtUR0vWEYMm6zRYXNZgsJIdyMsc7e3t4DRPQyEb3U3d1teZMpKSlZIYTYJITYtHTp0hJ6/VMRrkQoA3a7XWeMPXXo0KE/mKbZMjQ01BbtOUHyqampeathGP/DGAv7vaOUlJS7du7c+f25fO+bFgCn07mgpKSkgzGWH+7ENE17tKGh4UPh5gBcSHZ2dgFjbH1VVdU7hRBvNwwj7A03omF20W8loq7+/v4DjLFdnZ2dr0VzTgUFBUs0TdtERFWLFy+uFEIUM8aKg8FgRPdIkC0lJYWI6DkhxG9bW1sbh4aGwjpkBeBibd++/Y+hUOjt4eYIIboHBwcr5nJx8KYFoL6+/qZAIPCrcCdFRL7+/v4yj8cTE5uZQOLJyckpq6iouJox9g9EdE083uaPxUX/fIqKilJUVb1CCLEpPz9/DREtIaLieH9UkJKS8hwR7Wpubt41PDws62PPABe0YsWKCofDcVDSXYC37Ny584U3+743LQCynk1omvazhoaGj4WbA3C20xb+9+q6flW053OxNE0bI6LDRNQX64v+hRQXF5cJITYpinJFfn5+Cb1eBvLitQykpKS0E9FvUAQgUiTeBfjlvn37bn6z77tgAXA4HDllZWXH3+z75jAZPjg4uKG7u/tAODkAp8vNzV1RUVFxFRG9T9f1q6M9n4uhqqqPMXZYCNE9MDCwxzTNv3V3dyfM8+fZRwVXEFGVy+WqZIwVE1FRKBSKu0cFKSkpbUKIX7vd7t1er/flaM8HEldpaWml0+lsCTdHCBHo6OhwjIyMTF/o+y64sNfW1n7JMIz7w52MpmlPNTQ0hN1qAIjid+FP9EX/fGYfFWw2TfOK/Pz8NYyxxbPvDmSEQqFoT2/OUlJS2ojo562trX8ZHBzsiPZ8IDFt2bLlFcbYhnBzUlJS3r1z587fXeh7LlQAlK1bt7YRUWm4E/F6vVWdnZ3ucHMguWVmZubZbLbNlZWVt8fDwq9pGgkhknLRv5CioqJyRVGuEEJsXrx4cZEQoogxlhcvZSAlJaWRiB5vaWl51uv19kR7PpBYtm3bdg3nPOxdcoUQz+zbt++aC33PeQtAfX19USAQkLFZT8vevXtXSciBJDX7Of6rq6qqbiKi98fyy32aphERDQohjgwMDHQT0Qumab6Y7Iv++ZSVlS0VQmwWQlS5XK5Ken2r8cJ4eFRgt9v/3Nzc/F8pKSmN/f39OIAIpNm6dWsvvf5S7SUTQpzo6OjIudBjgPP+kAUCgWvDGfwUVVUfkJEDySk3N3dLRUXFjUKI23Rdj8mP852+6Pf39x9UFOVFxtiLXV1dc96SM1m1t7f3ElEvET3GOU9RFOVKxthml8u1RgixmIgKY/VRgWEY161evfo6InrYMIzfDg8PNxJR7E0U4o6qqj/knH87nAzG2ILVq1e/befOnU+e93vO9wdbt259gYjCPaTgZG9vb2Zvb28gzBxIMqf2oWeMfULXdRlHZkp11pX+3xf92QUNJJh9VLCZiK50uVxFjLFCIsqNxTKQkpIyJoT4cUtLy5PDw8Nhv8QFya28vHxJVlZWNxHZwskRQvz3vn37zrvN8DkLQGZm5sKVK1f6z/fnFzH4b/bt23dTOBmQXPLz8zNKS0v/gTH2YcMwtkV7PqfDoh89px4VmKa52eVyrY7VMmC3218hooc7Ojp+j8cCEI4tW7Y0MMbC+h0ohPD29fUtO99F+DkfAaxevXp7MBgMa/EnIlJVdU7bEQIQETmdzu0rVqx4r2EYMbVfxOzb+56BgYFXiOgFRVFewO39yDr9UYGqqktN07ySXr8zsFEIUcA5z4jyFImIyDCMjUS0ccWKFeuDweBvvV5vQ7TnBPHJZrP9KBQKhVUAGGPOkpKSVb29vef8+Oo5C4BhGNczFvb6P9jY2PhKuCGQ+PLy8kpXrlz5diK6W9f1zGjPh+jvb/B3EVHb4ODgM4yxFzo7Ow9Fe15wRhn4jaIoK4UQV+bm5m4nonLGWGUs3BUwDONjs1tRf8Ptdv/J6/UejfacIL74/f6/LFiwYIqIFoaTo+t6Db1+dsgbnHOV37JlSztjLNyjf/9j7969d4SZAQnM6XQuYIxtraio+LxhGNujPR+iv1/tHxwYGHhNCPFsV1fX7mjPCeamuLi4WlGUG10u13oiKguFQrnRnhMRUUpKylMtLS3fw90AuFhbt279KxHVh5MhhNi1b9++unP92RvuAGRkZKTOPl8Li6qqz4abAYnL6XRWVFVVfZiIbtd1fV405zJ7tX+YMdY+MDDwFyHE77u6ukajOSe4eIcPH36ZiF4WQmQxxna4XK63E/WzaQAAFDBJREFUCyFWM8aKo3lXQNf166uqqjabpvn1Q4cOPTU0NITHRzAnqqr+kXMeVgFgjFUTkUpE/A1/dvYXamtrawzD2BXOgERkjI6OZra1tV1wG0JIPrm5uZetXLnyBsbYnbqub4rmXGZf6ms6fvz4q4yx37e3t4f77x5iTFlZWa0QYkdeXt42IUQZ5/yyaM4nJSXlT7N3A/ZEcx4QH0pKSrJycnK8RKSEk6Oq6rI9e/a8oXi+4Q6AYRirwxmIiEgI8TIWfzib0+msqKio+LCu65+L5jxUVT1JRC8fP368iYge6ejoaI3mfMA6s6VuFxFVzBaBa4moOlpFQNf1t1dVVV1pmubXX3vttV/5/f7xaMwD4kNXV9eo0+k8MnuWxiUzTXMzvf7ezBneUACEEKvCfQGQMfa/YQVAotEcDsf2qqqqr+q6fkW0JqGq6knG2KsDAwNPCyF+gdv8yWO25LUKIR5hjN2Sl5e3lTG2PhQK5UR6LrquZxHR9zdu3FjW0tLyH16vFy+XwoXsJKJwC8AWInrs7K+/oQAwxtaGMxARkaqqcXeUKVgjNzd3ycqVKz/MGPs/0XrWr2nakBDitePHj+/Fwp/cZv+//05nZ+d3ysrKPpiTk/OeKBaB26qqqlYLIR7YtWvXn4koPs9NBkvZbLa/hUKhT4aTwRgrOefXz/7C1q1bDQpj96HZo38zuru7Jy81AxJDdnb2pqqqqi8ahnFDNMafvdXfMDQ09ER7e/svozEHiH3RLgJEdNJut3+9ubn5kZGRkaEojA8xrLy8vCgrKyusc3mEEP379u1bfPbXzygATqczu7S01BvmQL379u1bFk4GxLfc3NzLKisrrzNN837DMJZHevzZW/2vDQ4OPt3e3h7WftqQPFasWHFzXl7eR4UQ66PxjkBKSsqjTU1N3/L5fDg4Cs6wZcuWCcZYWjgZe/fu1eisTwKop/+PK664YhPn/OZwBiGinX19fec9fAASW3p6+pJVq1Z9Qdf1hzjn6ZEcW9O0kKIozw8NDf1sfHz8y11dXTsjOT7Et9HR0WZVVZ+emZnxp6WlpSiKstQ0zYiNzzlflZ+fv2Z6errvxIkTnogNDDFv2bJlNxBRfjgZRUVFj/T09Jzx0ukZ7wAYhiFjFzacj52knE5ndVVV1d26rp/38AmrqKp64Pjx40+HQqHvd3d3j0R6fEgMs/92vh0MBn9hs9m+nJOTcxXnfE2kxjcMY/OqVaueYozd8uyzz/6B8F4AvO4oEVWHExAMBpcS0RnF8uyXAMP+CCChACQjW319/bWmaT6o63pEb/lrmtZNRM8ODAz8pLOz0x3JsSFxzRaBz5imWelyub4ghLiKcx7W+exzpev6fCJ6vK6u7ovNzc2PDA8Ph/VYFuKfEOKQhO35HWd/4ezNBcLeLksIgV/CSSQtLW1RbW3tXTMzM7+K5PN+TdMmNE17cmBg4I6GhobbsfiDFTo7O90NDQ03Hz9+/LOapjXMvlgaEbquf6uqqupb6enpb3h5C5KOjJMl33An64w7AEKIpeG2DE3Ton8SB0REenr64vXr19+t6/odEtrpnKmq+vzx48d/29HR8cOIDQpJrbOz8/cnTpz4y+WXX35XXl7e+0Kh0KpIjGsYxofWr19/+cGDB78xMjLSHIkxIfYwxvaHmyGE0M/+2hl3AGScATA8PBzWxxUgPjgcjlXr169/SNf1iB34pGnaEVVVf3Ls2LEbsfhDpPX39890dHR8s7+//2ZVVX+tadpEJMbVdf2dq1evfjQjI2NjJMaD2GOapoxPpbzh4vzsOwDBcK/k2traZNyqgBiWmZm5bdWqVQ/puh6Rq6BTW/cODQ19u62tDbtMQlR1dXW1dHV1faC8vPzOnJycm0Oh0Hqrx9R1vWrdunWPEdGnd+7c+Werx4PYkpKS4gsGw34f9A2nY4Z1wAAkn7q6uuvWrl37tGEYEVn8NU3rGBoauvfw4cPXYvGHWNLW1vaDkZGR92qa9ptI3A3Qdb0gEAg8VldXd53VY0FsmZiYkHFeyRveAUABgLmy1dfXfywQCDw2+5aypVRVPalp2u+HhoZubW9vv6+/v3/G6jEBLpbb7fY0NDTcNDQ09BVN0yzfAp0xtuC0EnDJO7ZCfGlqapLxcdALvwMAcB5aXV3dHYFA4D8ZYwusHkxRlM6hoaH7Ghoa3tXW1va81eMBhKutre0HXq/3fYqi/EFRFEs/KTBbAn5TV1d3B6EEQBhQAOCCnE5ndm1t7ed0XX/Q6rFUVQ2pqvqc1+u9tb29/V6rxwOQ6dChQ0caGxvf6fV671NV1dL9UBhjl+u6/iBKAIQDBQDOy+l0ZldWVt5vGMY3rR5LVdX+oaGh705OTl7T3t6+z+rxAKzS3t5+79DQ0O2KovzN6rFQAiAcKABwTjk5OY7Kysr7DMP4iNVjKYqyf2Rk5HPt7e1fampqithGKwBWaW9vf2Z0dPQdiqI8oaqqpe+v6Lr+YG1t7e1EZLdyHEg8KADwBjk5OY6Kior7DcP4qJXjzN7y/+Pw8PB7W1tbn7ByLIBIa21t9TY2Nr7X6/XeryjKgJVjGYbxUG1tbbgHuUGSQQGAM0Rq8VcUZcDr9T60Z8+ed7S1tXVbORZANLW1tX1jdHT0s6qqyvgo13npuv5AbW3tNVaOAYkFBQD+bva2/70RWPwPjYyMfL6tre1uK8cBiBWtra1PDA4OfkhRlGesGoMxlqbr+m/r6ureZtUYkFhQAICI/v/ir+v6rVaOoyjKM0NDQzcfOnTocSvHAYg1HR0d+4eHh9+jqurvhBCWnJnCGLs8EAg8sWPHji1W5ENiQQGAiCz+qqrOKIryi+Hh4fd0dHSEfbAFQDxqa2ub3rNnz7s1TfuRoih+K8ZgjF0+MzPzcHp6+kor8iFxoACAVlFR8VWLF/8Rr9f7zcbGxo+0tbVNWzUOQLzYs2fPXcPDw19XVXXEoiFK1q9f/8vMzMw8i/IhAaAAJDettrb2E4ZhfNKqAVRV7R4dHb2nra3t61aNARCP2traHhwdHb1HUZReK/J1XV+zdu3aB9LT09OsyIf4hwKQxGYX/x9Yla8oStvIyMg/ud3un1o1BkA8c7vdPx0ZGblTUZQ2K/J1XX//+vXrv0TYIwDOAQUgSdXW1u6wePF/cWxs7IOtra3PWTUGQCI4dOjQn8fGxj5oYQn4Um1t7U1WZEN8QwFIQnV1dVcahvGkVfmKojw7PDy8w+1242U/gDlwu937x8bGblZVtcOKfMMwvltXV3elFdkQv1AAkkxqamphIBB4mIgWWpGvKMqzg4OD78LLfgAXx+12N42Ojn7AohKQHggEHs7Kysq1IBviFApAErn88suzqqurH2aMrZCdLYQIKYry6ODg4Ls6OzunZOcDJAMrSwBjbMWaNWseIBwcBLNQAJKHfdOmTf+i6/rVsoOFECFVVX/W2Nj4ISz+AOFxu91NIyMjH1QUpVN2tq7r/1hbW/sh2bkQn1AAkkRdXd37DcP4lOzc0xZ/yz5KCJBsWltbXxsdHf2ARSXgx/X19Ztl50L8QQFIAvX19Zt1XX9Idi4WfwDrnFYCxmTmMsa0mZmZn2N/AEABSHAOhyNnZmbmYSJKl52tqurDWPwBrNPa2vra2NjYVywoASvWrVv3eZmZEH9QABKbffXq1fcxxspkB6uquruxsfE22bkAcCa32/2jsbGxr8g+QMgwjHtqamqukJkJ8QUFIIHV1NS8T9f1W2Tnqqq6+9ixYzfKzgWAc3O73T9SVfVhIhIycw3D+HlGRkaqzEyIHygACSo9PX1xMBiU/txfUZS9x44du7G7u3tSdjYAnF9jY+Ntqqr+SWYmY6xs7dq1X5CZCfEDBSAx2detW/d9IsqQGaqq6uGxsbGbsPgDRMfo6OhHVFV9SWamYRj3bN++vUpmJsQHFIAEVFdX9x7DMG6Qmakoitfn833A7Xb3y8wFgLlzu93j4+PjH1UUxSszNxgMPkA4MCjpoAAkmIyMjHxd178nOXbS5/Pd3dzc/IrkXAC4SAcPHmzz+Xx3E1FQViZjrK6urg7v9SQZFIDEoqxdu1b2rX9DUZQHW1paHpWYCQBhaGlpeVRV1V/LzAwEAvcvXLgwU2YmxDYUgARSV1e3wzCMd8jMVFX1ycbGxq/JzASA8E1OTn5MURRpd+UYY8uqq6vvlpUHsQ8FIEFkZGSkBgKBH8vMVBTllcHBwbtkZgKAHE1NTcHx8fGPEJFPVqZhGHekpqZKfXkYYhcKQIJYu3btHYyxpRIjh30+30c7Ojqk7kAGAPI0NzcfUhTlPiIyJUVeVl1d/WVJWRDjUAASwIIFC7INw7hHYmSQMXZPS0tLq8RMALBAY2PjdxVFeVZWnq7rn6utrZW+eyjEHhSABLB58+Z/I6L5svIYY08+99xzP5OVBwDW8vv9nyAiaUdx67r+L7KyIHahAMS5+vr6Fbqu3yorT1GUwenpaTz3B4gjBw4c6FUU5d9l5THG3o93ARIfCkCcm5mZkdnUg2NjY59qamoalZgJABHQ2Nj4FcbYIVl51dXV2CI4waEAxLH6+voVjLF/lJWnKMrv3G7372TlAUBkjY+Pf56IDBlZgUDgTuwLkNhQAOIXCwQCMl/8G5yamvqUxDwAiLCWlpb/ZYz9WUYWY2zBpk2bPikjC2ITCkCc2rZt2xIiknX1b6qq+nnc+geIf7PbBJ+UkaXr+k1EpMrIgtiDAhCnQqHQrUTEZGQpivLcnj17HpORBQDR5Xa7PYqi/FZSXGlNTc1GSVkQY1AA4lB6enoaEX1aUtzJiYmJzxCRkJQHAFHm9/vvI0l3AYLB4Bdl5EDsQQGIQ2vXrr2JMbZARpaiKE8cPHiwWUYWAMSGAwcOdCuK8oSkuOsyMjJSJWVBDEEBiD+aYRgflpQ1MzExcZ+kLACIIbM/2zLuAihr1qz5gIQciDEoAHFm+/btVYyxDTKyFEV55ODBg4dlZAFAbDl48OBhRVH+ICNr9qJDyjtHEDtQAOJMKBR6v6SomUAg8FlJWQAQg/x+//eEEDzcHMbYhvr6+nwZc4LYgQIQXzQhxPtkBDHGnnjppZdmZGQBQGw6cODAa0T0qowsXdffKiMHYgcKQBypqampZIyF3cKFELrf779XxpwAILYpivKgjBzTNG+UkQOxAwUgjgSDQSm3/1VV3YNn/wDJwefz7SKiyXBzGGM1RDQv/BlBrEABiB+MiGTc/hfj4+PflpADAHHA7XaPCyEelxBlq6mp2SQhB2IECkCc2LFjx1IiWhxujhCir7m5eY+EKQFAnFAU5b9l5BiGsU1GDsQGFIA4MTMz804ZOaqq/lJGDgDEj+np6d0k5zHA1eHPBmIFCkCcEEJslpARGhsb+08Z8wGA+NHU1BQUQsg46nsT4T2AhIECEB8UxthqCTntbre7X0IOAMQZVVX3Soixb9++XcpGZBB9KABxYMeOHU4iKpAQ9ayEDACIQz6fby9JOPSLc14hYToQA1AA4sCJEyeqZeQwxv4kIwcA4k9LS0uPEGIg3BwhRLGM+UD0oQDEAUVRrgw3QwihHz9+/BUZ8wGAuBX2J4CEEG+RMRGIPhSA+BD27n+MsZe6u7t1GZMBgLi1X0LGEgkZEANQAOKAEKJQQsZzMuYCAPGLMfaChAwnEdkkTAeiDAUgPlSGG6CqapuMiQBA/NJ1vU9GTm1tbZGMHIguFIDYZ2OMhf252+np6S4ZkwGA+PXyyy97hRCBcHN0Xc+VMR+ILhSAGCerab/22msHZOQAQHxjjDVLyFBlzAWiCwUgxgUCgbxwM2Q0fgBIDEKImXAzGGN4BJAAUABinKqqPNwMGY0fABJG2BcEQoiwL0wg+jTZgampqRmyMxPF5OTkDBGF3b4vlhDiZKTHBICY1UxEbw0nQAgR9oXJOcxPTU2db0EunIf0ArBx48aHZGcmCtM0/7uhoeGPURiaRWFMAIhBjLGIX4TMxfbt23coivKOaM8jVhmGIT1TegEwDONm2ZkJZICIolEAAACIiEgIwRiLvWuCUCi0kYiwfkQQ3gGIICGE/AoHAJAA8Psx8lAAAAAAkhAKAAAAQBJCAQAAAEhCKAAAAABJCAUAAAAgCaEAAAAAJCEUAAAAgCSEAgAAAJCEUAAAAACSEAoAAABAEkIBAAAASEIoAAAAAEnojALAGEMhsFbsHcEFABAb8PvRQuda37WzvmFMCOGN3JSSi6IoU9GeAwBALFIUZQrrj3UYY2Nnf+2MAjA9Pf1pTdMWRG5KySUUCo1Eew4AALFoenr6vzRNezra80hUoVDoxNlfO6MANDU19UVuOgAAAK9ramoaJaLRaM8jmeCZPwAAQBJCAQAAAEhCKAAAAABJCAUAAAAgCaEAAAAAJCEUAAAAgCSEAgAAAJCEUAAAAACSEAoAAABAEkIBAAAASEIoAAAAAEkIBQAAACAJoQAAAAAkIRQAAACAJIQCAAAAkIRQAAAAAJIQCgAAAEASQgEAAABIQigAAAAASQgFAAAAIAmhAAAAACQhFAAAAIAkhAIAAACQhFAAAAAAkhAKAAAAQBJCAQAAAEhCKAAAAABJCAUAAAAgCaEAAAAAJCEUAAAAgCSEAgAAAJCEUAAAAACSEAoAAABAEkIBAAAASEIoAAAAAEkIBQAAACAJoQAAAAAkIS3aEwDrMcYYoewBwOtYtCcAsQEFIDmkb926dUe0JwEAMaEw2hOA2IACkByqiOgv0Z4EAADEDtwWBgAASEIoAAAAAEkIBQAAACAJoQAAAAAkIRQAAACAJIQCAAAAkIRQAAAAAJIQCgAAAEASQgEAAABIQigAAAAASQgFAAAAIAmhAAAAACQhFAAAAIAkhAIAAACQhFAAAAAAkpAW7QnAnIhoTwAA4BTGGH4nJYD/B/XIj21fGP4dAAAAAElFTkSuQmCC;" parent="1" vertex="1">
                    <mxGeometry x="481.37" y="-262.75" width="92.75" height="92.75" as="geometry"/>
                </mxCell>
                <mxCell id="58" value="&lt;font color=&quot;#000000&quot; style=&quot;font-size: 14px&quot;&gt;Users&lt;/font&gt;" style="text;html=1;align=center;verticalAlign=middle;resizable=0;points=[];autosize=1;strokeColor=none;fillColor=none;" parent="1" vertex="1">
                    <mxGeometry x="502.74" y="-170" width="50" height="20" as="geometry"/>
                </mxCell>
                <mxCell id="59" value="Local" style="text;html=1;align=center;verticalAlign=middle;resizable=0;points=[];autosize=1;strokeColor=none;fillColor=none;fontSize=14;fontColor=#000000;" parent="1" vertex="1">
                    <mxGeometry x="-270" y="593" width="50" height="20" as="geometry"/>
                </mxCell>
                <mxCell id="61" value="HTTP, HTTPS" style="text;html=1;align=center;verticalAlign=middle;resizable=0;points=[];autosize=1;strokeColor=none;fillColor=none;fontSize=14;fontColor=#000000;" parent="1" vertex="1">
                    <mxGeometry x="540" y="-130" width="100" height="20" as="geometry"/>
                </mxCell>
                <mxCell id="62" value="SSH" style="text;html=1;align=center;verticalAlign=middle;resizable=0;points=[];autosize=1;strokeColor=none;fillColor=none;fontSize=14;fontColor=#000000;" parent="1" vertex="1">
                    <mxGeometry x="-180" y="530" width="40" height="20" as="geometry"/>
                </mxCell>
                <mxCell id="38" value="&lt;font color=&quot;#000000&quot;&gt;Route53&lt;/font&gt;" style="text;html=1;align=center;verticalAlign=middle;resizable=0;points=[];autosize=1;strokeColor=none;fillColor=none;fontSize=14;fontColor=#FFFFFF;" parent="1" vertex="1">
                    <mxGeometry x="499" y="20" width="70" height="20" as="geometry"/>
                </mxCell>
                <mxCell id="26" value="" style="outlineConnect=0;dashed=0;verticalLabelPosition=bottom;verticalAlign=top;align=center;html=1;shape=mxgraph.aws3.route_53;fillColor=#F58536;gradientColor=none;" parent="1" vertex="1">
                    <mxGeometry x="492.5" y="-70" width="70.5" height="85.5" as="geometry"/>
                </mxCell>
                <mxCell id="37" value="Internet Gateway" style="text;html=1;align=center;verticalAlign=middle;resizable=0;points=[];autosize=1;strokeColor=none;fillColor=none;fontSize=14;fontColor=none;" parent="1" vertex="1">
                    <mxGeometry x="470.75" y="142" width="120" height="20" as="geometry"/>
                </mxCell>
                <mxCell id="45" style="edgeStyle=none;html=1;entryX=0.5;entryY=0;entryDx=0;entryDy=0;entryPerimeter=0;fontSize=14;fontColor=#ffffff;endSize=10;" parent="1" target="23" edge="1">
                    <mxGeometry relative="1" as="geometry">
                        <mxPoint x="531" y="160" as="sourcePoint"/>
                    </mxGeometry>
                </mxCell>
                <mxCell id="20" value="" style="outlineConnect=0;dashed=0;verticalLabelPosition=bottom;verticalAlign=top;align=center;html=1;shape=mxgraph.aws3.internet_gateway;fillColor=#F58534;gradientColor=none;" parent="1" vertex="1">
                    <mxGeometry x="496.25" y="70" width="69" height="72" as="geometry"/>
                </mxCell>
                <mxCell id="44" style="edgeStyle=none;html=1;entryX=0.5;entryY=0;entryDx=0;entryDy=0;entryPerimeter=0;fontSize=14;fontColor=#ffffff;endSize=10;" parent="1" target="20" edge="1">
                    <mxGeometry relative="1" as="geometry">
                        <mxPoint x="531" y="40" as="sourcePoint"/>
                    </mxGeometry>
                </mxCell>
                <mxCell id="3" value="&lt;font style=&quot;font-size: 14px&quot;&gt;Public subnet&lt;/font&gt;" style="points=[[0,0],[0.25,0],[0.5,0],[0.75,0],[1,0],[1,0.25],[1,0.5],[1,0.75],[1,1],[0.75,1],[0.5,1],[0.25,1],[0,1],[0,0.75],[0,0.5],[0,0.25]];outlineConnect=0;gradientColor=none;html=1;whiteSpace=wrap;fontSize=12;fontStyle=0;container=1;pointerEvents=0;collapsible=0;recursiveResize=0;shape=mxgraph.aws4.group;grIcon=mxgraph.aws4.group_security_group;grStroke=0;strokeColor=#248814;fillColor=#E9F3E6;verticalAlign=top;align=left;spacingLeft=30;fontColor=#248814;dashed=0;" parent="1" vertex="1">
                    <mxGeometry x="157.75" y="356" width="393" height="194" as="geometry"/>
                </mxCell>
                <mxCell id="29" value="" style="outlineConnect=0;dashed=0;verticalLabelPosition=bottom;verticalAlign=top;align=center;html=1;shape=mxgraph.aws3.ec2;fillColor=#F58534;gradientColor=none;" parent="3" vertex="1">
                    <mxGeometry x="83" y="53.5" width="76.5" height="93" as="geometry"/>
                </mxCell>
                <mxCell id="33" value="" style="shape=image;imageAspect=0;aspect=fixed;verticalLabelPosition=bottom;verticalAlign=top;image=data:image/webp,UklGRi51AABXRUJQVlA4TCJ1AAAvr0SdABnHjSQpkrKrdg+61n+HGd8R/Z8A3rWPkwS21fgAzczb+zFJNRPy20NAEjcNKGHnBMDQlUjaa2WLUybnOKmPExYWhb9HVFcllUrVESZmIiY5AkJyhotv3Ma2rSobiezMximD/uugAJfozY8Ycv9Y7ESybak5ZLyKOhn13f+qkEjUq6gU5EiSJCmx1iHEHhxhuSrwZIRHLV79nwAM+J+j8VR5L1t9cqLxH0EOa6t3QDS6+o6phmg8CIIgwO4590VR4ELVba8RotFotEQAmG8DrplFmc2371dEo3FD1/y1eb9PK9Ho5r2SAQBwJmbMUGlOL2HGAQAAgBiNxr+SMSvZ6j2g9mi0ZNGSEd6AGTMURep7Q48jGuVXLrkWOwhAo9VilONJQX6ANgA0Go1Wh+hNL07/yA0AOgGiabV40YteFOQSxsAO/abRagFEMdzlQxBOANBoUC2fbh4HbSNJksMfdvXuPQgiYgKSjZCcCRKEyEZIzmwQITkTIiSbTZCc2QRBHrNl85hvVkQvvlpBoi9VQX5ZtoK+56n84++6PHc0TbIR0pAzyEYnimzk00qO/LBFvzM+6+qpB5sQREjOhMgGOXPmzpkz2qhtWy25jd73+/Y+WKfOKWyoqmZ1S2oLjWFmZmZmTn4NMzNDmJnBzMwsLzF0q7qquqpO1aG99/f9KDqnaqukPnXW8htGjQwBh1nWqsk6hh6eM+SxQx3mGAKauAfaIA8e9/AEesJoCHNqWeE47XAiZzrM8nIHOrMM6nIYOsPcpoBBWlkdRvMfJe2g/vVKjEG5hw1hVjQ8wQpoDD+sMDObvWbZHqxZ6QkrzMzMPTwnoGQQE23bpi3ban3MtbbOXvuETlg3HO/Hs23bTn07/fM/5axt27aerxm+CONw7zVH94Bt/9nI///d9yNJzWk76Nieee2srdfbtm3btm3b1sv2a/f92p21d3bH7Mx06jR5xATog/9/ud24eX7P8xw+l+8Vg5ntXTvLDCkzMzMzMzMzhhnsZTaDZBZasvgKLvO5h8/z/HGOzj3nOY+u5Hn+OJ9xN4y33VFVJs/CnUQezQlHsxNw4BbXrbMOR6ETON7ZM3FmRxlODEU7JfsPj8JwwvHEq6LjqcOJZgPOzp1Vb1k3DGt1Go69UwWsMDhu2KNydxwGhRPL097Cwi3Xo0YdhRlslcFJuZ5wcgNKUTcMKtf2rFz0winX43A0KjfkWWe8Wu+knvH6wrZteVpt27bthEBoS6He293d3d3ve+5xd59yf55Zd3d3f4a7S72MegkVQiDE7Uqu6zr82LatWtsmSX2s5/3QmBklJtUKYCUyU1H+38+wIiaau0QaMzO7f/Azfu97ZkwAD3j97/W/1/9e/3v97/W/1/9e/3v97/W/1/9e/3v97/W/1/9e/3v97/W/1/9e/3v97/W/1/9e/3v97/W/1/9e/3v97/W/1/9e/3v97/W/1/9e/3v97/W/1/9e/3v97/V/T7iRzDCTyazBLE6h1u6/aw4WCj3YJgBlGwQTt6jcAiSGVrEJbilPUaRcsEKLaVFCdZjZA3hkWCz9MrzoAGDEBtFTcuhCKS4tLhWZLAc5U7ZmeW1UC95xxZrN74CtUb3BMcoNgIFVsMdQqoqigoLgMq3SDCMN9WDk2MiRp5PjnTJsdRJJsEwDDUa5V2paqhrTIztkK4s6x5qGRCRG+SXDJMuAaRhzG12P2RxpR8a4LDKBc2LP5cYsR7gA1ZpDhApggmJahH04bbkweqTRA/Ssngx8/vYzwcHbAqPXaM2n9OZfIs5LrcVjcqSzZqFlaZVYl6gryzUd2XqYjeTrZI1k25gWZoiethbJ+UnUdyiFe/KyCBi0ofvIAHnodeTk1jnjK0f1uCs0+J7WfkFrv6w3fxYxATixLzjlROlpWZSMVK4bDEghtoftX/3xaVvVbMvuLX8sta9DlDMnayXT0hvtyv+f7Xn/OKP+4+3WfptqvMsMo0dtGQr5IUgGLHALVa994V75vHrtfWkuL2teMOJRrfl7qP2y1n7pYaRm2mNY8OItHStoRZ9E6szS9QzmwPVTXB2zTnEb20rTjx0ly1kLXLAUTJyPqyAJO/+5evHr1ul7xtF3U3nFfgg4gP7DfsbWExvssbGK+Sjpyv4mqat6+Y/W/Epv7gRy8RgVeWjnXrVxeNV86ezJraOYOsV1mjU7rU1PIrOGkaJiePLYJys350yst9f195g9VceVyv6m1fXyK639i9Q84MaeGNJ/CbYoT2uuE3JZvoXYTgdqz5DXkzfRw6Nn/BBDDXz1QGOLqbNXlqdIq1ROakHEaSNuNcoZqUI8tkSeVqIz+yzG7uYZTGahbdWXaM7Rno3tYEbILB9Ec2wlWCC58XRns+uXjgXsVxRx1Ih/S12SsmNH2JRJy7hTs2bqxPJoXBkzpj2d9szUV7C7N6mYgrjq5tcff6upJUkDpKTyImaN8n8R48AGoLEheOqms+iUPC2UoX1t5pe19qGRJ6a8hhnYkipBfHVQbGyryhzJt6EUUBBxWi9HhKbaY0CM62aLhev2aY2PMhLKZC0RJ4t8muLWHn0tiLOwBIwBxtyJ0qSAJFUESjJOyrj6OfFYD9nsjO46WJOQYUOCGBFxUvSDlBtGhPwQ7ZPc5TzJExkoAZTaEJoROi7JS7kxHTK1JK7Npxk7oB/A9FNfFnsXxc1kbVUQ9ZFPNj/uwwWhBHG0K7Ui4oqMSbTGbrBquXDtPguzK5s0GKSkulbMnTQXyZpCfoh9yPQb/a2LEkk5QF7ElGStPUYDp9ZhwbQF0cX+QRA+eaOY+6c9Rd5Q5EcPcGyl+XADkyMpLlUB5mVce694LIapZ8DV+TRDpgsDdFbUo6Ie8/cmlaHHKGEQlBqLEhHakSpJLaON2AsGNcOC9afdSF6BAzBMfS3tGkXdlmXoYY6q/rDUki0CePF+mef/cunTw2Mr+PS2lEu0tClTGeBf++8pGjYdhh7q3RsjhnzAfvvxfkbiVSKWgp4aY3mXGFk4AHSeaj3NFWzrSAE9Wp7Ts1TcPdCf4tuU3zFiFqjGTLDRziugHXRmFeBn+pS3/GdmgpShxzsQrA0ehb59hTKILxEjwWIruZVdiswEgM4pN2muxnajitBDJmSJcsqGA/inaAsoxmMhhFNpVXQMW9kEUIHpn+pKbNutkIAe9OBxA0cB9DpS5cXaYh+M66JlsbPFAPgVt6a8SdZ2BfS4CappLgSiqUjxsQbHOBj4xg+RrFwqAfyybspbyRuttRl65Dwni5dqPxGlJG4iFdOAsqS0TmzrCQCKmS7FBqanCj34wGi5WoiI3gPwAEbsAt/UVWkljBwO4FYUt1Ns7lZICT38ca+wq7FERODg86AlZkFJ65Cb6AAAV1DewPQiWSgU6mY6VGEL0Ui0B/AvFZvASi2tRXoyIj4F4Ap/TX67tStQSLQjKFBVKV0MrQshg7qqU9ROl0oFEqzhrFnbRzfqtrkFy1SplrgtN4k82jrL7MyiO2a4skCYZQPSzbKX1y4gAkgTI6ulueRIpxIKwBH3I28r8qOwOAylDjiMiCgFDo9cqAg3cWcKt9qJHrWfRSSnvVHCKTUvxzQYB4JR0lRBRMVrxe8WC1RaJ6VZsDMxuX0ygiybeW5X+mfxuh0IJZoQcZTuWuAAmwHws4PUl8Z0I0UoRCKkuwGBiJZlmQTJQgOntrhen9O5jkxnpihcId8q6rG9h2wbM+65+YiqMmAR3LCP9KxxZwROATDRYZYtPJ+u9C/ndRCwmgzZdFtXMtJIAMVTJjEDPhQqJfiyTISbRLTqZMxQciFg5HLuGngWUQqmAT71RTH3euEpPjhrFXoZZyf39OR6DEqia5X6JHXxVl53AN4mQsHm6L1VCAA9S9bcY2+HwiaDikWXS0SJFNgHcuKmN/IM7LuzXz81DPgin/L/ldds74fzd9JB7nninrHcdNCSQEd53WdZfPifrNoUiNfUzCRJD+cDQHLyxj3Zk6EQqkDVQkTxcacEgoNNrmTza3SN3YYAKtQXi7l3qkvRUyjw6GnAecpZJ+qEROiQ0j9XXbyfedMaTX+CO6zCdGYVAP9hH87286MwilAVHAEmECWWAvnA7rImFp6ahERdE89SyCdgBNtL3ij6gV1sfbhQBX2l54w7vbA/VUqfpfavUPqX8Dr0goDRxGd4V2TQVI4AHCHrYNv3ZBUonCKwQmmRkIjWAByQKaXmNGjqAa1pZdZBVTnqnNONMO2UG1Ou13ttZtBbTYJLbaCzkCnNAHlovpCHZLguzZ0211myg7sL3cuyAx0/pQzfGk11/m5GWldZ4QOw3Z5rDkOhdcrbrDKaiBLoOrQXLSa0R3Na0TXjeakHmdyP75PfTHF9inXyemy3SVcto8oq4GIOJnCpDX7w7jOFjjJzbXSWN8+BTgq4SKrZAm7h2Y3uRnc9YbwJTtCQ1jnKxkgA/r0/fBLJoRD7OnbILEREE5ulHCnXXEqykna0FFtO7ZGelgdDRA0oNqe6fJqLerM9e69VAbcjVKAFqFKH4IJu0ElGL3u64c1RwOOo1TXM6VD7Ob35m4hTtyRVbWIzsrPyNREA1jrssO1QqOUiF9KECUSENkAW2kSLiQQ7YSkt7e6uq8sls7iCrEmzRn2J8nqy1iYNo0oQasuw1e7++OnSjkIv2BdOg6mXu/X2L6H2W6H2u3rzd6nzI5rQDN/1o/LNB4AU3b7itooyFHL3YjH9qABEANvRzj+Nm0Q43S3MvrfPNfPc9h56cOF+lLW0p6mvbtymZFIFhD5BBXbBLeRL198X52E1qEmjnDTKLVrzM639vt7c9ortTWQI9k2FOQQBVP5TqoiehMIvSj/7hScQxQFTykB7AZpCJp0F5zqzT3N1k5V4rak9T3Mm1fXG0eNIEQXPbPng2aputmKb1a1MG9gQMSPivF4e0svtIi4BlSYxRrQOOWQRANATR8qbUCiWMIAWJU9ClABVgKpUKd7gDKw5u81rZYd0xOQJf0y+2btrz+0ct09nlcFz//xpZk9sKXUecMvtQF5qUsTDRjwoYq69yUtw+o/awmYA/FRcMRVIrnBEhrnSKsOIUoBHKjM00aB4/aD2yWm1cHpauG7Kk01klvx2Ec/SrPX/njkEDw8alcb1+BLNJFWVyt6SjEWgmGji4lv9NcwYCKDvP2U796KUobA8OWSWGgYgAkSSA1dB2fYGZOKahoVip2d3l0ETRo1Xboh6TMQJyppJIT88HmFI/PpS8c6J4u8lKZ4m1aSFU06wsncNAqgoGkGmylB4Fubz7+qjJKBUQmppfLyhjDzbomxJPWomTBYkuSO1Z6gvkzcaQWZBFMcaxujT3T1R6sS0bLIJS3W2EhnPfACe9/bZLlKEwnUlWoQGwVhKAGWpVRFTgN0w1lgSi7nWtIXNsJms7QkPVGzatAKieZS7R9hMlPyn48bFm6rwsiozZgyHAgCd9+hrDUMh20CDyf4V3uT+KP4qr/juIjKp+rfFTS/l04GyNMjnp0enqLW7fMsIkvNDTO/eDriEKAX4mMOrJpuoVCcjBxwDUEyVo4fHDvRFofswByhE50bfhqhNxIKIU1Jzr1LPbJSC5dCK0jQBIGxN9VWKWx6d5CCyT2EVrZAbRMnlgSgQbJIySs8OMmoiANDZG1nrG1QeKUIhXIKP6pc6W9W5ErdMbUBW6JTQUWBOYtcjXkZqhdb4qH3DAMlu/53Ybmv5IbbvgTAN/sH3IKK9o4MsTYBNTyjZuPRgKKsE0Jcq0Nkxk6GQXqq1GcJx3DHQQOu8IYmfZovf4f1TlXoQqEUb9WX363HXgVZsqyCwZtTjRT+4/df3Q4QViHBKFwAojvA9VPwwxQeSk5JUZLN1eQ4AKWNGyXZQcf7CGsBadEjQnJifNbT4OAXfxZxm7uT9AaVuR3ejk4AVOSula1l2Cp5ldMBIVLDtLhb5xDSXvNAwiDIdjYmQigBQvJD4XsJ3857EJHSh57U6XgCw7V8hGRTqaZ0vBvVsBjZz6AM7YCnUMDdgDvE6wHMLyyF0YmRERiZqMdYo3PrWegtXyOunvkhz3pPKmsb7KYi0T5MWpdcPAZeg4gdI/CiJ9yUlZteeGTQSAEhO1vHoFKGwT+j1laSRC2SDHiAPdlLY44CLeLprrO5i2cvcjW5B1+z3lIBZJxkwcY+aTge00BUTLTnkTpmGSK8j71x5Lfm2KSO2pEoQ7zemo7F9APC+R+L7JSUcZyEd2Qz29AhVdAR6ClsUcHyb6AIZcH8eSYb9mUQyCWZnbWYmnapVHGduQ9ezTCC1LOuQQJKSJwKJCPomKNqlhbvsfnvdeQ5Ue6dEyUiblDOk341vo3eTtU3Z8y1GTCKz/BB3X3xarGMI6E/iXTp+jOL7B0tFfCYlRoMAwF/E9toePZEMKuhTnOZOdnD3FixVHhXLhWkn6JLPgRfxOvF9NSOFDjDXFK5YwSG3ejYxcLsn1Dj61nqIUqC1rYNsE7ZBtklUbsuqLauOGHaEH+K/weXkGgOQuPe5/D30lYYEDbBKZzayI7m11iKlnonanma10zAR4WocQXxoQ4ZHG4he1Nt59VaasXewus0kVzasAj1SNsQ4LQMQpHifxI+9D0VSEN9Wvc3BB6CYZLfmEehVTUguDRSiAVyCxA+Q+N6BEpCgxXRmSxcEQKLzb1nl72UFXCTabVAO8L7631T8IO/7kg9OuZQFC0IAUMV2/BX0yi4998fJLQRc4tL/W+LB68nzkBNN8wF4K1m7CpJDr21CmqB2TAwAxfsU30v4LhKvpByhq2TARMMB4K+UHYZe3izUycddCOhP8YqOHyLxvf2lG0ED6ZBnQQB+euaFKq7Q6wulWowNACDx3TwfDu4v1SjeOcVsKgEAqjgmQ48vgF7hrGTaYAww8LfS8SMU3y3R+MOpIS9MBYDi7f8zKSpGL/FQ8eX6cAT0/7V9KT5vktH3KpmwUBhAYNj4Kj96kZfLtc6YMUD/v0nx/sQmGNO6hB2mAcAwto3pVEGh1/nO1Rw4KwH6874Fl9uaWvBk4QZlRQ8HAMVbMhNV6JU+cDIGB4DD0RbgScSbVFT+oM7QJWEAfjI7eaPxfvRa37n6toylwcCJ22RkZZSaUgS3So90kVUAipnxdmSGVaBX+8Awx/ECKCWjMh6NphMlt5OMqaMABIrkdSRXjF7vhPjIUNJzg4lk6CiQnYo3jRg1Mh1J6Xm4MIAq2U5FH+RHr/hyG00sJqIUSeVlFJtEVI5sQ9lRPwD+qimyJqoMve6HtRAlQCWQAkYTiI3TkgOSySYApNyU/d+uCr3wW1qIKCVlof1oT6Kpw7gsau90ZhUA/xTZbq+6GXrlj3bC++WQCG2gvUDNfgE2aQhnoym6mUEcAf5N95c1d4N+9NJvmZAu2AUERDK4MrpmYlMG34YdWXLoB2CzTXtPqUKv/qXSxXzoMVuITsyygWUnOtJkIZhLTVwT5FgJ4N9bcdNvnFSBXv8KzAXf+p+JCAjx3MSyDZAmCjbczkulUS7CQPGOqquxXTv6sVrgiusC04IWoiSvo6weBhqaJAR1XnPc+sFhwF90n4/Ntq8Mqw22nJGwLvQPEtGH8nw+zz1rNEGwugxaAV1wO9OAI2RtG118+wqsVrgOcE5CnkhEgFfp36AuXo4ONTnw5VEj1wxdZYmA4k0vpr40pocUYbXD0xcuDEwLiWi/lsWnLIv37r2JgRT2uSXxauSuF8yNBiAN/T2H9fwLdn/j2IMGHfZLlJhrEhFQkZqWLCOkpoXfODe4BvQapLOBMvDZdEz1Go6R/r9qvcqPA4MGIZ5ECVpCiAgooAQVAIwmBW/Q39yw9KrBlqT9hG+kMcodpj0E93+q7Tx3hJU0CFHCJT0Bl7AkURwIIA1IONGE4DBftjHh6nGXeP+gKAXarvMRuP8L9sdpuU5ckAYpvk16MLfIHySKJxn1SAowqcmggA+wRdxrlW5ImNv8a4OHftyfcP+33qflBX75UBqkuGZaMKcYzuCaRIj7TMwt26Mmg89/r1crXQ967wf/bMIetktM/291PkjrVfANNtMgxiWzAn+HC0Spg6LSSCTRRGBwJdyKsD651w7uoBh82NA9Wi/B9RU6H4blefI1YCUNanSJmUJ2YBWiFBBEWpCaJDUN1GtL8DqsGw13G0aRdCliW2K7qAdzPIL9HGQoDXJ8ij6mO2AX1yQC8kiMkUY81BQwnOlWoLOwd5wf3OnzN+/y9tO+zkO91EEG0yDIDnAa0R1ckghwtodK7TrRBMCqDDUOr7980jE8gBSwkq/B+RD34XgC6jXeIQ2SvJPpRAHVEKLUeCD08YhQ1P+hrWLL48w+L5WMPCt5JMtz/IRDHZbfw8tDggZN5ou55oAZiEgqixiM5FdQlP/wbLaKlmBLowOS0u6gYsT+z2p/Gs/3lDunQZWq0NuiBco7EMWlFicD4UR0n0kd0Si2DFvZJdMjWlT1SKqLaS5QbviC5/5AGnS5v47BgUvwdiBa7LjNiEnR+7xMXBqt4g5tgg4uFX1CU3bSnnEz8i1T6KyhNCizJyJBa2gAiotYARVRnkTUXjDXWsSWdSvizXafOmFv5cZUV0990U+T7VZ0hB+DNG2go8QrtBINkbom2UA8FJ0//Bk6hiZanJ3tqC3ugh6QNamuNG0jtn1sX5Ufq3V6kOOXtahcApHUynWDysloPJ+Ra4dG7Kb/bTf0HslPO8e0+9hfvuuwq5ZhNVAPvJPyJQSHIBJxRcRUKhF1Z1UGbd2ENVZ7JOlRdUXUgLyRct19/jRZO3pYUQVWE0WYCQyxVQSIRJyWmkQMiq735dsNNIn927a4QLo+nowpbjZNfrvHlrV2P1tSAauVouCSGNaXJmoXMS7KxODoOZ+Zy9BNbbICtfXpZlmUO8vcQ3Z7JGWN8ubWY3ro8RVVYDVUNFxQK+IfgwgoGOWk0DVAo+NsspLBOqBl0pZtnUipsfRCfhbTcN795TtkTesdtn0ZPJgXqq2sKcxF3hZ3w5Dw0kRARuo0aBFB9JtNOdEaV+6Q1jZc6aOyS/ohSzfbLrqR8kayHetN2nt9MosUwYPXtI843WmZ9aWc6RxcU859Wfq9QCO5SI7a2vZx3jHJOcYblmGFhftwlRkqnDdUbMVgw/g47FFvsk0WGB4agAhYkLo+BGA0G28TLNrqgBu60nmSQ1opcyY/Y9zFbPozsqYpezIDa4/3wcOVhvkHcBZv4VrOImsHnRPJ2SXpO7HZx6T8BVmERmmqlkE5Y9tS3oEr+fuv5q7MuLoNx6RsHxn2QWpBdW2C9i1kw1zzdPlWDDbl5tQbtDxH2xXwu/z/kKgHi3eX+A1vBykQiZiTsQGYUWu+oQcf1ZV1sbN1DOnKm9F3WFrxrajm2HpHTpm09/rDhhXD09d0jDnrS3lWb4N7G/WeBtBB2VA2skfKJvT8H9CyCAzC/9z9yLkeR871OHomb/+EZ9tS2lLePkha2gG1DKhlkKvRH7G5HNkIvg3ZszkbhQlR8cYf98wf5HgUb/qgx4xYFsw3+y+hlYhueHuAh6LPB/8gk3SUQZtc6SafJL1YduZVjF3mOqZOthvbcftMv22ZcTdIiiCKUzzLOJM3Ya0vhUT8qmqoZm5NxlVjzDtk9oq4L4h6B4u4WGGW2BfpKul+5Gz2znlXl7UPLbV0c+3lbEZ3M9UhccAL8BsHCvMJr7Wx0E2gj/1un3Uf6g19KOdDdDyulhs8NpgRmboWCaBlHSumoATLZnQQiSASZcZrlzWS0RnveOWt06Lc6QztzK29ErWLbmKbsd172Ul0diRXRooglqt02jN5Nu9Ez6P0pVMpe9GdbBrjSmGFxBGOdQzLuvEfFmF5igJxBvheXqF/B9uowEuQs1XR47l3MHUAMcQHCFU1BB/8klfamHSDxj+pFI658x0d7VD7sF7FdiNwJ73FXKN4htYXJXSc50HuxlNQtDgvq8aeOxdrdAwd3YXTinIzuRP6Udb2zI1IE7ttU3bgR97Kk/3dEEQUBeuwlLVjvu+Ljpzeq29xTaUC2yfHj3/rcq5FxmZFRYZdapNA4THtF2T5RVKmfvPakFyjqLC4w/CKaZixTeEJXDsZ3XsATKrl4Kcvks4FNgk2ZHxqsaCZLf/xxh1Pwvkt2i7gINhrmFTwWD3Mfh28HUIDJNApXg+cAomOjQ4blEq/5oCu1jUk6wOyZww9xm3WNrId6WBamI4ROzKTPRkpK6uAqE6xj/M9Hzg907mHeh0/2ePo2ewd8145Gs3I3tnV+gs4uoAKVold1aMQBEWr9vNkc1kEJV1ci9gbeo3iGYa3GmWA5T6FpzIGgAhiUR0HG2KpMb+wWen9/amV3wArP069BvszdD4I+0PzyvXc6HCkwV/7K/t3GF65hCTLNp43rgGUAYOiu3mtmxsd8gwfcJ6zHfU3dZPyR9OPsnSy7eCb6J32XpsZte1VX5LOUSWILQt1dat5+yZ6nxyf/szRznuv5a7MpU3L9kHN+4OfxjnI1BrA2pQeLWLSKkwggoBYFvsFKPfE7Biw1tNgEXsgazURFHYY3qo3qTvmdVjGMlIPeCicAq7YH25LugnrxoRtwTs1kttVblHfFbBeWrd/a9ZyMcPvlrFq7RB+RldxRslTFM7Q6puY4BSve3iOijIpw6Zobl46+jVJtnWSWyOV0sp0GeNuW/xRuoXuxLRjeiZtW1REBT8Jfoiv2lY6773e9+yRnsdOTnPsZM7KrHs5Y2mDamxhbOYaZXQxJVCeCU48IeW2yLHBRASisQQ2N/6E2dW2eizUk+AU124pEPqNMaQ1MDIwu78bMwrKxxMU5qVCQrExZ2DL6GaETRrzSkOmtj8aOJHQd4f5WtVyKWN/cF59bn10LexiTziNxA37D7S0Q3knwWGa5w5eR4GKjFycorJ9Fttwr2xkuvN0w3kyyvJGDCOG0Q617cbtjGqNancre48fT2bR04YVQ5RX8Swvd9ozeYKPzds/kbljMb0rpU3CSnQwdnLdwGhBUkAU8bdQi12Brmpfn26vVIGICFpqe820b5Fv0dyU+DRIoJ6DO2n7rKBQ1GG4t6NUSqmPYzkqYwawKaIarBQHwH6hsxmbD53tdKbfSbf8gUDwaCx0uIbtjLuvSYevF8Tzi966HFRJykVEweskmA27Rr4jth8sMDQHTuOVk3Rg3CU1ik7ImJWx1k7R1jy4wJOV6Uop2rVzuHAGMqLUkJ/R7zK3mLay9e7OmX5M1wh60rZ01lXhh1izcG3DYs9jp3o+cKbXsZP5By532D3jnm1Yh0GubYrGGH1/D2kE4oiRoKqqrE5qKvT8NjhfBQq1HVBXDetlNTViC+AYJrO+PQMeOJOYjxQOMaQ1NBDM/hMAFlCkyAthn8VCxt2gDDWGMDqfsd1vrETlnnhwX0jM/EbjCjloSinHHHzTJXJ8ram1Hq219NZvNKYoWdAqUKXoalHgG7NshrJllOxA4QoW2IsF9qH/CguXEezhr0agMrQu8i7kbcqbgPvEdbJ18FXgnMf+wGMvR+a9pmXA7N3IO4hep9jpAAIbKLpmLLjqL1+0BdyvMaaTEp6RLAIFwKVa9lsstBAvAFhfc5HqEr+Y5SLnLLiRZanxbxOnMdaKaOL3D6+YUqpe6Z/As0/GXBvVzxcNtTAKxxJPqD15hTR03EXHEocc4bj3lqJlAROwkhQt/aJGQ21AUdQ/4oAVzLcf/fZiwRUW7tSBHcs6lI5YudDQfYRWqa1CW+dv2/+Dsvtkm/qqr3psMnleaBnCsx29z6DgCO1jGlVKbvoGbvl99AQZDblNNyVFyZrEmUy1D6fiLD4fZec/LPIpzCgRY+KZm32hEKnRz2C2MGsyO2SBDsNbQwMvq2NK3f1vZBTjFO2utfwNZTOWLmvRThTtwoIr6LcPRdtRMkZlqr8yuJDQhhqrgNuQt0WuA9aVrXPf+975csstNwaA2bOgZzvzDqHgCPIO8l2LrknhLU/JZrqydgUZ1GkXqOA6aB2oxKnuEzrYEvABACkoN9w1FUQL4XTIWQK7GERUobGXJk4vmc7ild7t8MolYHYq9TC4ScZiG0Wr+06stdRbhAYMjPiG/fdw/n06YAcLd6BsCRVDeoeoEHyb/AvaPegb0ObEVbJVHmQ/bJP7ZpvAuTQDWChczTqiq2OPE+x2DOnb1FiYFaueovuBiqwNeEuIHh1LUBbMHZnCrbclfHLNzr+jsuZI0XKJZwfyhBaL6EQadyp8zZmhA97WcG8HvalhdQfLG14cVKGodJvlIZtlI0tZVLJDS3bgVYqXUBbw9Qz2DPQIzaltUK4B7gHvQmwBtrjvV935cmO+HyvH0ELjBBfMB3mg835m7KD3PopuWCUbjd5FZ5CekJsFNZJpYBUopSj843onUi4AoHht5XpkllidvnB68E5oQgZcsxHXkglmhQWSwsDAGVr9Yw/mEMsD6LAs6ymKJp9mlDEYLR+5yuAykR1Ln8qapp+Vn2UYM/Zn7ArNRd9QYxPBpN4D1rFvtk7c4naPvfM3HkMLoRw6RDfoAroa2SCAUalA8d1IeV/n96jGgIHPICdZkdqIU4RtXKa23gcASJms2aP7RKmlO7x/t0BEuZDBRluLQ5gB9kZ8waIZhldMLaO08DyM2Qyab6PocY7y9Ws64bcn6aN6b2Eax+2Oa4xrZW2xtaL6yCBqhp+hpj7qjXc+5oRjTtgMJi2kMuCGXcHfyjHTgB8pDl/JNF0x6Q0O23TShgOCJcmqpIwo1cMJ2+hsHACQ3AcdKUoWeE5CL4iQiJS9QEljbeo0yItbgv06lHVs1dok5m6lbhZlTZZSnKLEbZbHLtzWNbf9UqIHySkyjdm64zZjamR167F9zKgn27LqCD96wC3LuIQss0DaPZFmesOocKx4kCpfaggOR7VB14mNsiJjGciBXKqnvKyayBNjAFDBDLMtJUKrnQE8A9EGiahoJ6/t2yW4jXgbjTKrmAdnQdLBgg1KO7T6xwn0dl53jpeRTVGUuIl++4puZdYK53mQqdYZtklxlfIaRZ2saQozRhVV+NFjtsJO4K/ngvSkVfDKKB7Gypc6feOe0KDeaJJGozIWgHwbSKk+02ajiSUA/H5+IXoaZaKTJ55jaIZJRHTN7+G6PyQVL6Pr32RMI+ybZ5L86YFCyYzeKbydD3MLy51AQMaqDIeiww26VFM0QkvWzbY5xDLFtnpS9QU3w7aP7aMnkVnoIbco4HQeaSfzr3e2aJhlRMqoLRnX+UY92mBAbxKirMtYWmlUnOr9KBXV5e4RACr5Cssx/Hwis/vzQPuACUQyuKVv4xV+Top3Svm7pOOP4UEbW4rYAcyK5ElKrMco71AxjRplQOlvlBESsdBG0eEmtcMiWpqt6rqQDmd9YsUm7bmpLqe8gd297f3oEbcgWKaD2c3aUbguqw0tpNSxsqVu/6gnNGjS26DRWIcE1kFOnBqkn+VivZpSUsjOtppl9fYSlSVPL3hG8IOJqHgHfsmXZZsn5bdXvg7+c0z7H4LRqEKYBWcx8yUfcrfDvZ3PKCMsd6FTIuYPDiJFg4fT0NSWYEtr63QMLWOG3Yf2NPWVyXYaMd6PHu8Em+AxskEuer9ZwJCnhGSZm8pLumLcrg36jSYhyqoo8ysBhRQ13KuwSbx3bF/mM40B4OeyLmd41Rlfflw1EZkBnruZLhBRcChX+FlZ99uNsaTtk6LvYocfU9tTXK7xtGJncVf5sEgY0KGsY8U0YZQxpT8kI/B5oyZTNDinHNzAGdly1BYZjjcqvKr6qndXXWmjEX70YEHk4ChWkBHaRW4O6sZQsFBmwNEydVeMW4PDJm0Q3vM7yVgDcilq8H3+x+OfjJfZKMJjKMTPn/VApheX/6aML4lbQqW6Q6eHTmPm3hJH0rjylSV/j4sXT3EL5wF6ghYiwOi3t2fd70iUdxaRbFn5KhT+sLj/Gq5/J1sVrGwUDbNICswZQjJgGVrSobwzKqYpvdmJHkH7gEyKosJ55WIlnEGHtnE5kVUYobqW9hTNGvmOvUkReqQtCnBKXz5dmmE3M7RjMF0+WWtKnaykoSwaKgb1wUGz3sREyT2VjJUHk1HeC5liSGVz2EnoC/jqM3snsrloRourqv2Cq/uOm/tTLyf/yKurecPN9OKrc+yMGcViZFHy6uKP/YeZD/3bhkf+Y8zeT/SVD7u0f7Hx+d/NPfEzRZ6RBs8VncXcARGxHMl77luX8jPfX/fb79rsy4/OfuxycFiRQ1a8UQZ8n2F/mM7/EceDtFzksRs9KGSaR+gL7SH9Gr3b8s7vm/SK2MFyeLGVAJuiwnkZrB0tnbaSe8pMWEVF4xW3RJykPeO9mX5UQA+whQlHUYzFj2IFLhkuLA+SFoZLZjomOAQkMRMGNb6sLW0S/jamN6ZeTKNAlJKM9S8FXDLVPvHcXNxzfl7uS/ny1X31VX35Vq/6vW/61t//1h/5/W/y5d/7XJ9453N85dUX/Lp3jFmKRaaFrnn1bdPl/1Nz6f/ELn2qrnwtP313VvbDnW7/kupvv++GPWK1M5aeDfxEIoDoRsviPRl3nnQOf/+8+ffPzHbi/NZOn1n3O27ZytlTpctrweNS/h5RXqDtGbE9Suf/wv4ob2loIwbBirmS7XcSBVhwwrKpWTGt8U0GReyRkQBWFwOUosPDazR2y4VfpVMQpCTbFnFKxLOUN7pzUgSRb1EFF0gXju8AN5WG6XTEoVAacbvjChHNsVMHiGg1GiDmz5hfjr+UQ1EywpYqS1WkCl8qwwZcMuFAhDW0eXg5ES+fyPsMvHwKXn2SdMdauoZHX2Z7ecd48wsX0Yk+9c3m336X9DnrW5oRZvMVx4ste8f0/IMn7jMLOHeYA4gICFoW71L6Z6L99s1gz/NdZ/5vT6hcys91+OrmX3Lscr/04y2/6IQYM3SE3jfhv6vPw/kVSf9bOL5FSDRWWpbshvSSeECp0X+GsqmvcmkwMN4EDIE9sszLKMpwKTo8mI2WbOXQPi1LZkIxM/TXIp+kvpysieQg0sM4jiJbpWKhdEin4JFkyczAcsmy4pGOiExLUtK1hutCWeuXBg0/1VDoi0pVRRRfRaoElOJU417IpHc+t1q/83xKGgNmjnwhIJcsntVXRj4AAD6dzxMIza3zE7tChhABEXXxGnXximMRocW25c+6lZr1m9u8040f/jOFn/xDX9joa+8TxZVD6rv4TwZ+grbH0OGn6XiQYxojCvzEPLGPJBvRwYBGSqfByqW0fzwWGm4RJShj/e5AStHiFkoOTamFUqMJAClj26dc77znpScVQ4SHHdKjBTfL6coc162ldLJuqpkuuWxJ1wUc9znmJx6q4SAxf/iCUQhFUY+iiJJUbtQoKRtw4rQXWojlTYcOCez9k+SNPCA0Iz4/b6YHTCRC+yyLt1jmb0KnAVJVtKSvxs74vw9d7C+//cJ/dOneicjYRt8rpfQT6PBT5HfR+LCDPMlj5IsqHAgGzIzyab1vsiUwGhalDV2SsTTq7ShaPPyuq7pmLBV6heFnBjban21HpnwQVQXbSukdLFF0sp7BQjZzmaxksuGilIbtsOEk4nDITtjihMVeqwzVPqGqiOrH7GzE+DhVvxdaCObcGk3gYDP57ZPXEx6redxnLB3dtxZI9O5q/zJ18VZ0KyBUo3XuO73/35d7o36+/dMylIjkAL6XUl+B9RkMbWR84mPMDHdSJgyYaFlnVkzrAqMn682wCBu0OCJOtJdosVAmtaVuSZbOSgGbMcPOK982qQLiyXCcZDO0kMncdjJY9LDgVtaT8NhMc8BByG6/nYDqGHecOcIIMnxAAB1Em/8bbcRpId/CLa40ckAVaS5iuwSntROyT+TbOSO5KMmyV+3fqPTPYdmepFratvwyQNXKAf9aghqVDLz4TJJso/8YA2cY7u08Wrsf2DUKyLVTNHm+OrK2rrfFeAH0pIvLt7A9VX6I4DBFFac3HMo6te5hMYvZXGZyyHhc3IkT00nQ7oQtYxbiFgIW+5hDQHgk4AV8aC9gUmORo2ScjscmB5MiHzdMYIF56BPhaK4WnhYrq/1LlP65vG5DJ5JU28KVxdLlNRlaDb9HfofxxkRLBpxB7GmWCAM7eDtUTE2pPt4/GQnKyAAORZWbkaaubItqAFQR062EHlUBjx9moZzNfCeuZ2k2l0mPFjJY8qTtdsRB1OmonajFMZ4pRg1zGBxhDu5ahrk8wAQ1Ki36wy0N9qRIfcFGEPgc7gvGZncqCoHiuy2L16uLt6Hb0R4Atd/iueOhtkLVWp8Gv4uhjYjRXcRZRYs5YIbWVqP4We5V6tbTyrApqtyqNK6dBlgQBCrYToqtMQP0LD88+S84lHNpzePlw+dqujOT2VpOs7jscSjgcNyWDVbXWojzDCOR/aKDp0B7AQ9AaoTyyrWFeJsDO/+dRz+6YQJT0hdLbz5J6AOALn/tcVn2JKj2vnFhPW+/VTRuNcu5/o04JzUaW/76upAuwrxTnLQ1MDIPxOtTmAMPFqeo8lF5uOd3NRKAK4wfMYIUwWMZyuTYKOYwm8+VzprI1nwmmUxnPHbTXOtyyuEUcz1zI2bdHtBRdATwJqjxOrwVLSGb7CpUtT4eApfTp0nP54ypiRZAl78oY0pGec+J2m399NlNvupho7jV2B6H/UGesNEwukAyi8ElJR1avR1vmtc9vG4GZdopunxQhsuQ3kIAKh6dbTWsGJ45zKZCthdyNNORyQJd7qCpTFbdZhohR9Za3Wxxi5Jp5hQQQ4cB354BK0mN28mn5skA7Eku4mlMN6ERisXRNDebCXEugovg/cDoPUp/I/Nmln0s648FBGvSBtUr+uwv59s/JQNV+H1m/BFfamhjwSHOgEwrFAknbdVaYdmi1GdgRmTJynApqpxXMJ/2mRAGUEWPj85a3w8PHKao6mSjI1M9ONNFF+8phwVPFtIxnW62ZD9zB2YLcxqdQMcAf5IaweE2aIygnX9T7VkVQgNkiqU4PFOERVF6aLqTHqey3Opwg8cJnnFOmtPAM8JIcRLcEcQEuNmXH1v32/+pt0WeECEnoqHOr9D1rzw2NQ5pZEnWbqYHB3RobRXh4XUzeic6L0uVostDQ3Nldv8oBPhJET3BjPPDA//CXrtzriene3GqA1MeLbuw7dlgy0GegywHH505td89T0xQ43jCIugC2G8mb8S2D55IQ2Zs3NN+mQWxQhuWgteOT8VMV9hK0GWvTYE0/G757sqFf+svv3COfzLv2+n4J1q6TO+UA7dL4Sazfg3KCxjaOKApQbOalbBkhtbACOg4y0MsB965naLLeSP2j/LiOMcLACmip1GzfBD8MKsKJ5mBR6bTY1104fD7sjrAPMj7fTzHWHajU7sGDGpED7oulw0HVKk3yXmEsxMskCOrcMFisUis9jlk6rOyY1h1j6Rvgw4j6BNuZcZr7KXyW8Ce1BgkpFB8KlaHLJ+iVWsNls28Po3ZJ6NIUeYBjmy6s7MCACWq5CuG4O0U7ncW7pteR7vqosfLVmzuBM/tPA/xOsaybe+AJ0GN6n5Xz2OUA/9b+D3segIiVW2ZsKQC7UgH6bQWR8GWG+hfA26SGoUfV4vi7ZDhrVIGrzt53SvLUhtFmQeBccUA4A8UQ+gM10X2UWfVPX04/vfdyqgIyyZet/M8xOvwXaOjSWps9/vePIMdgBQgjksZIhFtA0kDiuiF46gxyLgo1VYkyRAKjACuOQHLdhkZwKUo80CA9namDEAln/rXbwWBE0Usf6k342vlnr56NJ+rTmUV8Gq8HlLqXpab0E3oAGBQ47vfTcMxV6lSHKqVolekxiFHCUlMorFS9GeZ5vUJQFxGAVCKMuf1CnIKFQMAvxC/cBA4M/c2ZvXjOV79j6/mLX9nGo134nq61ritu1bqfl4P8jqMbgCCCWqMD7peH7XpYVdpW73+ItJYjEY0xdIhIVC8ovjJu0WygE1R5wY7E/v2bnlmJgBF2tPi/5vqClIkqHSxj6QX5Nb+HcoqvDYq3Q7ez2iX5IFSnBrpoxdlX7T2OoXsKtTP1fBXdtWeDEXIEtJEBSIkYk4eYWXAoKhzMy3tvgPPYk5PAHzqNQn/NfVa60O4HGTA6cRpEAnmn6FsioqpP+hu8F6mXskckKfGO6c27PNtfNSM2fllrc3843+wZ08FF3Jt5FjswmhK7BqzAV37bQmKPu+s7xrP1flkAwBkTXH/K/buFUGwLTfVW9wfNz50uLczfZN28G6kE8mNokZ9Dr78+p9eh48d6PHV//VFnNAzwU2n8HAOOJpoL38IHUd7AVL0eXgZ9k15FnFhO82aGv9A81wQaotbmB72CdnLnZV1vEX/uIv3e5A+GQv7ilPj3oTr0Rdd/4JVdlWxd6v1V6vqaWixiTnQjdw3URzdzFy/8kiKRrfRou4b8yzjYP/uNf+O6hqBjHbCHpI+kIsLTrXV21m+SRN4B89hUdZugxr94Tb02WtfWEV2Zar16v7Obqan4VROyQufpoUAS4YBTqLDIykqnddK+mbstK7E7jVr/LOIZwiixQl6SvoG7cZ8UwycYfv+cSvPnSyHZWSBQpwWBu71bXm+nY8BADDpw2r843oS4q7Ah9mEFqIEc/PKExMUpZ6M786+G8uS3aPH/Y/3qnJfi13sKk6PfEbRAMO9nembNMjYgh77Qhn5OC0stKkZvsLG62WYHRUUt6v/q5Q35+8ZmKBI0wQbnEDEMgQOMCcAD0WtW7Qwvmk8jZ0dKYo4KeGf96R+d1nELuIM5usXNrgZbycV0ySv29Bb4w+WooWLelvQ56uvf3QwAKwVe5+Ef3327Am4now0dj8VDaITHQsIos1E9BqS9NHfk+0OALLdPvD3vZBbWlShM1wLkg2KQ0a8YcU0YZRNvG6VITLW4rTwkbdUfGee75WWCQB+WVvsHcX93+hJhb5l7vsTVwSB6NuQMNoPGBTNPrwF+45sQZ8HA+BT1or7n0U9ocoNo3MkM8LrqwTFMwz3dkGpIZY7mOMyloEqLawsSbTvznN1bi8AZfJt8f9T9AMrKuTd0wvfCbMQJdBesP/bAFJ0+9BG+K48C7utAJApzVpx/z/N+ca7amommF5Gd6MCPEPraiIGjgiuA83JsGnhJqf27tp4rtkdFQbKFPWiH35i7rNncWHuE1Wwg9EtRIC564kJinbPU6Ow9lmciSgA9LhPiLtjmnORnGvudxpJH4jWAR2GezsjOGxV+j1IF7AMqtLC0JIUO53PgliSmQWQ0p4RJxb1eOoLQoW3m/6yVaYQkYwqyJl4Iop656WjD/lePovy5BKASb8n5h4Pum3BEDqEXsj0cAfzdzrE25la24S5W6mbRFkEirTw1JdDq2I5N7E5spI8mOLoEcVt6sup16bYHDOoaHyhjJk6XHZZIkCXB3vRWJai4aeulFxj7DQ8OQaAGVNdKfr+RZyIGSrI4oeb2eIRihuUdfR2rFyKYo4xb18WKMZpYWtYZ13wAF2VShv6ire17DDsxDYZBtMN03tZpFdehh7lZ0aYCTLuZXfcHoC/MBQK+KAmylAiejBZMv8mQVHxPiO9xmnZKdWSPRww/s9EPrPIJyjqqpw5Sgc4M8yTDAAlMx7O24XAw0q/DxSRsZKihbeDhvaziif039icR01YC6ZZG/ebYMzLyZdXlpGXl8sqZM2mLzJP0w1YssxtxvHIILYXPW08yWImW6vIk7SaGZEiJGpOxC58thCJABNdc3/gaoqi5W3Weym3UOz7plEYZbJ2Hx/5NO25MQNljoi0+77cG+5PwLto/SqjtP55nu0yFlK0cNtgQx6s31ADDtEra8aQy5+Um8uYljuVkUkfyxrPPIpMovrofmSA7h/bwXaji8qoQJVtVyw0GX1KfAF8UqwbEq2Wqdmwg/iJoymJ9qL7mWuRYJKi5306r1NYDov6rBy6aBf/eEVD3GUzrnWxjBbTNACq6tsZX/Ifj/2uv3ZIF+gw/MP1po7XHcxjwBpQApQWpo+bNjJs1cixJuVH+oKhlF3IK0rOZWfLnsrJ0mX0kwyZP2vsRXUcxg4roketX7R3hWAIFsAnpyf7VDZ7oE2sVNANzmqjrw23MDr57rwe4HUfegjwU3S9L48S1Tqsqk4sw6Zpw+xZ8+6c4qbOm+u2vdxBfFBVr8EL3879mv8y08v/tm+c8Y9d/9gDJDAbDy4jR4sImmWKe9ehxqD3clgfXSl/SjdlnPSCz2saNykzK2sidTjLuBHj6TKwWUyWLEOK3BZpJ0VNtk5tOlYii0RJkaYj04vrwJgF6SJk2lQdYtnB6+N5PkPtD7HsBELJKDsgbIzylYOh4R8bHUVRlWEy3ahb5ElWKWKfiOVvs5UvGSUl5UH44rKsAlVaBJHXNKtsVjJxwoMZmKU8UmQIuui6i+da85EpktuOAp1XGV1bVN127prF5hUjEJqX1BYSHQbd4qOdqXiWyOkjvWEmfsXdvD5Oqa9SFy9V+sejB9BxtElNAYHoRFoEc9A38fkWPLwBgM+2N7h9/ujVQ0Ac1aCAqEy1Ck+XD7sLbgHgzA71cCrbo476bMvidWr/WnXxLJ67WPaiawCTYh7ue1r3rXyaaBQAukjbSNsQcNfO80frAJAhRjQnHlNzhA6gg5BlemAwpKzGB46aKsbtafW1lsXb1f7NSn0ur4f+IrpuIsU+nNBWC7JT+bSUhQNIkXxc9Ma02+T9qMhd8Vxtb2cArEV4ITHg8INtwqon+8EsARzUFPI5WOF0xbgrOOzWBgm9dY1SUvpn8LoT3f9Zz5OkGIgd2eI4NVve9eYEKsjGRWzRbk/dxOZRJbh7VsgJAPj5s+yNn+Npqy1xsmxhnEtIg1b7Q9RV0FqpxopRQ3BQo7cJoxFRsjuUkQdskIuOoU2KgRh8mfa0tFuctdHZTFwxM0zeSHOOukXZ9318cHtgVvez7PSLEo8cl/KY1ezQLrmuD8sR/3WOgwrBoKKhjAazqVJNPrUH26TWwmjKopR3CGSBSpxiJQZT3eKhmVZkL5QEm/GSdaifo7qa6rrnYbNIBAGquE/Y2S5jpW7LceYRijAuF+4mQ/xbH2x3RKoxWDsCNFWWuG/gDw7CehM0ii1K4RlHAFXAjVPsxLGtcJeN0RY/KctNLNpJe2aqq6eoYzrYYWUQZLRqqdJulZdlGvILbKpLTBeykc4gC2ZDA7+fuqDq/W72Z3sgOwNtUG/KRpMXpSjKhozC+7dTjMVxHeiUbFHWMu2jSkBKvaMeob5EWfPMVAlCTQg1uAAAPmnxfKR1xQIaPeEFuorXt4TN8nd9BIPu9I1GgsNGrY0YTcBoKp/691KAUizGvc7oroWnhVIxEiiKekzkU3vNESQPwp2NNAoByNlfp/HxWX7BLLGnrmZPwSp6QbnNctV7h4Mr6O2Q3jiirJ72GQGHYjUO+i48P6AZwgAmRd8v9q7J61cBAe98dLcOALR+8WXexhcHYY5OC86AdIF2w19QOmB5561c6g2M92uDVqOxZKyPB4FiOAbPzL70xhe6WAkAPHCtv5m8wQ8h/7QZo50BWOdrsif91j27MPYxM3K0YHBAi5IZyjtWTDv05onoLhmLD5ai2I56+8q1j763b+Gw3m/61X4IeZ3j0BuGAORUW2GcpZ9fEE93+pLBhTMM93aoXILUEO+fCioDNsV8zNcXqr1eiMfRDL/8aE+BoP/EcSU3AHe15NG63YqfgSALAjNYBs7QGhhBCsTzuehqimI/WvU9Y1994wv9HMT/lxr/pEhIybaCNwgACXNNm+lgjEGYvY6furTvfVevY6eUpkpEKu+y6p1IPcDYD7jU14tnIXdbdvIt8f8p5gFVwhnc2ku3UcB2NftqvpLsoEqBOCa503v1LWf5tj/3PXP0gFMI6bTwUkVPZQwBVuwHX0ucVtfO016DAFIkb4h6rMintlOVQNjKm0GZKWsCwFg97Qvxbzy+GoR6wG6Hz/U5efz0Xn1r18MXMrcvsQCS5hrm3qfocc+KhBIxHhDOxDLuLFqEtVMYfrbnJ0ScpD1Lvpkg7mLEcN4DQEf6lXRfi1utUjDEwrWPC10PXex57NRaX3rP9GePZCwvszCQWs4o1w7OAcYIEkzEdgAGXapNaEzLpLX3SYl+0DDZro1Ul099YYp6bNcwNymq35zhRf/22O/8W8d9998AfCrjUCu+pZRj5b9K7ifjF4KQWegBO+yezD9wZaZzD0536ljnfROOSVmJBKqTeUTRYZYjLFsAbyKmA8ApHR3UWquEFV3btNSIC+yAbIvyRvLblOv+zWHbUcFFl+mrXPzWLK/453O99h/M/8a/v2HUyme2uUs52jLvbun3XMvXXNYLyvnMmV8QZYIimsKKm7NrpsvBy71PjE93+v/TnjyWPlvn4XtWnsOsbue5h9cRwJeI6QDw0lEOulm6a49OuOPkWH4mf5ihM1srtkm+1cXZTswwemJ8kXM/X139unbfVyKWvxR38P/O+JJ/0+DF/67e8/5vjSNfUa98p23le9vw89/zW+66vnKLfUDiC8+wVP47MrwtrgrC/3eu6Xr2zrnO+671OXG898nxgoNXPAQsWYe08X6IeRevo+h2dByQWA4OdZZFmS5NmZSlffKinIy1L28wU+9kPfQwZhwzGtu7qIJ1wDS9y9hp9nxNWf3GNM2er06LXvkk9sCXove/jTv4pejlh53/XuIPrsgPfgt+vL0/dLervPoyD7orvlLGN2VbVekBRPRomduWOu6e6nb4bEGgL8yDTkKqW1h2sxxmuU2pO4BatB8wYjsAsMpMEyw2wWATjLCUVZEiH1VEj1MHa5atjMBOvvBttvL5fvLKd5j5N/KF78gqb9j59yheUXzw3ibe+5q1v1qM39F7fxWA6WXlfep2gKeuYh8VnYEOoBPsLXYDBfZmEFXdwNzJai/zVpb9LHvR0URsB/fzWlqn5/1dAIBbLvfjWZ5fpcdUXSZTzIV5QgHSE3SzuBS1uom7jdchdB/PbSzb0GHAk4hdsc+1uq7gzU7/1gxvtAM8fEkrXGI3ncSuYndLgTydHbKRRLfy7L03zH7mAZbpiTEqfKdjZ2YWAQC/eHkfz7ZSpadVneoK7uZk99JL6AMzHba6ltG0e1Y389xxIHRiXCyKK1+9TzIFAfALjK8+0yuPnw/i2KKA984Cbz0dnAUUyLLYh06h21hu5rmT14NfPjLmRDa7OrZymAAAluczvhpfPbgbwwWLROpH1WVetLs5M1gn6CjeyWeybOW5ndenKP1BdBKQGBOnxLX56AUA3BLjG+/wSjet0mnv9QPPfn6k+Ha9sFFviKZ+/wzC2cHphWUAokPoXrV/gbp4Gbp5ZCwJk50F3411VhBAhW1/1sPdMdzKULcj59b5ytv7nDqWPlu90j969+a/dUDrvfWIyC4e/zykt7YiJdEt6uL5av+Od07GkNjh2/G2OawEgBRpzuH2BfcGI+ic3/+ztbzoUffyipHW5f7Wx67pb1/t3wrVK1rmDAIXaZyshRLoBuv8s0r/kluIGZGkHa7OreSzMUBFa0acLOY+fOXcw1kesTbrS+6zjwqT32DD//v0n/MLXyq+lX6DekXp4g9f/mdfYSpRUl28wLL4EsuuZKyHoI04x6fjKZwSreyWjC2MdqUSf1/5TopbvfALK2+De9tbK8+SuKbrKBDNdmf4h/7IpqKvdcqF1C/6ITpwemBFIvon1vn3eb0BMGI62CiNktI6U2eXShlYnS8y9CW1pbaX30zWfOjBjQfbbz1Z06Ri9wSvk9p4NlOaKhFtIA//sL/oDPxVk+NBsg0OrU9W4Udt+8dMcCpRQumfYZ1/40DJmA0lh957S2upRGydpKwyfcHcityi2EjW3DhZFz08ZojOjuQgQKu+lZdhwSlEBtYv4K0/c/H+4PlY2jfgeIz2p8G2+IFD6wvCvuJloAWwhejmrfNPWuZvARIUo9Gg1lEbtzJrqy5KYnozjaO3KG5Q1CmvJ2tj2zf+BkkRBJqKqzc9gYh8SvwEvn1Ffkplevl9qjdgvQLbVb1e63Oq3iD2qB8Z4gWAszLSBKIkyz22zW/z3AKYsRh4PVg6NUZz14Ie6KgcRk1a82b+4gfLt2J6nhkC5r3GXCPPbHY6ezetH27IHZsUt2GUAWNBZRXKTVqfh+0C7I/TdgV8jZCInF08W3BuoBPCICVY9qmL96uLFyExisGYjKZY0TVBa3zU6haOafuNP+E15duNGx+CoHNoYdsmDCLEr/JpodeUEJpH2Ix0E9ZDl0iFwebkq7Rcg+1ppD2I++SrOjRCDnhmwjmDbmAqEbrdOn+/0j//DyVjLQTzWEcs55ajVtg63VkDPT7F9lSXG6CoJ9/BdiuD0JvRqimLBxAgCvut+jqjHzBooDA32AS6QbAxoQQYwtAvtjxHx1NM+xpu/xDNEUDoAWcknAPsKqqAxt2iUl95fX8oSbEVffssS8uz5X3a0Ef1CzMDmgtU1/rHf4btoPPKIPhDl47TcUGAGCmLvqTwbCRERJ99XXPC60AX36zw9DTmja1X4XyE6f9D23mwOcI2oTtyJsIZwjygiHQLPPcq/Wt5PcCyLkkxFQ3opBXckmiprdNhsy1lTeo16mtTXk+2G9vlhwda1S2VSBMBAF5Vr7TyASSdpKqDH/egX7kRYevo445r5qt8TvuTTHvQtV6hch+fFY4Vc8DMwtrN6YQMk0nQNYfj9WlKPcxyDB1KUCzFac21JFtKqyiRmSlMSo+jOd9ffGe2HT3LD4/shq4yGwCKzxX2WfRZzhhgUY0f9iQ3uAXcN7r+bYCdHJOtie0y/oT9vP6JJ/w9Q+tgFx9sLWBaYVqYI+6AZxPLG26d1Z08N6MTgEkxFIMZaGkL+/zTtkjWyGJmmGo97endh2LTeiQHT03hxgYBinFzn9r4FPMhVJBqK6BX6A9WnsuYXdgmvPHfGlyHvEvjOth12p+D6zptN+jcgLYhQm5ABSlNWPCrWBbBgZOtSmfQDasjvjz7PfLanOJuPxzL/h1/57EmUgxFX7+ltcMKas5yKexf/4U1F1NfSLkxepwfnrruLoc+BACKb3Bz/1PhRUiY6jr4dCXCqz9JCSwTgvAe9B7qfXru03Ef7jUG7sGQ62V1CiIOIqo8LsSlijvyGVZ3+BSCzGFwhLn+3dH16BhgJADEUszH5qfG5u2QYyXYUn2+iFNTXyRvNoIqwWM/hpCVgkB/UPEun77xeck6VV3qgR5fgMdfs2UHzKJWih5r6qoMJgUPw1SAKkXslpFoS4aJ9gCeBIDYihztcc1pp+NZyW0I+NmOqMeLemw3UwTPDckpdN8hoD+JH6D8nMT7/RMUy9LXAlfnc2p3YasAv6Iu/r/csLypDJ6LoECyTknIWtrB20EEgJDS7+a57bRximk5sSX7Zmxhn2wAKL5Y3B3+ZBE8t8UGZxB7guKC4a1GMdC1Sn3yuwMlim3pa27fPJ7TpbdjAfgVt1bzb6c9rwgeXCDODN1iYYfhrWA/rztZ7gSyQIViXCa7r7H+p6fgeTAAeJ2Ef1nUo7aEx3KQCfuKd+cFZR28HYPDALiH50F0QMZanGJc7vadeb6NywUAjE/4l2LvHDMCj+0Ie0m6A2kWdRju7byY/czbWG2SsTSJYl1yWtB97drrDgIAUhT5lFp/6a3gmUdJF99uL1liEBR29HaByqVmvek+ogyvjBWQTbEvU+nz114vyhO2e/y6v027NqrkCSi4Yb7k0bLBe++zuPN5lzr8k7HAqAVJAyJjeRLFwLTQtbKvcuP1XgBQHHeHmn9jPIRsEVVzscVsRpokQ0YOgVz7FbwBAn4CpZH0jTuDw3Zt0Ky3KsqGLFmgEKeYmGn0xWuvTytedkxP/V+nPQvubyGKexAbSAtxILvfvV1+i2MKcZWQxTUWgkiNbl/QXl9YgUEg1Ib0NmwUilKWUQLKgAMoxcgMrszz6WsfpQD2v6fer0/W4i6nkIFkwcFLuiRuDJ1aSZ3uBkFa0CKoM7BC2KGwg7KDqmhFRVRFURkVGa6M8gjABZFiaYZPxT5H7XXYzh/zgDp/uCq3MJAJp5V0hsfjYggG5RHZb5Sd2qBWbwJGIysCxUkUu5PTtbIvvPEaDuLuWO0/AXdmwFks04h+tCRQOkZ5Z/gmN4SGT9SbWlHWdwiqUmzP8HWzz1d7zctBzD3q/PFIkeuGdZScIfIUJ21t9Y8tEQfR254RpBTzM9gYn3HjdSYc3GL939zvd12+5AzgA+yr1Sh4Hl53f/JiFAv04K+88dH1xIYDwHq1/2KRjyElF02dBplRLJygtXUpdIjXpzK3AlWKCTp8WfaN2ZJuJIAK9QU1/pH60kieS2zirJaeQv8OrRVT0I553ogOTqIYoYMa4Qw4g08SvUwQVZoLIp+Z5pzHp8dXXJADdQbrsEBgYIfWyiVhmWS55ZOBFUApZujwlGjFtOZRE9Y26eD29clalOtU10xXbD6PVOXMf+4Ke8ETFjUo69BqlGaemzD7mAND4hRLdPhBSbpAF1yqPe2RXuJ72TopmzStojeL68bvyhtmLWbJjyflIivBTKQTpVyVQ9JSpHwS9U3SgXEH0A0EgbwsmRTFGuVl44bvlaqpuWREXsREkSGidxFjVI8xY8gyZEPU/pe3C6F+mf7WDramNgjpTcgojigFICejEqeYpdMsgsJoAmArsxYgX4gAY+8yooDZDgLFVN1zgrbtf6//vf73+t/rf6//vf73+t/rf6//vf73+t/rf6//vf73+t/r/2373+t/r/+j6a34QQMMMpBJFkywKQiAAat1DhmrorH3KLOAx/GBi2wlW5GtwBVsgQt8xAMAMVpkPiZh5mLmMfP9j/97GY9rl1RHDJGUR42XroKcZiJKoizAAnsBHyqA+AHvuGSD4zB65HQzhoyutqEcQOkYFjKnCApcVCY2lEqSbJbPciwnpLuUkJSskczSKAe5bDonAPeoQZTFeTVQ235TTXumaFwwwg4h5DGjrOUss+7EnM0w8/0M4wzTjNlMM5Y8a+nZAdAJU0lWSVmhrFLuoammXJpqIVmVYi7Zgjeu9BiJIgVBVjr736VWJAvCs5JFQUayJtkYkiIixIOEgAiSQOrug6kJ3YCqReJAlBE9RaLBDDRRHsujvQ7a5t4zKFNTpxqJZwAmj9XigjEhgSUgzsWGSGjZTnIQSIsG5bp0JMfauiZYxXVxew4NoqDvGYVaNIvms7lZfcVbdKRWqQc8gKVgnmbI6PqyerL75Q9myHtRqoSCnp2t+JCIfUWvLGYlzXLKhckXu6Wze8BugA1JRrIkuGr4tOCcZGoFSSlFdR2HRBkND880whlhtAHJpZHgyAZQvVUOZbiucS/VVknIpn3LUVAa2hCHum7W2Cyow2JYiQqlUqFxUz+gvVZgjXiaKJMF4XoVPe9xcCybU48b48lZSFDlL2rKyh+V2V1aq8zm9FnPDtfTc2mXFntYwgFPr9nTixYLawKQA5YEkwanDD8qGBcsAy6FH/Eh7Yp2MO9kGmE0L/1tiXo1cHqmulGrqJlacnsOhOtlqIX52LxhFp6aiGIKBCRAQzJdopblOQtbSXuOg7s1NKtOghNodtRyqujsguFL5px+LLMrqSG9lWGMK8HdzFyavWocLrXj0uZCmXAmSdYFM++r+x6D48CCxKFIA35OF2c/10HmQaa0JIRIvbmxXPqA1tYIzamqGm4OPH9tzO+OGZuZxUPNSiU+JuzZmp2JnZ6nvRsCYdawE9Indwugrs5XKgi+zDxb3lBKs671srpeFMJM3Fz79aVsyx9a99mFsRsgI7hicJ/u2wwujaB6mXgmzg5FT+fsQpreBZB6UT21k1aMW8La0gAIMhDB5sYJY0dnNZw2opmEx0rZ1CosSGeKdUU1BJuKM7vrZMsimfqNct//1u7B+zQX+FvO/bss/gr0NVC9Dd1xBvxnYe7fXVvwX/K+S7a+pmBEDnCAdcEl3Tdr/svXjKD6i4QZ2xQ99/YZLfuNnABlsCOWtsWjRLMAQuWRRyvTGbW8UiMjK5fqcJRviVjYFrGuVg1B7/EQp3ctKBsWc1OzsQ7/cxjwH5jvz1H2KMQcVK/1dbfka8X5/ixb9P+FwDXb2HSlNTISlRTuQff9Ojc9OFCl+g2EObtVXszZx1R/isiM9YM54DXAM1o7qoaQy/ddlRbnWmqL0dKcjdNpOXuJRJoGwWfZMrRY6BhND7pDVoTuYuA32e/v6H0MN0b1Xl93r7vf322UP1bWVt0xkWiTXhU+bnD7Em1U/xlJricrfhnXGKCROMkdr1/y0yQ/XzIagtfTqlEj6kj7DpTeBHfphEZRB9oYHplhy7pWLoezynX6JgLPo/j/UfYI9A1Qg9TvO6XfLA38Ril4oyrmGrb4CKkZg6OCC+OpQQImo1/llSImpMphk8AnbEO4IvFnIpuGK8ETdWpDrSkX1VKbcTqvpbXw8gyeaqFO9MbJmOBzjUyKDZQ/gZKvInAdzdRAP7nyil38lWLlBfvGmsOTAvLCF55ZskoN9vtCg4+KeFhqIx6e5ECwQfgzMK4KrkENdOA2q+iBRpdLamxcptpYunGCB79+B3S1Qf1dMUa7T+9T8D9LsQA14L9eealSebGir7kyNRyA8xlCE8B8OzVgrflrcPghvfxTajkVjpXe/2qQn4dsERqQGu70JEqyfuUSGqsyokSaCs8e2ZnWmD6wYHvU7rHyIoM30UwNekzg+WrlRVtbdWSibhJndeGpz6AG3WbEo8HhJ7T2R1LTUtW6PdlHXz7GFSH9ITXo8ixKYiZWLpkZdw8ZGA6Pz7E0zsi9VUE+OXRbg9fxYNTgHyrwgm2sus11+eDXBRYlFWroUtdC7beDg69IXWyry2duTvzFkmsRfQI18HIDMskgicyowe+qT4UhgoPyaYLPuf/9N7VVyp5kgmLu6mtqbGlzreLH1fmLJN9ODf879ebXofbLRjkN2LV7+k0Ll4tsHC5KDb96rDUaKIW5CkZOGAxRHKkzs5zbobHOMWSKYqH6mrPzWn2G5l9Vek+KzPC99ObPofbzRpycVJvjbRS+7OZhksywWh+mS2HOzohGCGJ5ldJQ9zAIQZCCQCbJCrEQA5Nrks5p/o3P+wO8msxRqqQ3/9MGXzHKqbaavneT8IotW4NklpVnL5W8jGHI54N4qKEEgSMI8DGwAFLJNEXFXtlQDlEdUPi/fg4FeLnghEkQUNSaf2nN10RcbK/uyTYlXqG4VXGsaQRkQRmkLiwibfVSiKgM/RQUqHKX6pS/DArJRFkLZcpDj6ny7X/N5yf5/cLvJ9MEyh8aar8j4nq8ykm2KF4FslVIJjpGpX2lLfskQKtKiKpccbQuER3TshOW7TwEmWqzdadl2W5OIWo3OBLg+X6eanBfyjxIKqs3f9Wan0ll4kTJ2eHVw83AsWaCMW00WMrys+LN1wciG8MlmN+gQ6gzWHeBj0Amq3Zi223wCSfHlwj4jX4f0P2vFJnpLWntH7Xmd19KErzLNSEbRJJkrt3QNRoVkKyEaoV6UhjENlQPG9l0b8u6A2lHVZ2RTNe603QcttSp8bohPufzTo2fSopkri+otb/Tm7ukqs+1AXHdYhCQyerRhbKJhmRFbTOxGIL4jrmkmx+bQ3Aco20vyHwnOw9ZaUdhlN/4vDvoj0lWyGTjIo5pza80nX+4a7asQaabRZ2jcgKJihxzU107uwjhLK5/9IoPOHgMb25CpIzpOHWSHX5JQK8UnCPTBRy93LvN5s/rVv7EZL7lWUoiFgFJytnnwPl3gxj/qCXnMva9f0tdJWlG+2G7v2Y7+yJl5WaQmg+VydmQshvVukRNCEMunksbSFJisQDVEMSYKpvjJfozD69dMWsDcEwIqBrcpOm1zrO/cr+0yAYwHwNjy/WGDeZ2nwqPZUbQIUMyFpCgyOx4zn92UaIajNPm+geFH8/yhimexHwk1zQ+qvFhNr2a8Qqkn8Fk01nQ9Rv3rjnc8bf+e8qMyvMoV/0kKLNh/hBNEGOqiP+nB/YbA3Eul9WfT2YebNMByga/DfEag5vjt5X5WuzJbEJ4Np+bN1l3HWaS1JpUzowwfSoTjZGcjP1ENjtCosRv4H7sEyigzVH8Saysm/x9mo3gbIj3a3xVskx8hOw3IvPVeBCTmTdbN53bi50kkipIrbabEfJDfhTLAlKTY+gYiBTE+Hn5v324b/6YqBL3Sln/uazOQcVkJun8KsQbBPfEidJOIOv1sO2GueiYW/HwZnLbYYjagKzUhilZZBIrGSQmKvrUyZyAKPO3cD/6CfcLnxDRlin9ZJbXQ+4k5rJSiPfqfP2liQgbdHgXOrwTk01lnmzbfG6ucJiIaGdS6ykzQj7MUU0mMTkmnUhvJUrPy//z81/4/3uI6JavhPVfQOYHTWWSwR803vo5VPVhlrHsgJnotraZ/VvJEara/sFSOVOqtkotFpISuT6j5qezixK1g/vpT7if+4TaGBHRZin9DDIbobComUiua3xS40t7q0bp0PF9yH4TzGSAa7fqoV9fDe3suICaEYZQUQ0mKbn+T6n6BFHmHxj3XR//XWpWle+4XNYOUIxrJga3hHiHwX/j1VDuW5D3IezJROakfWs5dJjqJn3OY5mSBaU1WamEJPQ5dGxjTJSel/uNZxJ/bqg6dn3kfw4rW6FkIpK8xjc0PiyZoOrt+9HpQ8h4JczDR2D27J7HrVTjzj7YlMp3VkfRkJBo8XnD/AGizNfifvBj/nfeUAMOaC7sn03mOsjpqHkITmt8wOCX7TU8SN7Hkf9JTDaNBbJpNvfeb02jpPJxM4KRWJqFSUhOlOxW08SJ/9+H+76P+bsGxyH0yslePmv9qZpG3OAfGu8T3E81Jws+BesumIVA5nXLHNlFNaeG7MyUbkwVakelkpHSL6CT4h6F8J41aN2CDNCxyw+xuqA7qAz3mw/3c59Sl9edsRul+AtZfYuwYNC6wvRTcJ+hA1vJNGYpcoZIvifFgqs4sJZuwlpwxXE1vqXxeclsLRyHUPA5HKROgCBJRi+jr2ZGOxKuFWAsvTTAmkbtTbJRJ78DQwtdVwt6LKAQodIIxITK7lhCtrYSDsZE+8QzyQjasc4aIIQG9o1f9kefNBQEnDKsDT3maVNKuIFvHrUe1QcnnySVs5Ar/uXsP+gTP/6lT372yw5yL7bqH0p9eM7QC83yHZvxW2L2cJB1Sps/Kv1prpDMIRWqbeAF6Hdh3Ys6IRELb3XoiFMna7brfkWvGlmb/6zyWkVPq8USIf/U4I46pSGxNNqZV+H95uHuqcU+Nc+JGQndydXp4xbyBHRQ27gB0pFWSAkQYmDyexYItbkTGucy7Vu97E+O5jHkMmojarPndSafttnXFaigK/0DB1SMK6OCM3jmzeGwmAtUyRWS6cSw2tyY7wrevE40ErBqyajj3MBoqg1jEBSgWsZTqTqlhQvA2f0ovsX7uVsC9aMohu6/VRySISAjuimDpCOtWSoThEsDpSwlcJ/L+44v/eNPjnt0FVWLbxyc5XHvWeQSj1yFakW+yxhTt1oDJmeYaSRRE+BjdKVqE0YOD5FccqovxXcovu0WFerwcOREoD6LgIAGHtTFSUaykMjyU54CIDB5fu9rpftEto9rnpffPGo3p5DGZZNIAFlJYVwdKLJIP2cL4qmJ07cyRfSXp5b0wSm8+U92S90QIzhblx2xgXCQRZ3jJCNdkwe5MQ8CaMxFn5vmM9c8JrUdNeVcNstjIrFCewvVWruLR37kiCDBf83oqQEwbgNkRiYX917t3KvwftsdBOfVwqmdasXqQkB7dYNk5ImyDJ5dehJ6zihzyf095vM6Z6Qsurw4SJbjCGone4RuInQLEaF/zdgKSKqawyPN4yOTE9JDuXP7vcp+bohlr1ftVKAB5oWAdt1mulQkOZbLBGbhxvW1o0mmkCNo7ASamXMJ1YzqoiLnbKSjfuIArCWo9rIidBsRQtJMo4eXrFRzQ6gARTYPWQHO96V4w/vGDX8giuD8IXMFFQmn/JdUSUTCyTZVYNdi10N5BiCkoQ/9NLaAqeAgcDSbES6hWvH9g/McbThdFFKSjeSw2tGfDd5AZBAfZ4QzYHCuCmAy+sdFhkNe2KsA+HMUn7tOhnpB7lMAOWak2SGgfGRJImLGy1hMYHfThLI8ACBiMRN9VX0qukc7xFFdTw0X+A+mRhUAW11eFNqGAAbV8fm1O4gMMYaPIziWIiJG6zOlIrTVVgXZ78+5rkaIc+UOBuZSdTyzQz2eeRhDgsGA3CARMbMcDBBY2Gbj7IDWOBV9ZZubHOzzVmpyAZWj+lETBTFwJhKFlKQ4clgdjDXoq2iODBI/sPSGZJIIIGMA5aUIGYIxFIT37X6uq++iAIeTV3FjjhEcxHC3FxuEY4wmS0RG6zVaYE7arAsOgsPSe5TJBVQRPzlqpiCXHyIKDzCphepobEJfxx4jAwhnFLF0jhG9C9Jx5AhVTx9dkL6u26lObF9HKWzVeIl1v3SsHctmDHNLOCbpIBGx2Q+b6CmIMBU54s3GhV1Bjbt4QSw0gScxGBGnuhpbeGmZCJdkdT9V6AdQMeGJ4xKjE4nEq7RJcoixcphGD0BBDz/cZbVZtModlHfjslgkKNcg2KEOmyfGQjBWNlQiYkg9HDz11U+GWc3RuGwZzAWgyp63IBxs1FcMUlTnZmk0h0twweAYUK6ChJBupGRwHpBlUB6qKph6KKCNEQmTLYwuUN++rqJZgyiCwWEetlG7W9hwNhaw6zcLm4EJpsQaJCKmYHVCWz2aYs2uz5z0me2TUqQc6ZRkG7rA70ePUWzB2MAnh2tvgnHBdJXEX534vkjdfUyqRnBWUuJsToRptCUU7PC+Lhqe4MPBUVflYI5QlR3ee6xdaX2aO4SEUl4uEaHUX2hfUDrjyC4gl9bGhhy1okSEXUHllfUYPnmPzeFqN3xScLwK7RzVILyExG6cqkrWJVPgMFMHhbu8QK6vH6IZHN5Yt8ioWdn0FGJYPdihBuZiFxGKZLQYQo8yFNhMy+iG4MJKah6V6jGwBrzFg4SLJFcNH5NkqwAeRj/iHSLRagSXr5MzCPjDFhCKAnV9qDhHe6QrOhaH8q6mi+bgcSDHjJgVEptzypnQXNgUS2Abl6AHiS1wiClhkxQEJwUXqhCjm6lPeDlVpf100g7XKMBwbaBQgShuYH/XJLC4iIOjZJcbzYTJyAiZ9gfUzC5w4LwxGtKaPqxCHjbgWtSIjXMJVXHFgrC0TkgMJhJg1+UQWDA5bCnBacFjbVWW5uwDFaiqZEEytz2kgcI9ZnKB0B+ubRiiHRyWd6XbmoMBQ1PDm9cjOwybnWpCIH1UkIg87epP61ld7LvolMgjuPKKpGqTgsgwGaKQmBSvAxvg0HcZNhLMGh7fZRVAdkrVnk66xGUAZtg2uGiBBlK8uEaDWs4MR9l0UCyLBlB+QB7NHgvYTW6IORAShoyNlYisc06ZPMlIi7OvUfvDq8NHBV1D7UVVKsjYDdxB5qNiRzpD5pEUV3DER5QCBRu5vQcAynXYtdrhEOGb9L4G41UoUc2XGlzeHsOgsJ/9cocUhMS5qC6LYXCcDD0+9M0BpERpVMfnonb4A/c7WRgbaJlE5JAoW0dgnDbuDi+L0mllOhO+XO2PT0uZCsOl1FzUclRVQVZXkAv+tW16XH6O5AfA0nMJJ+QrSKXzO3oWMFQwxJD42kfUQemwLxDCR7sVPj6kSvWCSSCDyGHCR0OlyxVksGsmH7hBdw78JLF/DwBm15GzEhyqMTN2FIYSEZCKxIbVBXYqOrP05MiiLErFlBzvyfMtCNdWUivutiCDLucCbnaW3nETjhSHKA5lbGVuzYmbIaCCI0s/oskFG4kE2o5ch1uzbANFcPUjCK7WIv6XpStcSIZvzE47FWi4S4a9fHV3RtdCPzuebATHoYedN4SEELhclCQioRqmhcCe/HS0h6PwOCuFEYbLqcPIigKURpArzm/cytTKEVMt4QOsg2Wc6BLduanYdzgKDi/x68hcFy1YEojEgfU63NRbRwJwbsDgeLym1W8E8Yym8AfWjVAB+g8n8Y5LDhyG7gZKCbNzNp7NyaIgiNGxTCKCPxCVEthIg53bkbtvllpV6dxkl0C3Tn8zR5XRbyruXXLWZJxwpAPZSnU+jy+6hCPbmHEXu2C3gtHS8detHRbc1E1FggTXhI+tXpPgIjjPBIpkJGJVAAwf7go53pIJ3XPhbjPoVoRQ+o9iIBWp78UiJCzBkiOog+7budWjmAyuyL10uRfZsmMW2YGpqvGhan8249aSH5R/swOfWbZa9BvU+thMrbgcHOdeQRV2KnUBEgdkhXit9vnW1p2ICFA2OPHHaxgluJAcHZGJCQg4N5zEuwNdUSv8KY7cEGoQzcdCAuhXM3brUpE6Fm+MROl3UcdRezgXi5KQK/5P+pPlXRbx6hyA3SfytWp8uOg3jl0C3tvC2GTpo0pwzM1knUFXGwUXIgnAWKGtVl/BhthnREhw3vCx8atWI5jbJWJGZlqC+jj3Ym8IF5bW89GWwZ1R9DA1mACiUMcFpCIXaWgRJErUHPKi3axz8RQNuJIKaY9dyoPFvdPrOsBrP5ryaPKDe1tS7vzF6H7ORYatoipU5ArAv1OgIFmvlf0gUJgcmV3+HcH0P6/mbcCFxSmiStVQpJw7iOJ9VwyqE0xwC4OGNE8QwLCHhVSUYHavhokSqJcixzk15vU2dgkMW5f4z1QvKP59PbMD4Jk3f2Y4e1TqIy55oVJXJJH6lGS+Vo4joAhPMjgpOMEYrSIpvJbEd5TIlP7g2nKqP8V7JN5zxfNEExyPbUIrypkoLBBzhJo0N+7EbZMv9LiSEcxJtSkkSuRFqBfaxJmdEkgF15w/4+RlnhDzZnHv6vYcFfCornegUnXT5ASXIk0kma6NsgTbHnxChOi/GH6Mqx8IENFrCdY5pAjXSOonTlG8IvH+i7lgzE9UuO4kozlt6MyNPa6Jc6TBzKoHt/Wrz2KZdKQBbkUFUaIOIC8btT9n3vP1JrsGtlFpT8h4WvTbqvmRvn/BivW3/Re+rM68iwRcAyQPurcvrYVtPw7r7xGpxT7/iTh9RG0G59G6eKRiQwOp5QyJdyk+oMgFcSzeVTvi0VWZaBicMSDXpcFRaQN2v257q1nCZOlIpM3txZsobUK9BnkBJ0IHXgiu/j+Zp6Q+tJ9X53MiX2PzAliHfm/qo9TPV2suLQvBtUgAqPtSyWItXCeBDbxGpOKCc0MYI+NoBcnMt42OlELPWgvOvPcdouCBulEUg+N8pEcq9/LO3FhyXFtyhPhozlDirtebzQfS0dJjUH0Tgo32SjdHegsLpZK8btTLRiXdG1SXLugyWMf+Rdrjss6kOCjhA6LekPKYP1vp4EhLX/7NMk8s42TsHgn7i9WdhOBiQBjtccFEvAY2wK+QC9QtJckDy7us9jrbqtBtSs+iavZAkklp3DdVlZSRvESrGfdEdSutj5mTQPcGk/iQxHsumJzAzJQNR+mc0WeWSMmcQZKacpm0hcNdy36OmwbNFOpEEhLk0dVjRQhAY3NSDXPUBh3JQgIBdTRyaPz2Ua260wfvJZA4M4Ichg1Ahbwy5SLlnlTVVFXKCnYBncBWMs8YM4YsQ8YwzZS552K48ZmAguDKpBqcD9iZrygqU/d16jTxwRgdSaoqWRRckmxUIZ27df/vS+kHVMVGV0kZPKz5n8BKNUdTlOagThTAt8m6c6N1r4Q1HJS5G2lJ1m1MbTRkBI6mbp1FcLq0sZbiRsGesKuejD2Pe16+hg+kpL6FsCTbxX2hn1XqyMaNg1CpedQbkX789XOkwLMldDEk+uAFEOHNfxZdwaToNCqFZ+dKtjIuHxdGwb2ABwnu8uWqO0T26wqel5R0S3OdaORIqjYFOPFqJHO7lRQJMRlEUCX+cruVlKtBLIYMq9thtlJHNtAf8jlYHUAkxdyH1FAYx5TCMYeB5c4hlc4Dx/3qsRi4ZXJdHm2cpARt7VTUEe7zSPIa/Hy/gRpWTSfMiyR+HkQ9SKSEnABSQE5yub0a6y4n+40Fxz57FxT5VHucak61x6sJb5FTm6i7Zsve6k7B3MbcdYpwuHHgwHJHgdJSt4yqF6qlJWadCislFhMjaiXyylE78TevmtMncEkk14F/NfOgj399ydQvrybzlcXMVxQhIcx6UH91zC3X0VfXbVWzhz3dYaJeCTXwcTUBiWmrsCiSSIzum7x9fHbUpapkYlwY8Qsl1hGTTHTcziXrkktVlM7NfXs+7UQlZIPMtDDrN1u3zpctVQCLuYW596BkwjGhoTNIamKw+2mOsAiBOhJ5xcPXX2ChRAysk8ClkjwjglPNhJ4JMSTXH4qIPK8oZb2mOMawmMpf3oqHNl83S0iU2OmekCZATChwT7VL5VIT/PQlkS4xouaQd6FycNUhysa4EOIPl49JpjqO0SjJSy60k2W70/GdOecDdsgGmWt/6rfYj52WCPDc2K98FzLhC87IDATJ6S6LoTVZSYRAHfc34KEqbOroMyRw6SSblzEXeuMnklz7NyBkvbaY/fqCqNyfyWj2bCt7tlaHdEyASzP3I42AYUKlM7FaDBLURFrO0iBGVyTvGHy9Ii87+VgXQ+KCiB+YTHYco+XIknP2/aUO787bD1T/JRgmQ6XEtl4HF3Aj4GNuZ+45KJlwTTZzmC5FsXArs9bBxIkQqIPk0471ET37tdClkVw7fhWaDe2UkcDBbM7bzme9uqin7I/M1sCYx62z1UHNzTwHkfqkCSkwW4hxkKRm4/aSySdCVIIbuo7H5XKuRM+9RjIwyHRHAi0ZL3Fy3j3Ohqu7IPP1OzR33dmvPg3dCXjJfGnMEJvZcZCm+DpRm1S+iRB6t/wp9XM//PIXe962RpsP2feE8t7f6jyWCfqMtG1CP1A5//QC8y95sylhQkfMzfIIEtWh7dU5MpH4RNFlLBvXsPOz53bTEOepr8F82JAd34kOb2gQbgx5QnLJfICQ2r/GsnlbyeLt8xLQgPkoMWcsTpCs6tXOthAdhZ1Y17L3sz9822c79/RdRPAa/7fZ7DXntej8XkJ4JV1MYcEZyZzZrKrk4x2b/7bNfxjKrv7CBybNZvJsbGY2ULqCTOtq5xaZs9/gLPYLVj43y0COoq+i4jJDdwCGybjPMv/DsK2QgCCjH3EFJ4A1c0nwHLNv/cK++XeeB0b6wYKwHJgMQQM2LwwECeu4HHoSM4lKaC6an7Y4m7FxPGp+0+A1aKswF8dBFHyU7lOyPNGf5RpcXTIOFM0kcXzr4qv2rVuV+qJdU7ISlprfayqBmjgajy6CpJWjTOoTFpOZ7ThRmgdPkIgodBcry0ozse1B/oeZ8XISESEG0szUe3LJaaBsIkezLD5q37rDsnjXMxHRWB+44UXNJI7Nz5gIEleLmWRWiXjUtRNxJguiWtHD2IC+DtnDPG4q74OS80bIiioEGA/G1P3/HrfNNO7QsniPY/MO6+KTzC1UddEQuOmkeUTjaCySlUtd4Lu8hUSjgZ3YhnCE7o55i2EYNAvrLuR/ELlvEtGDqke8R2Lq/CLgrKRkEkjasnj3e1sXX2LuTlRDY0/3QKZxmaOzmKgc0lebEWONNnGo752QSsNw+nWWNwfrTnT+ADu+DYehmhE/0svVaXDN4N5RpnCHlsW77Jt3WBdfZu4HhGq8LVIEk4hh8yEhlEMKSyI5FBgjAqFZ6YQyWxhOL79XZayshRnY9zPvQ8x9ox6GanuvjB6kR+NnBndJcg0vgbRaFh98b+viK9x9SaolkyrwuSyCCQQu9AsjAwdIYxlTUqRk5nFj5vWOY3mRDwXcKxtCnZGPgEJDAyHtOAo+IlmvgqxCtQf8XL2GH9P0K923SFYaGiCPYF181rlxh3XxuUdIUq0Xt4Q6BVVocKW1wzF8ZFE5pLKlUYontQKe9ZbH8uaje/ChwFPUKawrfHgINCxsmPlSFHxc3Gcgk1TXVccbnNP9J51/flG8QQFenjtt8+87Nm/7NKQzQXVc3AE8oWlgSsPa4KxHd4ayckhnD4m0+qk4brIHhRLshFwD6wNXfocyheMAVuNDNiR1xty3aP6H4dgPCmfq/+ncpPkvbzK+4SSeSa3PsW/9yb71X7V/PdKYoDovefwckBmqShsQgZbNjdlDDiCpDbxV/ehtVJ7HMDSnHY92GwkXP7zjEJxHqczQYCanHUPe+9HpreQTofDGVzB44BMN7ttPQwGMF7cs3u/Y/J91/hulPn0PFE6UOqUdpZ2AQ2wwpbXY1YRoZwYktoS0aphuTqrDDvGIUIIdV7NymQjD5coEB3SfRdpRPHHDUJeZ+3p2/gA953gYCvsQw+cM3aT5Jsl5SbkhJPbA2f6vHZu3vhrzNsRH4Z1iE/5kN+ndfVmDCIyeE3Owy5dDequm+jSPzcVFU0B4asxrC5CGMxjciS3t++j+NnheAtteYGH9YwM+at77mfNm2FeEIhmXLOh+WOcmwX1/LVXvbo+p//eh4vtS6yv/RZLCvkqutEdoLyFL+AiOBCdnm87nomP7QpIbiNdcOIb9nhguS0FBKTSbt34NS0cQ7p2iLsN9mlmvZuYrYN8LLKxfb+48yq/v8Ha6ThCSFGGgLLii+36DOw2OSpbi9Wp7SDtjO7oZYi1FSJAiOcUhdgvtG25ju7dMcBDU5Aeax9Xm0cUNhlRXRTPRsbzje0uwJjQlLJSQks3izc/VihnNZnD/mzsOIfOVyHkTs15D+z6wBvVnn2lHmfsW/a+eF4MvCdXDfQnOG9z/pZLxXUrcenN7SBtjC1MrYAMORd4i7Qg6aiVuxaglZWigYOSoiblitdLDl2cDpLwR9qEt0FjLYuWwxsMJgVA0fvE8XByGPhyEyUZMP4ncN6Pju7B82knwMeqHbL7fnPNmubmMc1S3kepnXLIhuaD7iOCIwbhgelR9AAhEuAYYw+h6kH0qqp/lBmzSnJqpFXUlC4RAoEJDNitLYBYNgcQ3BB3aUBP98Wa25hQLuYfGuncxp3cXCjPSRAh2ylteT8d3IO8D2H/um+k4BDbEmpGpZOaoF4tcFbMq85V0n4Z1G6keA3nBtTf5fMFpw5cky+MjA8i9PiljkNGxa0kJ5FA9NqEbvVQr3dCPyGEj3RNQsnjMiPoxJVmYFZAET0i1VmiJVbFme6VgqKtKY6wBzUj1TGPFOgpC2HxM10l0eCfzP4Iun0CXT6LTO+k6Bf1k1iJXVcrnqZdol0UuF7UsarWIvZameg5U9yO4ZPis1IXdCk+cXFIMVxKIcrWh21GtH98M2ohTPb+xvTa5+5ftTF2iNBnhqlI1q0V1ed4zAiTkiwOkw9MP7hhr7xJZZ62RjEym13QzCzrBSgEVxXh3VptuIoLYxGa3NRAeyRVMffqGvDpbkaUvv8XUydhnGbNNG3YJJ8hcdGXsYrI9FCupDlIfSrbX2QLW2bgSPHL83gTXBVcl1w1PgWalF1YQ5IDiJMCtBWAgfsC/U1QduuFJmRISmSLIS5zJ1BBHZ9PuF0ii3dPiMlw2dh1kxUAnaGyghIbFsLjoziKJ4eHJjHJIjXlNT0U3t/vBGcjBXnpnwMONrr6M3F5fQRrTULRiKJ7OjuBEePIozSFMVShcxs3YZmyzs01Zp7jcBblieG26EjOPrWIWMItHL4ypRDnKqBhXgCfHRwmWpWekFqSXpDKrS2dBhX8ILoNsaTuB8gKeVZEQ2A/yov1vklhqWDs15PLqLVK4DJZhz6ALOjK4ARYaXR1g8TCyaKzKaYPcyag/YTxurBxS5YkDBhjsfAY2xKzqq1xUnuymhtouqtRkePw/kO+nPkx1gGI/2d7b9bX3CZX3DyAISih+ndcphiimRv3DEUcGipPjk2ksISLB1FGgSpxMkSMLM8kS9jXKEo22arPJMnevl1OyDYaUQ4JPUu/4YLuyizFVN/KOpHIQ41Osinho2/73+t/rf6//vf73+t/rf6//vf73+t/rf6//vf73+t/rf6//vf73+t/rf6//vf73+t/rf6//o6MB;" parent="3" vertex="1">
                    <mxGeometry x="213" y="104" width="124.76" height="65.5" as="geometry"/>
                </mxCell>
                <mxCell id="39" value="&lt;font color=&quot;#000000&quot;&gt;EC2&lt;/font&gt;" style="text;html=1;align=center;verticalAlign=middle;resizable=0;points=[];autosize=1;strokeColor=none;fillColor=none;fontSize=14;fontColor=#FFFFFF;" parent="3" vertex="1">
                    <mxGeometry x="101.25" y="154" width="40" height="20" as="geometry"/>
                </mxCell>
                <mxCell id="32" value="" style="shape=image;imageAspect=0;aspect=fixed;verticalLabelPosition=bottom;verticalAlign=top;image=data:image/svg+xml,PHN2ZyB4bWxucz0iaHR0cDovL3d3dy53My5vcmcvMjAwMC9zdmciIHhtbG5zOnhsaW5rPSJodHRwOi8vd3d3LnczLm9yZy8xOTk5L3hsaW5rIiB2ZXJzaW9uPSIxLjEiIGlkPSJMYXllcl8xIiB4PSIwcHgiIHk9IjBweCIgdmlld0JveD0iMCAwIDg4Mi43IDY4OC42IiBzdHlsZT0iZW5hYmxlLWJhY2tncm91bmQ6bmV3IDAgMCA4ODIuNyA2ODguNjsiIHhtbDpzcGFjZT0icHJlc2VydmUiPgo8c3R5bGUgdHlwZT0idGV4dC9jc3MiPgoJLnN0MHtmaWxsOiNGRkZGRkY7fQoJLnN0MXtmaWxsOiMwMDk5MDA7fQo8L3N0eWxlPgo8cGF0aCBjbGFzcz0ic3QwIiBkPSJNNTA2LDY4OC42Yy0xMS4zLDAtMjEuNy00LjQtMjkuNC0xMS41Yy04LDcuMS0xOC4xLDExLTI4LjUsMTFoLTAuNWMtMTEuMi0wLjItMjIuMi01LTMwLjItMTMuMyYjMTA7JiM5O2MtOC4xLTguMi0xMi42LTE5LjMtMTIuNS0zMC40di00LjVsLTExLjgsMjMuOGwtNSwxMC4xYy00LjIsOC42LTEzLDE0LjEtMjIuNywxNC4xSDI2NC45Yy05LjEsMC0xNy41LTUtMjItMTIuOGwtNS4xLTkuMiYjMTA7JiM5O2wtMTMuNi0yMy45djNjMCwyMy44LTE5LjQsNDMuMi00My4yLDQzLjJjLTExLjYsMC0yMi40LTQuNS0zMC42LTEyLjdsLTYzLjktNjMuOVY2NDVjMCwyMy44LTE5LjQsNDMuMi00My4yLDQzLjJTMCw2NjguOSwwLDY0NVY1MDcmIzEwOyYjOTtjMC0xNy41LDEwLjUtMzMuMiwyNi43LTQwYzUuMy0yLjIsMTAuOC0zLjMsMTYuNS0zLjNjMTEuNiwwLDIyLjQsNC41LDMwLjYsMTIuN2w2NCw2NFY1MDdjMC0yMy44LDE5LjQtNDMuMiw0My4yLTQzLjImIzEwOyYjOTtzNDMuMiwxOS40LDQzLjIsNDMuMnYzLjdsMTMuNC0yNC4zbDQuOS05LjFjNC40LTguMSwxMi45LTEzLjMsMjIuMi0xMy4zaDEwNC43YzkuNywwLDE4LjQsNS41LDIyLjYsMTQuMWw1LDEwLjImIzEwOyYjOTtjMC4zLDAuNCwwLjQsMC45LDAuNiwxLjNsNy4zLDE3LjVjMC0xMSw0LjUtMjEuOSwxMi41LTMwYzguMS04LjMsMTkuMS0xMy4xLDMwLjItMTMuM2gwLjVjMTAuNSwwLDIwLjksNC4xLDI5LDExLjUmIzEwOyYjOTtjNy42LTYuOSwxNy44LTExLjEsMjguOS0xMS4xYzIzLjgsMCw0My4yLDE5LjQsNDMuMiw0My4ydjMzLjVsNjQtNjRjOC4xLTguMSwxOS4xLTEyLjcsMzAuNi0xMi43YzUuNywwLDExLjIsMS4xLDE2LjUsMy4zJiMxMDsmIzk7YzQuNSwxLjgsOC42LDQuNCwxMi4xLDcuNmM3LjktNy4xLDE4LTEwLjksMjguNy0xMC45YzExLjUsMCwyMi4zLDQuNCwzMC42LDEyLjZsMzguNiwzOC40bDM4LjYtMzguNGM4LjItOC4xLDE5LjEtMTIuNiwzMC42LTEyLjYmIzEwOyYjOTtjMTEuNiwwLDIyLjUsNC41LDMwLjYsMTIuOGMxNi45LDE2LjksMTYuOCw0NC40LTAuMSw2MS4ybC0zOC40LDM4LjJsMzguMiwzOC4xYzE2LjksMTYuOSwxNyw0NC4zLDAuMSw2MS4yJiMxMDsmIzk7Yy04LjEsOC4yLTE5LjEsMTIuOC0zMC42LDEyLjhjLTExLjYsMC0yMi40LTQuNS0zMC42LTEyLjdsLTM4LjQtMzguM0w3MzIsNjc1LjZjLTguMSw4LjEtMTksMTIuNi0zMC42LDEyLjYmIzEwOyYjOTtjLTEwLjQsMC0yMC42LTMuOS0yOC41LTEwLjdjLTcuNiw2LjktMTcuOCwxMS4yLTI5LDExLjJjLTIzLjgsMC00My4yLTE5LjQtNDMuMi00My4ydi0zMy41bC02NCw2NCYjMTA7JiM5O0M1MjguNSw2ODQuMSw1MTcuNyw2ODguNiw1MDYsNjg4LjZMNTA2LDY4OC42eiBNNjg3LjIsNTk4bDIxLjktMjEuOGwtMjEuOS0yMS44VjU5OHoiLz4KPHBhdGggY2xhc3M9InN0MSIgZD0iTTE4MS4xLDY2My4xYy00LjcsMC05LjMtMS44LTEyLjgtNS4zTDYxLjMsNTUwLjd2OTQuM2MwLDEwLTguMSwxOC0xOCwxOHMtMTgtOC4xLTE4LTE4VjUwNyYjMTA7JiM5O2MwLTcuMyw0LjQtMTMuOSwxMS4yLTE2LjdjNi44LTIuOCwxNC41LTEuMywxOS43LDMuOWwxMDYuOSwxMDdWNTA3YzAtMTAsOC4xLTE4LDE4LTE4YzEwLDAsMTgsOC4xLDE4LDE4djEzNy45JiMxMDsmIzk7QzE5OS4yLDY1NC45LDE5MS4xLDY2My4xLDE4MS4xLDY2My4xIE0yNjQuOSw0ODkuMmwtNSw5LjNsLTM4LjQsNjkuOGwtNSw4LjhsNSw4LjhsMzguNCw2Ny42bDUuMiw5LjJoMTAwLjZsNS0xMC4ybDI4LjctNTcuOSYjMTA7JiM5O2wxMi45LTI2LjJoLTI5LjFsLTczLjQsMC4zYy05LjYtMC4yLTE4LjQsOC42LTE4LjQsMThjMCw5LjYsOC44LDE4LjIsMTguNCwxOGw0NC4zLTAuM2wtMTAuOCwyMS45aC01N0wyNTgsNTc2LjdsMjguNS01MS41aDYwLjYmIzEwOyYjOTtsMTQuMSwyOWgzNi40bC0yMi45LTU1bC01LTEwLjJIMjY0LjkgTTQ0OC4xLDQ4OC45Yy05LjUsMC4xLTE4LDguOC0xNy45LDE4LjN2NDcuMmgzNi4ydi00Ny4yQzQ2Ni41LDQ5Ny42LDQ1Ny43LDQ4OC43LDQ0OC4xLDQ4OC45JiMxMDsmIzk7IE01MDYuMSw2NjMuNGMtMTAsMC0xOC04LjEtMTgtMTh2LTEzOGMwLTEwLDguMS0xOCwxOC0xOGMxMCwwLDE4LDguMSwxOCwxOHY5NC4zbDEwNy0xMDdjNS4yLTUuMiwxMi45LTYuNywxOS43LTMuOSYjMTA7JiM5O3MxMS4yLDkuNCwxMS4yLDE2Ljd2MTM3LjljMCwxMC04LjEsMTgtMTgsMThjLTEwLDAtMTgtOC4xLTE4LTE4VjU1MUw1MTguOSw2NTguMUM1MTUuNSw2NjEuNSw1MTAuOSw2NjMuNCw1MDYuMSw2NjMuNCBNNzk2LjEsNTc2LjImIzEwOyYjOTtsNTYuMi01Ni4xYzcuMS03LjEsNy4xLTE4LjUsMC4xLTI1LjZjLTcuMS03LjEtMTguNS03LjEtMjUuNi0wLjFsLTU2LjMsNTYuMmwtNTYuMy01Ni4yYy03LjEtNy4xLTE4LjUtNy4xLTI1LjYsMC4xJiMxMDsmIzk7Yy03LjEsNy4xLTcuMSwxOC41LDAsMjUuNmw1Ni4yLDU2LjFsLTU2LjEsNTUuOWMtNy4xLDcuMS03LjEsMTguNS0wLjEsMjUuNmMzLjQsMy40LDgsNS40LDEyLjgsNS4zYzQuNiwwLDkuMi0xLjgsMTIuOC01LjNsNTYuMi01NiYjMTA7JiM5O2w1Ni4yLDU2YzMuNCwzLjQsOCw1LjMsMTIuOCw1LjNjNC42LDAsOS4zLTEuOCwxMi44LTUuM2M3LjEtNy4xLDcuMS0xOC41LTAuMS0yNS42TDc5Ni4xLDU3Ni4yeiBNNDQ4LjEsNjYyLjkmIzEwOyYjOTtjLTkuNS0wLjEtMTgtOC44LTE3LjktMTguM3YtNzUuN2gzNi4ydjc1LjdDNDY2LjUsNjU0LjIsNDU3LjcsNjYzLDQ0OC4xLDY2Mi45Ii8+CjxwYXRoIGNsYXNzPSJzdDAiIGQ9Ik02MTQuMSw0ODguNGMtMTguNy0wLjItMzYuMy03LjUtNDkuNC0yMC43TDMzOC4yLDI0MS4zdjE3Ni40YzAsMzguOS0zMS43LDcwLjctNzAuNyw3MC43cy03MC43LTMxLjctNzAuNy03MC43JiMxMDsmIzk7VjcwLjdjMC0yOC43LDE3LjEtNTQuMyw0My42LTY1LjNjOC42LTMuNiwxNy43LTUuNCwyNy01LjRjMTguOSwwLDM2LjcsNy40LDUwLDIwLjdMNTQ0LDI0Ny4xVjcwLjdDNTQ0LDMxLjcsNTc1LjcsMCw2MTQuNiwwJiMxMDsmIzk7czcwLjcsMzEuNyw3MC43LDcwLjd2MzQ3LjFjMCwzOC45LTMxLjcsNzAuNy03MC43LDcwLjdINjE0LjFMNjE0LjEsNDg4LjR6Ii8+CjxwYXRoIGNsYXNzPSJzdDEiIGQ9Ik02MTQuNiw0NjMuMmMtMTEuOCwwLTIzLjUtNC42LTMyLjItMTMuM0wzMTMuMSwxODAuNXYyMzcuMmMwLDI1LjItMjAuNCw0NS41LTQ1LjUsNDUuNXMtNDUuNS0yMC40LTQ1LjUtNDUuNSYjMTA7JiM5O3YtMzQ3YzAtMTguNSwxMS4xLTM1LDI4LjEtNDIuMXMzNi42LTMuMiw0OS42LDkuOWwyNjkuMywyNjkuNFY3MC43YzAtMjUuMiwyMC40LTQ1LjUsNDUuNS00NS41YzI1LjIsMCw0NS41LDIwLjQsNDUuNSw0NS41djM0Ny4xJiMxMDsmIzk7QzY2MC4xLDQ0Mi45LDYzOS44LDQ2My4yLDYxNC42LDQ2My4yIi8+Cjwvc3ZnPg==;" parent="3" vertex="1">
                    <mxGeometry x="236.98000000000002" y="34" width="76.8" height="60" as="geometry"/>
                </mxCell>
                <mxCell id="6" value="&lt;font style=&quot;font-size: 14px&quot;&gt;Private subnet&lt;/font&gt;" style="points=[[0,0],[0.25,0],[0.5,0],[0.75,0],[1,0],[1,0.25],[1,0.5],[1,0.75],[1,1],[0.75,1],[0.5,1],[0.25,1],[0,1],[0,0.75],[0,0.5],[0,0.25]];outlineConnect=0;gradientColor=none;html=1;whiteSpace=wrap;fontSize=12;fontStyle=0;container=1;pointerEvents=0;collapsible=0;recursiveResize=0;shape=mxgraph.aws4.group;grIcon=mxgraph.aws4.group_security_group;grStroke=0;strokeColor=#147EBA;fillColor=#E6F2F8;verticalAlign=top;align=left;spacingLeft=30;fontColor=#147EBA;dashed=0;" parent="1" vertex="1">
                    <mxGeometry x="158" y="570" width="393" height="190" as="geometry"/>
                </mxCell>
                <mxCell id="40" value="RDS" style="text;html=1;align=center;verticalAlign=middle;resizable=0;points=[];autosize=1;strokeColor=none;fillColor=none;fontSize=14;fontColor=#000000;" parent="6" vertex="1">
                    <mxGeometry x="96" y="140" width="50" height="20" as="geometry"/>
                </mxCell>
                <mxCell id="13" value="" style="outlineConnect=0;dashed=0;verticalLabelPosition=bottom;verticalAlign=top;align=center;html=1;shape=mxgraph.aws3.rds;fillColor=#2E73B8;gradientColor=none;" parent="6" vertex="1">
                    <mxGeometry x="85" y="54" width="72" height="81" as="geometry"/>
                </mxCell>
                <mxCell id="34" value="" style="shape=image;imageAspect=0;aspect=fixed;verticalLabelPosition=bottom;verticalAlign=top;image=data:image/svg+xml,PHN2ZyB4bWxucz0iaHR0cDovL3d3dy53My5vcmcvMjAwMC9zdmciIHdpZHRoPSIyNTAwIiBoZWlnaHQ9IjI1MDAiIHZpZXdCb3g9IjAgMCAxOTIuNzU2IDE5Mi43NTYiPjxnIGZpbGwtcnVsZT0iZXZlbm9kZCIgY2xpcC1ydWxlPSJldmVub2RkIj48cGF0aCBmaWxsPSIjZmZmIiBkPSJNMCAwaDE5Mi43NTZ2MTkyLjc1NkgwVjB6Ii8+PHBhdGggZD0iTTguNTA0IDEyOC4yMjdoNS44NDV2LTIzLjAyM2w5LjAxMyAyMC4wNzhjMS4wNyAyLjQwOCAyLjQ5OSAzLjI1NiA1LjM1NCAzLjI1NiAyLjg1NiAwIDQuMjg0LS44NDggNS4zNTQtMy4yNTZsOS4wMTMtMjAuMDc4djIzLjAyM2g1Ljh2LTIyLjk3OWMwLTIuMjMtLjg5My0zLjMwMy0yLjcyMi0zLjg4My00LjQxNy0xLjM4My03LjQwNy0uMTc4LTguNzQ1IDIuODEybC04LjgzNCAxOS43NjYtOC41NjYtMTkuNzY2Yy0xLjI5NC0yLjk5LTQuMzI4LTQuMTk1LTguNzQ1LTIuODEyLTEuODc0LjU4LTIuNzY2IDEuNjUyLTIuNzY2IDMuODgzdjIyLjk3OWgtLjAwMXpNNTMuNzQ2IDEwOS40ODZoNS44djEyLjY3MmMtLjA0NC43MTMuMjIzIDIuMzIgMy40MzYgMi4zNjUgMS42MDYuMDQzIDEyLjUzNyAwIDEyLjYyNiAwdi0xNS4wODJoNS44NDVjLjA0NCAwIDAgMjAuNTY4IDAgMjAuNjU4LjA0NCA1LjA4Ni02LjI5MSA2LjE1Ni05LjE5MSA2LjI0Nkg1My44OHYtMy45MjZzMTguMzM4LjA0NSAxOC4zODIgMGMzLjc0OC0uMzU3IDMuMzAyLTIuMjMgMy4zMDItMi44NTV2LTEuNTE4SDYzLjIwNWMtNS43NTYtLjA4OC05LjQxNS0yLjU4OC05LjQ1OS01LjQ4OCAwLS4yNjcuMTM0LTEyLjkzNyAwLTEzLjA3MnpNMTc5LjA3NiA5NC44OTZjLTMuNTY4LS4wODktNi4yOTEuMjIzLTguNjU2IDEuMjQ5LS42NjguMjY4LTEuNjk1LjI2OC0xLjgyOCAxLjExNi4zNTcuMzU1LjQ0NS45MzYuNzEzIDEuNDI4LjU4Ljg5MyAxLjUxOCAyLjA5NiAyLjM2NSAyLjcyMS44OTMuNzE1IDEuODMgMS40MjggMi44MTEgMi4wNTMgMS43ODUgMS4wNyAzLjc0OCAxLjY1IDUuMzk4IDIuNzIzIDEuMDI3LjYyMyAyLjAwOCAxLjQyOCAyLjk5IDIuMTQxLjQ0NS4zNTcuODAzLjg5MyAxLjM4MyAxLjExNXYtLjA4OGMtLjMxMi0uNDAyLS40MDItLjk4Mi0uNjctMS40M2wtMS4zMzgtMS4zMzhjLTEuMjkzLTEuNjk1LTIuOTQ1LTMuMjEzLTQuNjg2LTQuNDYxLTEuMzgzLS45ODItNC41MDYtMi4zNjUtNS4wODYtMy45NzEtLjA0NS0uMDQ1LS4wOS0uMDQ1LS4wOS0uMDkuOTgyLS4xMzUgMi4xNDMtLjQ5IDMuMDM1LS43MTUgMS41MTgtLjQgMi45LS4zMTIgNC40NjEtLjcxMy43MTUtLjIyNCAxLjQyOC0uNDAyIDIuMTQzLS42MjV2LS40MDJjLS44MDMtLjgwMy0xLjMzOC0xLjkxOC0yLjIzLTIuNjMyLTIuMjc1LTEuOTYzLTQuNzc1LTMuODgyLTcuMzE4LTUuNDg4LTEuNDI4LS45MzctMy4xNjgtMS41MTctNC42ODQtMi4yNzUtLjQ5Mi0uMjIzLTEuMzg1LS4zNTctMS43NC0uODAzLS44MDUtLjk4Mi0xLjIwNS0yLjI3Ni0xLjgzLTMuNDM2YTEyMy40NSAxMjMuNDUgMCAwIDEtMy42NTgtNy43NjRjLS43NTgtMS43NC0xLjI5NS0zLjQ4LTIuMjMtNS4wODctNC42NDEtNy41ODUtOS41OTQtMTIuMTgtMTcuMzEyLTE2LjY4Ny0xLjY1LS45MzctMy42MTMtMS4zMzgtNS43MTEtMS44MjktMS4xMTUtLjA5LTIuMjMtLjEzNC0zLjM0Ni0uMjI0LS42Ny0uMjY4LTEuMzgzLTEuMTE1LTIuMDUzLTEuNTE3LTIuNTQzLTEuNjA2LTkuMTAyLTUuMTMxLTEwLjk3Ny0uNDkxLTEuMjA1IDIuOSAxLjc4NSA1Ljc1NiAyLjg1NSA3LjIyOS43NiAxLjAyNiAxLjY5NSAyLjE4NyAyLjIzMiAzLjM0Ni4zNTUuNzU4LjQgMS41MTcuNzEzIDIuMzIuNzU4IDIuMDA4IDEuMzgzIDQuMTk0IDIuMzIgNi4wMjMuNDkuOTM3IDEuMDI1IDEuOTE5IDEuNjUgMi43NjcuMzU3LjQ5MSAxLjAyNy43MTQgMS4xMTUgMS41MTctLjYyNS44OTItLjY2OCAyLjIzMS0xLjAyNSAzLjM0Ni0xLjU2MiA1LjA0Mi0uOTgyIDExLjI0NCAxLjMzOCAxNC45OTEuNzE1IDEuMTE1IDIuMzY1IDMuNTY5IDQuNjg2IDIuNjMzIDIuMDA4LS44NDggMS41NjEtMy4zNDcgMi4xNDEtNS42MjIuMTM1LS40OTEuMDQ1LS44NDguMzEyLTEuMjA1di4wODljLjU4IDEuMjQ5IDEuMjA1IDIuNDU0IDEuODMgMy42NTggMS4zMzggMi4xODcgMy43NDggNC41MDcgNS44MDEgNi4wMjMgMS4wMjUuODAzIDEuODczIDIuMTg3IDMuMjU2IDIuNjMydi0uMDloLS4xMzNjLS4yNjgtLjQtLjY3LS41NzktLjk4Mi0uODkyLS44MDMtLjgwMy0xLjY5NS0xLjc4NS0yLjM2NS0yLjY3Ny0xLjgyOC0yLjQ5OS0zLjQ3OS01LjI2NS00Ljk5Ni04LjEyMS0uNzE1LTEuMzgzLTEuMzQtMi45LTEuOTE4LTQuMjgzLS4yMjUtLjUzNS0uMjI1LTEuMzM4LS43MTUtMS42NTEtLjY3IDEuMDI2LTEuNjA1IDEuODc0LTIuMTQzIDMuMDc5LS44MDMgMS45MTktLjkzNiA0LjI4My0xLjIwMyA2LjY5My0uMTguMDg5LS4xMzUuMDQ0LS4yMjUuMTM0LTEuNDI2LS4zNTctMS45MTgtMS44My0yLjQ1My0zLjA3OS0xLjI5My0zLjE2OC0xLjU2Mi04LjI1NC0uNDAyLTExLjkxMy4zMTItLjkzNyAxLjY5Ny0zLjg4MiAxLjExNy00Ljc3NC0uMjctLjg0OC0xLjExNy0xLjM4My0xLjYwNy0yLjA1Mi0uNjI1LS44MDMtMS4yMDUtMS44NzQtMS42NS0yLjgxMS0xLjA3LTIuNDk5LTEuNTYyLTUuMjY1LTIuNzIzLTcuNzYzLS41OC0xLjIwNS0xLjQ3MS0yLjQxLTIuMjMtMy40MzYtLjg0OC0xLjIwNS0xLjc4NS0yLjA1Mi0yLjQ1My0zLjQ4LS4yMjMtLjQ5MS0uNTM1LTEuMjk0LS4yMjMtMS44My4xMzMtLjM1Ny4yNjgtLjQ5MS42MjMtLjYyNS41OC0uNDQ2IDIuMjMyLjE3OSAyLjg1NS40MDEgMS42MDcuNzE0IDIuOTkgMS4zMzkgNC4zNzMgMi4yNzYuNjcuNDQ2IDEuMzQgMS4yOTMgMi4xNDMgMS41MTdoLjg5M2MxLjQyOC4zMTIgMy4wMzMuMDg5IDQuMzcxLjQ5MSAyLjM2NS43MTMgNC41MDYgMS44MjkgNi40MjYgMy4wNzkgNS44ODkgMy43MDMgMTAuNjY0IDguOTY4IDEzLjk2NSAxNS4yNTkuNTM1IDEuMDI2Ljc1OCAxLjk2MyAxLjIwNSAzLjAzNC45MzggMi4xODcgMi4xNDEgNC40MTcgMy4wNzggNi41MTQuODkzIDIuMTQyIDEuODMgNC4yODQgMy4xMjMgNi4wMjMuNzE1LjkzNyAzLjM5MSAxLjQyOCA0LjU5NiAxLjkxOC44NDguMzU3IDIuMjMuNzU4IDMuMDM1IDEuMjUgMS41NjEuODkyIDMuMDMzIDIuMDA4IDQuNTA2IDMuMDM0LjcxMi40OTYgMi45NDIgMS42MTEgMy4wMzIgMi41NDh6IiBmaWxsPSIjMDA2NzhjIi8+PHBhdGggZD0iTTEzMy41NjYgNTYuMTI0YTcuNTkgNy41OSAwIDAgMC0xLjgyOC4yMjR2LjA4OWguMTMzYy4zNTcuNzE0Ljk4MiAxLjIwNSAxLjQyOCAxLjgyOS4zMTIuNzE0LjY3IDEuNDI4Ljk4MiAyLjE0MmwuMTMzLS4xMzRjLjYyNS0uNDAxLjg5My0xLjExNS44OTMtMi4yMy0uMjIzLS4yNjgtLjI2OC0uNTgtLjQ5LS44OTMtLjMxMy0uNDQ3LS44NDgtLjY3LTEuMjUxLTEuMDI3eiIgZmlsbD0iIzAwNjc4YyIvPjxwYXRoIGQ9Ik04NS45NiAxMjguMjI3aDE2LjczMWMxLjk2MyAwIDMuODgxLS40MDIgNS4zOTgtMS4xMTcgMi40OTgtMS4xNTggMy43NDgtMi43MjEgMy43NDgtNC43NzN2LTQuMjgzYzAtMS42NS0xLjQyOC0zLjI1Ni00LjE0OC00LjI4My0xLjQ3My0uNTgtMy4yNTgtLjg0OC00Ljk5OC0uODQ4aC03LjA0OWMtMi4zNjUgMC0zLjQ4LS43MTUtMy43NDgtMi4yNzUtLjA0NS0uMTc4LS4wNDUtLjM1Ny0uMDQ1LS41MzV2LTIuNjMzYzAtLjE3OCAwLS4zMTIuMDQ1LS40OS4yNjgtMS4yMDUuODkyLTEuNTYyIDIuOTQ1LTEuNzQuMTc4IDAgLjQwMS0uMDQ1LjU4LS4wNDVoMTYuNjQydi0zLjg4MUg5NS42ODdjLTIuMzY1IDAtMy41Ny4xNzgtNC42ODUuNDktMy40OCAxLjExNS00Ljk5NyAyLjgxMS00Ljk5NyA1LjgwMXYzLjM5MWMwIDIuNjMzIDIuOTg5IDQuODYzIDcuOTQyIDUuMzk4LjU4IDAgMS4xMTUuMDQ1IDEuNjk1LjA0NWg2LjAyNGMuMjIzIDAgLjQ0NSAwIC42MjMuMDQ1IDEuODc1LjE3OCAyLjYzMy40OSAzLjIxMyAxLjE1OC4zMTIuMzU3LjQ0Ny42Ny40NDcgMS4wNzJ2My4zOTFjMCAuNDAyLS4yNjguOTM4LS44NDggMS4zODMtLjQ5Mi40NDctMS4zNC43MTUtMi40NTUuODAzLS4yMjMgMC0uNC4wNDUtLjYyNS4wNDVIODUuOTZ2My44ODF6TTE0OC4xNTYgMTIxLjQ0M2MwIDQuMDE2IDIuOTQ1IDYuMjQ2IDguOTY5IDYuNjkzLjUzNS4wNDUgMS4xMTUuMDkgMS42NS4wOWgxNS4xN3YtMy44ODNoLTE1LjI2Yy0zLjQzNiAwLTQuNzI5LS44NDgtNC43MjktMi45di0yMC4xMjFoLTUuODAxdjIwLjEyMWguMDAxek0xMTUuNTQxIDEyMS42NjZ2LTEzLjgzYzAtMy41MjUgMi40NTMtNS42NjYgNy4zNjEtNi4zMzYuNDkyLS4wOSAxLjA3Mi0uMDkgMS41NjItLjA5aDExLjA2NGMuNTM1IDAgMS4wMjcgMCAxLjYwNy4wOSA0Ljg2My42NyA3LjM2MSAyLjgxMSA3LjM2MSA2LjMzNnYxMy44M2MwIDIuODU3LTEuMDcgNC4zNzMtMy40OCA1LjM1NWw1Ljc1NiA1LjE3NmgtNi43ODFsLTQuNjQxLTQuMTUtNC42ODYuMjY4aC02LjIwMWMtMS4wNyAwLTIuMTg2LS4xMzMtMy40MzYtLjQ5LTMuNzAxLS45ODMtNS40ODYtMi45NDYtNS40ODYtNi4xNTl6bTYuMjkxLS4zNTVjMCAuMjIzLjA0NS40LjA5LjYyNS4zNTcgMS42MDUgMS44NzMgMi40OTggNC4xNDggMi40OThoNS4zMTFsLTQuODYzLTQuMzczaDYuNzgxbDQuMjM4IDMuNzkzYy43Ni0uNDAyIDEuMjk1LTEuMDI3IDEuNDczLTEuODMuMDQ1LS4yMjMuMDQ1LS40LjA0NS0uNTh2LTEzLjI5NWMwLS4xMzUgMC0uMzEyLS4wNDUtLjQ5Mi0uMzU3LTEuNTE2LTEuODczLTIuMzYzLTQuMTA1LTIuMzYzaC04LjgzNGMtMi41ODggMC00LjIzOCAxLjExNS00LjIzOCAyLjg1NXYxMy4xNjJoLS4wMDF6TTE3Ni42MjMgMTI4LjIyN2guODQ4di0zLjIxM2gxLjE2di0uNjdoLTMuMTY4di42N2gxLjE2djMuMjEzem02LjUxNCAwaC43NTh2LTMuODgzaC0xLjE2bC0xLjAyNSAyLjY3OC0xLjAyNS0yLjY3OGgtMS4yMDV2My44ODNoLjgwM3YtMi45NDVsMS4xMTUgMi45NDVoLjU4bDEuMTE1LTIuOTQ1aC4wNDV2Mi45NDVoLS4wMDF6IiBmaWxsPSIjY2U4YjJjIi8+PHBhdGggZD0iTTEyLjAyOSA5Mi4xM0w4Ljc3MSA3Ny4wNDloMS42NTFsMS44NzQgOS45MDVjLjIyMyAxLjAyNi40MDIgMi4wNTIuNTM2IDMuMDc4bC41OC0yLjgxMSAyLjM2NS0xMC4xNzNoMS45MThsMS43ODUgNy42M2MuNDQ2IDEuODc0Ljc1OCAzLjY1OC45ODEgNS4zNTQuMTM0LS45ODEuMzU3LTIuMDk3LjYyNS0zLjMwMWwxLjkxOC05LjY4MkgyNC43TDIxLjI2NSA5Mi4xM2gtMS41NjJsLTIuNjMyLTExLjQ2Ny0uNDAyLTEuNzg1Yy0uMDg5LjY2OS0uMjIzIDEuMjUtLjM1NyAxLjc4NUwxMy42NzkgOTIuMTNoLTEuNjV6TTI1LjcyNyA4NC44MTNjMC0yLjU4OC41OC00LjU1MSAxLjY5NS01LjkzNSAxLjExNi0xLjM4MyAyLjU0My0yLjA1MiA0LjIzOS0yLjA1MiAxLjA3IDAgMi4wOTcuMjY4IDIuOTg5Ljg5MnMxLjYwNiAxLjUxNyAyLjE0MiAyLjY3N2MuNDkxIDEuMjA0Ljc1OSAyLjU4Ny43NTkgNC4yMzggMCAyLjIzMS0uNDkxIDQuMDE2LTEuNTE4IDUuNDQzLTEuMTE1IDEuNTYyLTIuNTg3IDIuMzItNC4zNzIgMi4zMi0xLjgzIDAtMy4zMDItLjgwMy00LjQxNy0yLjM2NS0xLjAyNy0xLjQ3LTEuNTE3LTMuMjEtMS41MTctNS4yMTh6bTEuNjk1IDBjMCAxLjg3NC40MDEgMy4zMDIgMS4yMDUgNC4zMjguODQ4IDEuMDI2IDEuODI5IDEuNTYyIDIuOTg5IDEuNTYyIDEuMjA1IDAgMi4yMzEtLjUzNiAzLjAzNC0xLjU2MnMxLjIwNS0yLjU0MyAxLjIwNS00LjU1MWMwLTEuMzM4LS4xNzgtMi40NTQtLjYyNS0zLjQ3OS0uMzEyLS44MDMtLjgwMy0xLjQyOC0xLjQyOC0xLjg3NGEzLjUyOSAzLjUyOSAwIDAgMC0yLjE0Mi0uNzE0Yy0xLjI1IDAtMi4yNzYuNDktMy4wMzQgMS41MTctLjgwMyAxLjAyNS0xLjIwNCAyLjYzMS0xLjIwNCA0Ljc3M3pNMzkuNjAyIDkyLjEzVjc3LjA0OWg1LjQ4OGMxLjExNSAwIDEuOTYzLjEzNCAyLjQ5OS40NDYuNTguMjY4IDEuMDI2LjcxNCAxLjMzOCAxLjM4My4zNTcuNjY5LjUzNiAxLjQyOC41MzYgMi4yNzUgMCAxLjE2MS0uMjY4IDIuMDUzLS44OTIgMi43NjctLjU4MS43MTQtMS40MjggMS4xNi0yLjU4OCAxLjM4My40OTEuMjY4LjgwMy41MzYgMS4wNzEuODAzLjQ5MS41OC44OTMgMS4yMDUgMS4yOTQgMS45MThsMi4xNDEgNC4xMDVoLTIuMDUybC0xLjY1MS0zLjEyNGMtLjY2OS0xLjIwNS0xLjExNS0yLjA1Mi0xLjQ3Mi0yLjQ1NC0uMzEyLS40NDYtLjYyNS0uNzU5LS45MzctLjg5M3MtLjcxNC0uMjIzLTEuMjQ5LS4yMjNoLTEuODc0djYuNjkzaC0xLjY1MnYuMDAyem0xLjY1MS04LjQzM2gzLjQ4Yy43NTggMCAxLjMzOC0uMDg5IDEuNzQtLjI2OC40MDEtLjE3OC43MTMtLjQ5MS45ODEtLjg0OC4yMjMtLjQwMi4zMTItLjg5My4zMTItMS40MjggMC0uNzU4LS4yMjMtMS4zMzgtLjY2OS0xLjc4NC0uNDQ2LS40NDYtMS4wNzEtLjY2OS0xLjk2My0uNjY5aC0zLjg4MnY0Ljk5N2guMDAxek01Mi4wMDYgOTIuMTNWNzcuMDQ5aDEuNjUxdjcuNDk2bDYuMTEzLTcuNDk2SDYybC01LjIyIDYuMTEzIDUuNDQzIDguOTY4aC0yLjE4NmwtNC4zNzItNy41ODUtMi4wMDggMi4zNjV2NS4yMmgtMS42NTF6TTYyLjk4MiA4Ny4yNjdsMS41NjItLjEzNGMuMDg5LjgwMy4yNjggMS40NzIuNTggMS45MTguMjY4LjQ5MS43MTQuODQ4IDEuMjQ5IDEuMTE1LjUzNi4zMTIgMS4xNi40NDYgMS44My40NDYuOTgxIDAgMS42OTUtLjI2OCAyLjIzMS0uNzEzLjUzNS0uNDkxLjgwMy0xLjExNi44MDMtMS44NzQgMC0uNDQ2LS4wODktLjgwMy0uMjY4LTEuMTYtLjE3OC0uMzEyLS40OTEtLjU4LS44OTMtLjgwMy0uNDAxLS4yMjMtMS4yNDktLjUzNS0yLjU0My0uODkyLTEuMTYtLjM1Ny0yLjAwOC0uNzE0LTIuNDk5LTEuMDcxYTMuMjU2IDMuMjU2IDAgMCAxLTEuMTYtMS4yOTRjLS4yNjgtLjUzNi0uNDAyLTEuMTYtLjQwMi0xLjgyOSAwLTEuMjUuNDAyLTIuMjMxIDEuMTYtMi45OS44MDMtLjgwMyAxLjg3NC0xLjE2IDMuMjEyLTEuMTYuODkyIDAgMS42OTUuMTc4IDIuNDA5LjUzNS42NjkuMzU3IDEuMjA1Ljg5MiAxLjYwNiAxLjU2MmE1LjA2IDUuMDYgMCAwIDEgLjU4IDIuNDA5bC0xLjU2Mi4xMzRjLS4wNDUtLjk4MS0uMzU3LTEuNjk1LS44NDgtMi4xODYtLjUzNi0uNDkxLTEuMjA1LS43MTQtMi4xNDEtLjcxNC0uOTM4IDAtMS42NTEuMjIzLTIuMDk4LjYyNWExLjk5IDEuOTkgMCAwIDAtLjc1OCAxLjYwNmMwIC42MjUuMTc5IDEuMDcxLjUzNiAxLjQyOC4zNTYuMzEyIDEuMTYuNjY5IDIuNDA5IDEuMDI2IDEuMjQ5LjMxMiAyLjA5Ny42MjUgMi41ODguODQ4Ljc1OS40MDEgMS4zMzguODkyIDEuNjk1IDEuNTE3LjQwMi42MjUuNTggMS4zODMuNTggMi4yMzFhNC42NyA0LjY3IDAgMCAxLS42MjUgMi4zNjRjLS40MDIuNzE0LS45MzcgMS4yNS0xLjY1MSAxLjYwNi0uNjY5LjQwMS0xLjUxNy41OC0yLjQ5OS41OC0xLjUxNyAwLTIuNzY2LS40NDYtMy42NTgtMS4zODNzLTEuMzgxLTIuMTg2LTEuNDI1LTMuNzQ3ek04Mi41MjQgOTIuMTNsLTMuMjU3LTE1LjA4MWgxLjY1MWwxLjg3NCA5LjkwNWMuMjIzIDEuMDI2LjQwMSAyLjA1Mi41MzYgMy4wNzhsLjU4LTIuODExIDIuMzY0LTEwLjE3M2gxLjkxOWwxLjc4NCA3LjYzYTUyLjc0IDUyLjc0IDAgMCAxIC45ODIgNS4zNTRjLjEzNC0uOTgxLjM1Ny0yLjA5Ny41OC0zLjMwMWwxLjk2My05LjY4MmgxLjY5NUw5MS43NiA5Mi4xM2gtMS41NjJsLTIuNjMzLTExLjQ2Ny0uNDAxLTEuNzg1Yy0uMDg5LjY2OS0uMjIzIDEuMjUtLjM1NyAxLjc4NUw4NC4xNzUgOTIuMTNoLTEuNjUxek05Ni45OCA5Mi4xM1Y3Ny4wNDloMS42NTFWOTIuMTNIOTYuOTh6TTEwNC42NTQgOTIuMTNWNzguODM0aC00LjA2di0xLjc4NWg5Ljc3MXYxLjc4NWgtNC4xMDNWOTIuMTNoLTEuNjA4ek0xMTEuOTczIDkyLjEzVjc3LjA0OWgxLjY1djYuMjAyaDYuNDI0di02LjIwMmgxLjY1MlY5Mi4xM2gtMS42NTJ2LTcuMDk0aC02LjQyNHY3LjA5NGgtMS42NXoiIGZpbGw9IiMwMDY3OGMiLz48L2c+PC9zdmc+;" parent="1" vertex="1">
                    <mxGeometry x="378.38" y="613" width="106" height="106" as="geometry"/>
                </mxCell>
                <mxCell id="52" style="edgeStyle=none;html=1;fontColor=#000000;startSize=10;endSize=10;" parent="1" target="13" edge="1" source="39">
                    <mxGeometry relative="1" as="geometry">
                        <mxPoint x="281" y="540" as="sourcePoint"/>
                    </mxGeometry>
                </mxCell>
                <mxCell id="41" value="S3" style="text;html=1;align=center;verticalAlign=middle;resizable=0;points=[];autosize=1;strokeColor=none;fillColor=none;fontSize=14;fontColor=#000000;" parent="1" vertex="1">
                    <mxGeometry x="3.25" y="510" width="30" height="20" as="geometry"/>
                </mxCell>
                <mxCell id="28" value="" style="outlineConnect=0;dashed=0;verticalLabelPosition=bottom;verticalAlign=top;align=center;html=1;shape=mxgraph.aws3.s3;fillColor=#E05243;gradientColor=none;" parent="1" vertex="1">
                    <mxGeometry x="-20" y="409.5" width="76.5" height="93" as="geometry"/>
                </mxCell>
                <mxCell id="51" style="edgeStyle=none;html=1;exitX=0;exitY=0.5;exitDx=0;exitDy=0;exitPerimeter=0;fontColor=#000000;startSize=10;endSize=10;" parent="1" source="29" target="28" edge="1">
                    <mxGeometry relative="1" as="geometry"/>
                </mxCell>
                <mxCell id="71" style="edgeStyle=none;html=1;exitX=0;exitY=0.5;exitDx=0;exitDy=0;exitPerimeter=0;entryX=0.5;entryY=0;entryDx=0;entryDy=0;entryPerimeter=0;endSize=10;" parent="1" source="23" target="29" edge="1">
                    <mxGeometry relative="1" as="geometry">
                        <Array as="points">
                            <mxPoint x="279" y="237"/>
                        </Array>
                    </mxGeometry>
                </mxCell>
                <mxCell id="60" style="edgeStyle=none;html=1;fontSize=14;fontColor=#000000;entryX=0;entryY=0.79;entryDx=0;entryDy=0;entryPerimeter=0;endSize=10;exitX=1;exitY=0.5;exitDx=0;exitDy=0;exitPerimeter=0;" parent="1" source="53" target="29" edge="1">
                    <mxGeometry relative="1" as="geometry">
                        <mxPoint x="230" y="370" as="targetPoint"/>
                        <Array as="points">
                            <mxPoint x="140" y="553"/>
                        </Array>
                        <mxPoint x="-190" y="550" as="sourcePoint"/>
                    </mxGeometry>
                </mxCell>
                <mxCell id="25" value="&lt;font style=&quot;font-size: 14px&quot; color=&quot;#000000&quot;&gt;Availability zone（1c）&lt;/font&gt;" style="sketch=0;outlineConnect=0;gradientColor=none;html=1;whiteSpace=wrap;fontSize=12;fontStyle=0;shape=mxgraph.aws4.group;grIcon=mxgraph.aws4.group_availability_zone;strokeColor=#000000;fillColor=none;verticalAlign=top;align=left;spacingLeft=30;fontColor=#E8E8E8;dashed=1;" parent="1" vertex="1">
                    <mxGeometry x="610" y="330" width="265" height="450" as="geometry"/>
                </mxCell>
                <mxCell id="5" value="&lt;font style=&quot;font-size: 14px&quot;&gt;Public subnet&lt;/font&gt;" style="points=[[0,0],[0.25,0],[0.5,0],[0.75,0],[1,0],[1,0.25],[1,0.5],[1,0.75],[1,1],[0.75,1],[0.5,1],[0.25,1],[0,1],[0,0.75],[0,0.5],[0,0.25]];outlineConnect=0;gradientColor=none;html=1;whiteSpace=wrap;fontSize=12;fontStyle=0;container=1;pointerEvents=0;collapsible=0;recursiveResize=0;shape=mxgraph.aws4.group;grIcon=mxgraph.aws4.group_security_group;grStroke=0;strokeColor=#248814;fillColor=#E9F3E6;verticalAlign=top;align=left;spacingLeft=30;fontColor=#248814;dashed=0;" parent="1" vertex="1">
                    <mxGeometry x="641" y="356" width="200" height="194" as="geometry"/>
                </mxCell>
                <mxCell id="7" value="&lt;font style=&quot;font-size: 14px&quot;&gt;Private subnet&lt;/font&gt;" style="points=[[0,0],[0.25,0],[0.5,0],[0.75,0],[1,0],[1,0.25],[1,0.5],[1,0.75],[1,1],[0.75,1],[0.5,1],[0.25,1],[0,1],[0,0.75],[0,0.5],[0,0.25]];outlineConnect=0;gradientColor=none;html=1;whiteSpace=wrap;fontSize=12;fontStyle=0;container=1;pointerEvents=0;collapsible=0;recursiveResize=0;shape=mxgraph.aws4.group;grIcon=mxgraph.aws4.group_security_group;grStroke=0;strokeColor=#147EBA;fillColor=#E6F2F8;verticalAlign=top;align=left;spacingLeft=30;fontColor=#147EBA;dashed=0;" parent="1" vertex="1">
                    <mxGeometry x="641" y="570" width="200" height="190" as="geometry"/>
                </mxCell>
                <mxCell id="42" value="" style="outlineConnect=0;dashed=0;verticalLabelPosition=bottom;verticalAlign=top;align=center;html=1;shape=mxgraph.aws3.certificate_manager;fillColor=#759C3E;gradientColor=none;labelBackgroundColor=#2a2a2a;fontSize=14;fontColor=#ffffff;" parent="1" vertex="1">
                    <mxGeometry x="610" y="205.75" width="76.5" height="61.5" as="geometry"/>
                </mxCell>
                <mxCell id="65" value="" style="dashed=0;html=1;shape=mxgraph.aws3.virtual_private_cloud;fillColor=#F58536;gradientColor=none;dashed=0;" parent="1" vertex="1">
                    <mxGeometry x="80" y="76" width="90" height="60" as="geometry"/>
                </mxCell>
                <mxCell id="23" value="" style="outlineConnect=0;dashed=0;verticalLabelPosition=bottom;verticalAlign=top;align=center;html=1;shape=mxgraph.aws3.elastic_load_balancing;fillColor=#F58534;gradientColor=none;" parent="1" vertex="1">
                    <mxGeometry x="492.5" y="190" width="76.5" height="93" as="geometry"/>
                </mxCell>
                <mxCell id="36" value="&lt;font style=&quot;font-size: 14px&quot; color=&quot;#000000&quot;&gt;ELB&lt;/font&gt;" style="text;html=1;align=center;verticalAlign=middle;resizable=0;points=[];autosize=1;strokeColor=none;fillColor=none;" parent="1" vertex="1">
                    <mxGeometry x="510.75" y="290" width="40" height="20" as="geometry"/>
                </mxCell>
                <mxCell id="43" value="&lt;font color=&quot;#000000&quot;&gt;ACM&lt;/font&gt;" style="text;html=1;align=center;verticalAlign=middle;resizable=0;points=[];autosize=1;strokeColor=none;fillColor=none;fontSize=14;fontColor=#ffffff;" parent="1" vertex="1">
                    <mxGeometry x="623.25" y="290" width="50" height="20" as="geometry"/>
                </mxCell>
            </root>
        </mxGraphModel>
    </diagram>
</mxfile>